G04 #@! TF.GenerationSoftware,KiCad,Pcbnew,8.0.8*
G04 #@! TF.CreationDate,2025-05-11T18:19:19+03:00*
G04 #@! TF.ProjectId,TP5410_eval_board,54503534-3130-45f6-9576-616c5f626f61,rev?*
G04 #@! TF.SameCoordinates,Original*
G04 #@! TF.FileFunction,Copper,L1,Top*
G04 #@! TF.FilePolarity,Positive*
%FSLAX46Y46*%
G04 Gerber Fmt 4.6, Leading zero omitted, Abs format (unit mm)*
G04 Created by KiCad (PCBNEW 8.0.8) date 2025-05-11 18:19:19*
%MOMM*%
%LPD*%
G01*
G04 APERTURE LIST*
G04 Aperture macros list*
%AMRoundRect*
0 Rectangle with rounded corners*
0 $1 Rounding radius*
0 $2 $3 $4 $5 $6 $7 $8 $9 X,Y pos of 4 corners*
0 Add a 4 corners polygon primitive as box body*
4,1,4,$2,$3,$4,$5,$6,$7,$8,$9,$2,$3,0*
0 Add four circle primitives for the rounded corners*
1,1,$1+$1,$2,$3*
1,1,$1+$1,$4,$5*
1,1,$1+$1,$6,$7*
1,1,$1+$1,$8,$9*
0 Add four rect primitives between the rounded corners*
20,1,$1+$1,$2,$3,$4,$5,0*
20,1,$1+$1,$4,$5,$6,$7,0*
20,1,$1+$1,$6,$7,$8,$9,0*
20,1,$1+$1,$8,$9,$2,$3,0*%
%AMOutline4P*
0 Free polygon, 4 corners , with rotation*
0 The origin of the aperture is its center*
0 number of corners: always 4*
0 $1 to $8 corner X, Y*
0 $9 Rotation angle, in degrees counterclockwise*
0 create outline with 4 corners*
4,1,4,$1,$2,$3,$4,$5,$6,$7,$8,$1,$2,$9*%
G04 Aperture macros list end*
G04 #@! TA.AperFunction,SMDPad,CuDef*
%ADD10RoundRect,0.237500X-0.371231X0.035355X0.035355X-0.371231X0.371231X-0.035355X-0.035355X0.371231X0*%
G04 #@! TD*
G04 #@! TA.AperFunction,SMDPad,CuDef*
%ADD11RoundRect,0.250000X0.300000X0.300000X-0.300000X0.300000X-0.300000X-0.300000X0.300000X-0.300000X0*%
G04 #@! TD*
G04 #@! TA.AperFunction,SMDPad,CuDef*
%ADD12RoundRect,0.237500X-0.237500X0.300000X-0.237500X-0.300000X0.237500X-0.300000X0.237500X0.300000X0*%
G04 #@! TD*
G04 #@! TA.AperFunction,SMDPad,CuDef*
%ADD13RoundRect,0.237500X-0.237500X0.250000X-0.237500X-0.250000X0.237500X-0.250000X0.237500X0.250000X0*%
G04 #@! TD*
G04 #@! TA.AperFunction,SMDPad,CuDef*
%ADD14RoundRect,0.150000X-0.150000X0.587500X-0.150000X-0.587500X0.150000X-0.587500X0.150000X0.587500X0*%
G04 #@! TD*
G04 #@! TA.AperFunction,SMDPad,CuDef*
%ADD15RoundRect,0.260000X-0.390000X-1.990000X0.390000X-1.990000X0.390000X1.990000X-0.390000X1.990000X0*%
G04 #@! TD*
G04 #@! TA.AperFunction,SMDPad,CuDef*
%ADD16RoundRect,0.360000X-0.540000X-1.590000X0.540000X-1.590000X0.540000X1.590000X-0.540000X1.590000X0*%
G04 #@! TD*
G04 #@! TA.AperFunction,SMDPad,CuDef*
%ADD17RoundRect,0.237500X-0.250000X-0.237500X0.250000X-0.237500X0.250000X0.237500X-0.250000X0.237500X0*%
G04 #@! TD*
G04 #@! TA.AperFunction,SMDPad,CuDef*
%ADD18RoundRect,0.237500X-0.035355X-0.371231X0.371231X0.035355X0.035355X0.371231X-0.371231X-0.035355X0*%
G04 #@! TD*
G04 #@! TA.AperFunction,ComponentPad*
%ADD19C,3.000000*%
G04 #@! TD*
G04 #@! TA.AperFunction,SMDPad,CuDef*
%ADD20RoundRect,0.175000X0.175000X-0.825000X0.175000X0.825000X-0.175000X0.825000X-0.175000X-0.825000X0*%
G04 #@! TD*
G04 #@! TA.AperFunction,HeatsinkPad*
%ADD21R,3.300000X2.400000*%
G04 #@! TD*
G04 #@! TA.AperFunction,ComponentPad*
%ADD22R,1.500000X4.040000*%
G04 #@! TD*
G04 #@! TA.AperFunction,ComponentPad*
%ADD23RoundRect,0.375000X-0.375000X0.625000X-0.375000X-0.625000X0.375000X-0.625000X0.375000X0.625000X0*%
G04 #@! TD*
G04 #@! TA.AperFunction,SMDPad,CuDef*
%ADD24RoundRect,0.250000X0.337500X0.475000X-0.337500X0.475000X-0.337500X-0.475000X0.337500X-0.475000X0*%
G04 #@! TD*
G04 #@! TA.AperFunction,SMDPad,CuDef*
%ADD25RoundRect,0.250000X-0.787500X-1.025000X0.787500X-1.025000X0.787500X1.025000X-0.787500X1.025000X0*%
G04 #@! TD*
G04 #@! TA.AperFunction,SMDPad,CuDef*
%ADD26Outline4P,-1.800000X-1.150000X1.800000X-0.550000X1.800000X0.550000X-1.800000X1.150000X90.000000*%
G04 #@! TD*
G04 #@! TA.AperFunction,SMDPad,CuDef*
%ADD27Outline4P,-1.800000X-1.150000X1.800000X-0.550000X1.800000X0.550000X-1.800000X1.150000X270.000000*%
G04 #@! TD*
G04 #@! TA.AperFunction,SMDPad,CuDef*
%ADD28RoundRect,0.260000X-1.990000X0.390000X-1.990000X-0.390000X1.990000X-0.390000X1.990000X0.390000X0*%
G04 #@! TD*
G04 #@! TA.AperFunction,SMDPad,CuDef*
%ADD29RoundRect,0.360000X-1.590000X0.540000X-1.590000X-0.540000X1.590000X-0.540000X1.590000X0.540000X0*%
G04 #@! TD*
G04 #@! TA.AperFunction,ComponentPad*
%ADD30RoundRect,0.375000X0.375000X-0.625000X0.375000X0.625000X-0.375000X0.625000X-0.375000X-0.625000X0*%
G04 #@! TD*
G04 #@! TA.AperFunction,SMDPad,CuDef*
%ADD31RoundRect,0.155000X-0.212500X-0.155000X0.212500X-0.155000X0.212500X0.155000X-0.212500X0.155000X0*%
G04 #@! TD*
G04 #@! TA.AperFunction,SMDPad,CuDef*
%ADD32RoundRect,0.155000X0.212500X0.155000X-0.212500X0.155000X-0.212500X-0.155000X0.212500X-0.155000X0*%
G04 #@! TD*
G04 #@! TA.AperFunction,SMDPad,CuDef*
%ADD33R,0.600000X1.500000*%
G04 #@! TD*
G04 #@! TA.AperFunction,SMDPad,CuDef*
%ADD34R,0.300000X1.500000*%
G04 #@! TD*
G04 #@! TA.AperFunction,ComponentPad*
%ADD35O,1.000000X1.900000*%
G04 #@! TD*
G04 #@! TA.AperFunction,ComponentPad*
%ADD36O,0.950000X2.150000*%
G04 #@! TD*
G04 #@! TA.AperFunction,SMDPad,CuDef*
%ADD37RoundRect,0.250000X-1.075000X0.400000X-1.075000X-0.400000X1.075000X-0.400000X1.075000X0.400000X0*%
G04 #@! TD*
G04 #@! TA.AperFunction,SMDPad,CuDef*
%ADD38RoundRect,0.500000X0.500000X-0.500000X0.500000X0.500000X-0.500000X0.500000X-0.500000X-0.500000X0*%
G04 #@! TD*
G04 #@! TA.AperFunction,SMDPad,CuDef*
%ADD39RoundRect,0.350000X0.350000X1.050000X-0.350000X1.050000X-0.350000X-1.050000X0.350000X-1.050000X0*%
G04 #@! TD*
G04 #@! TA.AperFunction,SMDPad,CuDef*
%ADD40RoundRect,0.237500X0.250000X0.237500X-0.250000X0.237500X-0.250000X-0.237500X0.250000X-0.237500X0*%
G04 #@! TD*
G04 #@! TA.AperFunction,ViaPad*
%ADD41C,0.600000*%
G04 #@! TD*
G04 #@! TA.AperFunction,Conductor*
%ADD42C,0.200000*%
G04 #@! TD*
G04 #@! TA.AperFunction,Conductor*
%ADD43C,0.500000*%
G04 #@! TD*
G04 #@! TA.AperFunction,Conductor*
%ADD44C,1.000000*%
G04 #@! TD*
G04 #@! TA.AperFunction,Conductor*
%ADD45C,2.000000*%
G04 #@! TD*
G04 APERTURE END LIST*
D10*
X-9584918Y-3089682D03*
X-8347482Y-4327118D03*
D11*
X-8506000Y-37592000D03*
X-11306000Y-37592000D03*
D12*
X9144000Y-24029500D03*
X9144000Y-25754500D03*
D13*
X9144000Y-31599500D03*
X9144000Y-33424500D03*
D14*
X10348000Y-35384500D03*
X8448000Y-35384500D03*
X9398000Y-37259500D03*
D15*
X3576000Y-36462000D03*
X6076000Y-36462000D03*
D16*
X736000Y-43262000D03*
X8916000Y-43262000D03*
D17*
X-4976500Y-41148000D03*
X-3151500Y-41148000D03*
D18*
X-7476718Y-44052718D03*
X-6239282Y-42815282D03*
D19*
X8382000Y-4826000D03*
D20*
X3638000Y-31630000D03*
X4953000Y-31630000D03*
X6223000Y-31630000D03*
X7488000Y-31630000D03*
X7493000Y-24130000D03*
X6223000Y-24130000D03*
X4953000Y-24130000D03*
X3688000Y-24130000D03*
D21*
X5588000Y-27880000D03*
D22*
X11430000Y-520000D03*
D23*
X11430000Y-2540000D03*
D24*
X-8614500Y-35306000D03*
X-10689500Y-35306000D03*
D25*
X1459500Y-12446000D03*
X7684500Y-12446000D03*
D26*
X254000Y-30586000D03*
D27*
X254000Y-24786000D03*
D25*
X-5906500Y-35560000D03*
X318500Y-35560000D03*
D28*
X-3315000Y-13355000D03*
X-3315000Y-15855000D03*
D29*
X-10115000Y-10515000D03*
X-10115000Y-18695000D03*
D22*
X-11430000Y-45200000D03*
D30*
X-11430000Y-43180000D03*
D31*
X6350000Y-16764000D03*
X7485000Y-16764000D03*
D32*
X-8322500Y-33782000D03*
X-9457500Y-33782000D03*
D19*
X-2794000Y-43688000D03*
D22*
X11430000Y-45200000D03*
D30*
X11430000Y-43180000D03*
D33*
X3200000Y-7600000D03*
X2400000Y-7600000D03*
D34*
X1250000Y-7600000D03*
X250000Y-7600000D03*
X-250000Y-7600000D03*
X-1250000Y-7600000D03*
D33*
X-2400000Y-7600000D03*
X-3200000Y-7600000D03*
X-3200000Y-7600000D03*
X-2400000Y-7600000D03*
D34*
X-1750000Y-7600000D03*
X-750000Y-7600000D03*
X750000Y-7600000D03*
X1750000Y-7600000D03*
D33*
X2400000Y-7600000D03*
X3200000Y-7600000D03*
D35*
X5540000Y-6750000D03*
D36*
X5540000Y-2850000D03*
D35*
X-5540000Y-6750000D03*
D36*
X-5540000Y-2850000D03*
D37*
X8890000Y-18770000D03*
X8890000Y-21870000D03*
D38*
X-8636000Y-29162000D03*
X-8636000Y-23162000D03*
D39*
X4994000Y-20066000D03*
X594000Y-20066000D03*
D22*
X-11430000Y-520000D03*
D23*
X-11430000Y-2540000D03*
D19*
X-4064000Y-22352000D03*
D40*
X-4167500Y-9906000D03*
X-5992500Y-9906000D03*
D24*
X-1248500Y-19050000D03*
X-3323500Y-19050000D03*
D10*
X-9457918Y-5324882D03*
X-8220482Y-6562318D03*
D41*
X-10541000Y-36703000D03*
X5334000Y-36322000D03*
X-10160000Y-34290000D03*
X10160000Y-14224000D03*
X-6350000Y-22606000D03*
X-3556000Y-7874000D03*
X-11900000Y-19558000D03*
X-7620000Y-42672000D03*
X7162800Y-26771600D03*
X-9398000Y-9652000D03*
X10322000Y-32512000D03*
X6858000Y-36830000D03*
X1524000Y-45085000D03*
X9779000Y-45085000D03*
X1270000Y-36830000D03*
X4953000Y-22606000D03*
X10160000Y-17272000D03*
X-6096000Y-23622000D03*
X-9398000Y-11430000D03*
X4013200Y-26771600D03*
X6604000Y-38575339D03*
X5588000Y-38575339D03*
X10160000Y-15748000D03*
X-8890000Y-13462000D03*
X10160000Y-12700000D03*
X9652000Y-26289000D03*
X5232400Y-29006800D03*
X-3439547Y-6745252D03*
X-6096000Y-20574000D03*
X-762000Y-36830000D03*
X1270000Y-34544000D03*
X7162800Y-29006800D03*
X-6350000Y-21590000D03*
X-127000Y-45085000D03*
X3482868Y-8215000D03*
X-762000Y-34544000D03*
X4953000Y-25654000D03*
X8636000Y-26289000D03*
X3475752Y-6782471D03*
X-11900000Y-17907000D03*
X8128000Y-45085000D03*
X-2382806Y-6719999D03*
X2417194Y-6719999D03*
X-3048000Y-9144000D03*
X762000Y-29210000D03*
X8128000Y-36068000D03*
X-7874000Y-34290000D03*
X-6858000Y-36830000D03*
X1270000Y-32258000D03*
X-6858000Y-34290000D03*
X8890000Y-35306000D03*
X3556000Y-32766000D03*
X-5080000Y-34290000D03*
X-2641600Y-14504999D03*
X-7874000Y-36576000D03*
X3556000Y-30480000D03*
X-762000Y-32258000D03*
X-5080000Y-36830000D03*
X-254000Y-29210000D03*
X8128000Y-34798000D03*
X9398000Y-11164223D03*
X8636000Y-19304000D03*
X7620000Y-19304000D03*
X5626003Y-29972000D03*
X-1016000Y-28194000D03*
X4826000Y-29972000D03*
X-1524000Y-27432000D03*
X-1527100Y-10322000D03*
X-2327103Y-10322000D03*
X9577719Y-9052000D03*
D42*
X-7476718Y-44052718D02*
X-7476718Y-42815282D01*
D43*
X-11306000Y-37468000D02*
X-11306000Y-37592000D01*
D42*
X10322000Y-32512000D02*
X10056500Y-32512000D01*
D43*
X-9965500Y-34290000D02*
X-9457500Y-33782000D01*
X-10160000Y-34776500D02*
X-10689500Y-35306000D01*
X4953000Y-22606000D02*
X4953000Y-25654000D01*
X-10541000Y-35454500D02*
X-10689500Y-35306000D01*
D42*
X10056500Y-32512000D02*
X9144000Y-33424500D01*
D43*
X-10541000Y-36703000D02*
X-10541000Y-35454500D01*
X-10160000Y-34290000D02*
X-9965500Y-34290000D01*
X-10541000Y-36703000D02*
X-11306000Y-37468000D01*
D42*
X-7476718Y-42815282D02*
X-7620000Y-42672000D01*
D43*
X-10160000Y-34290000D02*
X-10160000Y-34776500D01*
D44*
X-4064000Y-22352000D02*
X-1248500Y-19536500D01*
D43*
X6223000Y-24130000D02*
X6223000Y-19939000D01*
D44*
X-1248500Y-19536500D02*
X-1248500Y-19050000D01*
D43*
X-3048000Y-9144000D02*
X-2994000Y-9144000D01*
X-2400000Y-8550000D02*
X-2400000Y-7600000D01*
X-2994000Y-9144000D02*
X-2400000Y-8550000D01*
D42*
X11176000Y-10922000D02*
X11176000Y-20990000D01*
X-1016000Y-10922000D02*
X254000Y-9652000D01*
X-3151500Y-10922000D02*
X-1016000Y-10922000D01*
X254000Y-9652000D02*
X9906000Y-9652000D01*
X11176000Y-20990000D02*
X10296000Y-21870000D01*
X9906000Y-9652000D02*
X11176000Y-10922000D01*
X10296000Y-21870000D02*
X8890000Y-21870000D01*
X-4167500Y-9906000D02*
X-3151500Y-10922000D01*
X-2641600Y-14504999D02*
X-3041601Y-14905000D01*
X-7336000Y-20757050D02*
X-7336000Y-25531600D01*
X-6566000Y-19987050D02*
X-7336000Y-20757050D01*
X-6566000Y-15837000D02*
X-6566000Y-19987050D01*
D44*
X-8614500Y-35306000D02*
X-6160500Y-35306000D01*
D42*
X254000Y-29210000D02*
X-254000Y-29210000D01*
D44*
X-7998000Y-33906000D02*
X-7874000Y-33782000D01*
D42*
X254000Y-28194000D02*
X254000Y-29210000D01*
D44*
X-8506000Y-37592000D02*
X-7998000Y-37084000D01*
D42*
X-7874000Y-29924000D02*
X-7874000Y-34290000D01*
X-5634000Y-14905000D02*
X-6566000Y-15837000D01*
X-1371600Y-26568400D02*
X254000Y-28194000D01*
X-8636000Y-29162000D02*
X-7874000Y-29924000D01*
X-7336000Y-25531600D02*
X-6299200Y-26568400D01*
D44*
X-7998000Y-37084000D02*
X-7998000Y-33906000D01*
D42*
X-6299200Y-26568400D02*
X-1371600Y-26568400D01*
X-3041601Y-14905000D02*
X-5634000Y-14905000D01*
D44*
X-6160500Y-35306000D02*
X-5906500Y-35560000D01*
D42*
X9398000Y-11164223D02*
X8901777Y-10668000D01*
X-6966000Y-19821364D02*
X-8636000Y-21491364D01*
X8901777Y-10668000D02*
X508000Y-10668000D01*
X-8636000Y-21491364D02*
X-8636000Y-23162000D01*
X-5080000Y-11684000D02*
X-6966000Y-13570000D01*
X508000Y-10668000D02*
X-508000Y-11684000D01*
X-6966000Y-13570000D02*
X-6966000Y-19821364D01*
X-508000Y-11684000D02*
X-5080000Y-11684000D01*
X-1016000Y-28194000D02*
X-7112000Y-28194000D01*
X5626003Y-29972000D02*
X6676801Y-29972000D01*
X-7766000Y-19450000D02*
X-7766000Y-9653309D01*
X-10541000Y-22225000D02*
X-7766000Y-19450000D01*
X-7766000Y-9653309D02*
X-10422102Y-6997207D01*
X-10422102Y-3926866D02*
X-9584918Y-3089682D01*
X-7112000Y-28194000D02*
X-10541000Y-24765000D01*
X6676801Y-29972000D02*
X7488000Y-30783199D01*
X7488000Y-30783199D02*
X7488000Y-31630000D01*
X-10541000Y-24765000D02*
X-10541000Y-22225000D01*
X-10422102Y-6997207D02*
X-10422102Y-3926866D01*
X-5992500Y-9501500D02*
X-5992500Y-9906000D01*
X-8220482Y-4454118D02*
X-8220482Y-6562318D01*
X-8347482Y-4327118D02*
X-8220482Y-4454118D01*
X-8220482Y-6562318D02*
X-8220482Y-7273518D01*
X-8220482Y-7273518D02*
X-5992500Y-9501500D01*
X-7366000Y-19655679D02*
X-7366000Y-9398000D01*
X-7112000Y-27432000D02*
X-10033000Y-24511000D01*
X-10033000Y-24511000D02*
X-10033000Y-22322679D01*
X-9457918Y-7306082D02*
X-9457918Y-5324882D01*
X4826000Y-31503000D02*
X4953000Y-31630000D01*
X-7366000Y-9398000D02*
X-9457918Y-7306082D01*
X-10033000Y-22322679D02*
X-7366000Y-19655679D01*
X-1524000Y-27432000D02*
X-7112000Y-27432000D01*
X4826000Y-29972000D02*
X4826000Y-31503000D01*
X-3480750Y-41148000D02*
X-3151500Y-41148000D01*
X-6239282Y-42815282D02*
X-5148032Y-42815282D01*
X-5148032Y-42815282D02*
X-3480750Y-41148000D01*
X1250000Y-8600000D02*
X1250000Y-7600000D01*
X-1527100Y-10322000D02*
X-1432000Y-10322000D01*
X-1432000Y-10322000D02*
X-254000Y-9144000D01*
X-254000Y-9144000D02*
X706000Y-9144000D01*
X706000Y-9144000D02*
X1250000Y-8600000D01*
X-2327103Y-10322000D02*
X-2327103Y-9947104D01*
X-2327103Y-9947104D02*
X-1750000Y-9370001D01*
X-1750000Y-9370001D02*
X-1750000Y-7600000D01*
D45*
X9398000Y-37259500D02*
X9398000Y-38100000D01*
X-6350000Y-38862000D02*
X-10414000Y-42926000D01*
X3576000Y-38882000D02*
X3556000Y-38862000D01*
X9398000Y-38100000D02*
X7366000Y-40132000D01*
D42*
X-4976500Y-41148000D02*
X-4976500Y-39012500D01*
D45*
X3556000Y-38862000D02*
X-4826000Y-38862000D01*
X-4826000Y-38862000D02*
X-6350000Y-38862000D01*
X4826000Y-40132000D02*
X3576000Y-38882000D01*
X7366000Y-40132000D02*
X4826000Y-40132000D01*
D42*
X-4976500Y-39012500D02*
X-4826000Y-38862000D01*
D44*
X3576000Y-38882000D02*
X3576000Y-36208000D01*
D42*
X10922000Y-21844000D02*
X10922000Y-33782000D01*
X9577719Y-9052000D02*
X9777719Y-9252000D01*
X9777719Y-9252000D02*
X10071686Y-9252000D01*
X10922000Y-33782000D02*
X10348000Y-34356000D01*
X10071686Y-9252000D02*
X11576000Y-10756314D01*
X11576000Y-21190000D02*
X10922000Y-21844000D01*
X10348000Y-34356000D02*
X10348000Y-35384500D01*
X11576000Y-10756314D02*
X11576000Y-21190000D01*
X6223000Y-31630000D02*
X6223000Y-32630000D01*
X9144000Y-32004000D02*
X9144000Y-31599500D01*
X6223000Y-32630000D02*
X6867000Y-33274000D01*
X7874000Y-33274000D02*
X9144000Y-32004000D01*
X6867000Y-33274000D02*
X7874000Y-33274000D01*
G04 #@! TA.AperFunction,Conductor*
G36*
X3321902Y-11273356D02*
G01*
X3352387Y-11282148D01*
X3511666Y-11328085D01*
X3523657Y-11332221D01*
X3828599Y-11455206D01*
X3887792Y-11479080D01*
X3899322Y-11484432D01*
X4246526Y-11667808D01*
X4257429Y-11674303D01*
X4584024Y-11892258D01*
X4594218Y-11899844D01*
X4896771Y-12150082D01*
X4906139Y-12158675D01*
X5161151Y-12417907D01*
X5181490Y-12438582D01*
X5189928Y-12448090D01*
X5435170Y-12754712D01*
X5442591Y-12765033D01*
X5574989Y-12970655D01*
X5626496Y-13050649D01*
X5655151Y-13095151D01*
X5661476Y-13106178D01*
X5710523Y-13202853D01*
X5723300Y-13271545D01*
X5719095Y-13293283D01*
X5688600Y-13399134D01*
X5681531Y-13426536D01*
X5678428Y-13440129D01*
X5672897Y-13467926D01*
X5617968Y-13791211D01*
X5614007Y-13819278D01*
X5612449Y-13833107D01*
X5610068Y-13861345D01*
X5599569Y-14048307D01*
X5592120Y-14180951D01*
X5592118Y-14180989D01*
X5591825Y-14186199D01*
X5591490Y-14192176D01*
X5590892Y-14206395D01*
X5590699Y-14213288D01*
X5590500Y-14227491D01*
X5590500Y-15236507D01*
X5590699Y-15250711D01*
X5590894Y-15257670D01*
X5591487Y-15271771D01*
X5610070Y-15602677D01*
X5612450Y-15630899D01*
X5614008Y-15644725D01*
X5617973Y-15672806D01*
X5662513Y-15934945D01*
X5662517Y-15934960D01*
X5677701Y-15998853D01*
X5677707Y-15998875D01*
X5687153Y-16029591D01*
X5687161Y-16029612D01*
X5710505Y-16091002D01*
X5710506Y-16091005D01*
X5788285Y-16212031D01*
X5788298Y-16212048D01*
X5834042Y-16264840D01*
X5834045Y-16264843D01*
X5834049Y-16264847D01*
X5942783Y-16359067D01*
X5942786Y-16359068D01*
X5942787Y-16359069D01*
X6032054Y-16399837D01*
X6073660Y-16418838D01*
X6140699Y-16438523D01*
X6140703Y-16438524D01*
X6283119Y-16459000D01*
X6493000Y-16459000D01*
X6560039Y-16478685D01*
X6605794Y-16531489D01*
X6617000Y-16583000D01*
X6617000Y-16985190D01*
X6617001Y-16985215D01*
X6619923Y-17022356D01*
X6619924Y-17022358D01*
X6624458Y-17037965D01*
X6624257Y-17107834D01*
X6615334Y-17129883D01*
X6614824Y-17130860D01*
X6614772Y-17131014D01*
X6580317Y-17214679D01*
X6580314Y-17214687D01*
X6557662Y-17356764D01*
X6557662Y-17356772D01*
X6556594Y-17426597D01*
X6556594Y-17426640D01*
X6574888Y-17569342D01*
X6574889Y-17569343D01*
X6574889Y-17569344D01*
X6574890Y-17569346D01*
X6632652Y-17701123D01*
X6643175Y-17718061D01*
X6669525Y-17760475D01*
X6669528Y-17760478D01*
X6762056Y-17870623D01*
X6762058Y-17870624D01*
X6762064Y-17870631D01*
X6816629Y-17919394D01*
X6853498Y-17978739D01*
X6858000Y-18011850D01*
X6858000Y-19036892D01*
X6851042Y-19077846D01*
X6834632Y-19124742D01*
X6834630Y-19124750D01*
X6814435Y-19303996D01*
X6814435Y-19304003D01*
X6834630Y-19483251D01*
X6851041Y-19530148D01*
X6858000Y-19571103D01*
X6858000Y-20442948D01*
X6857734Y-20451058D01*
X6840060Y-20720695D01*
X6837943Y-20736776D01*
X6786019Y-20997819D01*
X6781821Y-21013487D01*
X6696269Y-21265515D01*
X6690062Y-21280500D01*
X6572343Y-21519210D01*
X6564233Y-21533257D01*
X6416365Y-21754558D01*
X6406491Y-21767426D01*
X6231002Y-21967533D01*
X6219533Y-21979002D01*
X6019426Y-22154491D01*
X6006557Y-22164366D01*
X5840980Y-22275000D01*
X5774303Y-22295877D01*
X5706923Y-22277392D01*
X5667096Y-22237869D01*
X5604784Y-22138700D01*
X5582816Y-22103738D01*
X5455262Y-21976184D01*
X5437477Y-21965009D01*
X5302523Y-21880211D01*
X5132254Y-21820631D01*
X5132249Y-21820630D01*
X4953004Y-21800435D01*
X4952996Y-21800435D01*
X4773750Y-21820630D01*
X4773745Y-21820631D01*
X4603476Y-21880211D01*
X4466344Y-21966377D01*
X4399107Y-21985377D01*
X4332272Y-21965009D01*
X4293162Y-21923688D01*
X4142708Y-21664799D01*
X4114833Y-21616833D01*
X4108656Y-21606491D01*
X4105553Y-21601433D01*
X4099078Y-21591156D01*
X2571736Y-19230720D01*
X2561673Y-19215760D01*
X2561645Y-19215718D01*
X2556624Y-19208535D01*
X2546071Y-19193993D01*
X2374290Y-18965893D01*
X2351643Y-18937948D01*
X2351638Y-18937942D01*
X2340053Y-18924643D01*
X2315462Y-18898365D01*
X2313542Y-18896455D01*
X2116165Y-18700037D01*
X2089796Y-18675600D01*
X2076464Y-18664098D01*
X2062623Y-18652993D01*
X2048384Y-18641567D01*
X1963397Y-18578211D01*
X1822952Y-18473512D01*
X1793344Y-18453038D01*
X1778491Y-18443531D01*
X1747565Y-18425252D01*
X1616141Y-18353754D01*
X1500582Y-18290887D01*
X1500574Y-18290883D01*
X1468415Y-18274843D01*
X1452331Y-18267523D01*
X1419110Y-18253809D01*
X1419097Y-18253804D01*
X1419087Y-18253800D01*
X1244622Y-18188948D01*
X1155528Y-18155830D01*
X1121419Y-18144517D01*
X1121411Y-18144514D01*
X1121397Y-18144510D01*
X1104469Y-18139556D01*
X1096105Y-18137428D01*
X1069614Y-18130688D01*
X794824Y-18071103D01*
X759449Y-18064740D01*
X741974Y-18062236D01*
X706215Y-18058404D01*
X427432Y-18038527D01*
X384708Y-18037294D01*
X384697Y-18037294D01*
X384692Y-18037294D01*
X368722Y-18037508D01*
X363727Y-18037576D01*
X332530Y-18039319D01*
X320984Y-18039964D01*
X270891Y-18044897D01*
X120611Y-18059699D01*
X120601Y-18059700D01*
X71551Y-18066977D01*
X71543Y-18066978D01*
X47716Y-18071718D01*
X47711Y-18071719D01*
X47702Y-18071721D01*
X31953Y-18075665D01*
X-409Y-18083772D01*
X-441Y-18083781D01*
X-191437Y-18141720D01*
X-191444Y-18141722D01*
X-238154Y-18158435D01*
X-238179Y-18158444D01*
X-259740Y-18167376D01*
X-260617Y-18167739D01*
X-305456Y-18188945D01*
X-305462Y-18188948D01*
X-333229Y-18203789D01*
X-333230Y-18203790D01*
X-333234Y-18203792D01*
X-437752Y-18278100D01*
X-483616Y-18320420D01*
X-483620Y-18320424D01*
X-483620Y-18320425D01*
X-566067Y-18418631D01*
X-625838Y-18549508D01*
X-645523Y-18616547D01*
X-645524Y-18616551D01*
X-666000Y-18758967D01*
X-666000Y-18758970D01*
X-666000Y-19542942D01*
X-666642Y-19555542D01*
X-666876Y-19557833D01*
X-672526Y-19584232D01*
X-682884Y-19615492D01*
X-695047Y-19641576D01*
X-709906Y-19665666D01*
X-727760Y-19688244D01*
X-764682Y-19725166D01*
X-797992Y-19761917D01*
X-813413Y-19780707D01*
X-842969Y-19820558D01*
X-842977Y-19820570D01*
X-857223Y-19841891D01*
X-872645Y-19860682D01*
X-1083130Y-20071167D01*
X-1083147Y-20071186D01*
X-1083148Y-20071187D01*
X-1119299Y-20111433D01*
X-1119304Y-20111439D01*
X-1135929Y-20132070D01*
X-1139971Y-20137676D01*
X-1167567Y-20175946D01*
X-1227338Y-20306823D01*
X-1247023Y-20373862D01*
X-1247024Y-20373866D01*
X-1267500Y-20516282D01*
X-1267500Y-20516285D01*
X-1267500Y-22482000D01*
X-1287185Y-22549039D01*
X-1339989Y-22594794D01*
X-1391500Y-22606000D01*
X-1519572Y-22606000D01*
X-1528418Y-22605684D01*
X-1804339Y-22585949D01*
X-1821851Y-22583431D01*
X-2087810Y-22525576D01*
X-2104786Y-22520592D01*
X-2359816Y-22425470D01*
X-2375909Y-22418120D01*
X-2614799Y-22287676D01*
X-2629682Y-22278111D01*
X-2847577Y-22114997D01*
X-2860948Y-22103411D01*
X-3053411Y-21910948D01*
X-3064997Y-21897577D01*
X-3228111Y-21679682D01*
X-3237676Y-21664799D01*
X-3368120Y-21425909D01*
X-3375470Y-21409816D01*
X-3470592Y-21154786D01*
X-3475576Y-21137809D01*
X-3499265Y-21028907D01*
X-3494280Y-20959215D01*
X-3452408Y-20903282D01*
X-3421437Y-20886371D01*
X-3315801Y-20846970D01*
X-3254478Y-20813485D01*
X-3254475Y-20813483D01*
X-3139303Y-20727267D01*
X-3139285Y-20727251D01*
X-2559962Y-20147926D01*
X-2537375Y-20130067D01*
X-2517342Y-20117711D01*
X-2393291Y-19993660D01*
X-2393288Y-19993656D01*
X-2380929Y-19973620D01*
X-2363073Y-19951038D01*
X-2015390Y-19603354D01*
X-2015375Y-19603339D01*
X-1979221Y-19563090D01*
X-1962984Y-19542942D01*
X-1962587Y-19542450D01*
X-1930930Y-19498549D01*
X-1930927Y-19498544D01*
X-1871156Y-19367663D01*
X-1851474Y-19300628D01*
X-1851472Y-19300621D01*
X-1830999Y-19158215D01*
X-1830999Y-18557065D01*
X-1830356Y-18544456D01*
X-1830121Y-18542157D01*
X-1824470Y-18515762D01*
X-1814113Y-18484507D01*
X-1801946Y-18458415D01*
X-1787096Y-18434339D01*
X-1769238Y-18411754D01*
X-1711238Y-18353754D01*
X-1711235Y-18353750D01*
X-1685322Y-18320426D01*
X-1634192Y-18254673D01*
X-1634190Y-18254670D01*
X-1634187Y-18254666D01*
X-1632093Y-18251145D01*
X-1617218Y-18220195D01*
X-1593397Y-18170628D01*
X-1576011Y-18091673D01*
X-1562455Y-18030109D01*
X-1545157Y-17796582D01*
X-1520574Y-17731180D01*
X-1509177Y-17718061D01*
X-1166550Y-17375434D01*
X-1166549Y-17375433D01*
X-1111022Y-17319907D01*
X-1111021Y-17319906D01*
X-1110991Y-17319876D01*
X-1097303Y-17305640D01*
X-1097277Y-17305612D01*
X-1090667Y-17298462D01*
X-1077466Y-17283607D01*
X-930734Y-17111806D01*
X-906170Y-17080648D01*
X-906164Y-17080641D01*
X-894739Y-17064915D01*
X-872680Y-17031902D01*
X-757176Y-16843417D01*
X-737770Y-16808764D01*
X-728941Y-16791434D01*
X-712336Y-16755412D01*
X-696044Y-16716080D01*
X-696042Y-16716077D01*
X-646705Y-16596968D01*
X-637685Y-16579329D01*
X-631060Y-16568588D01*
X-631059Y-16568585D01*
X-575142Y-16399837D01*
X-575140Y-16399827D01*
X-569840Y-16347950D01*
X-567056Y-16331607D01*
X-545616Y-16242303D01*
X-537877Y-16203398D01*
X-534831Y-16184164D01*
X-530166Y-16144752D01*
X-526074Y-16092758D01*
X-526068Y-16092698D01*
X-513655Y-15934947D01*
X-513080Y-15927645D01*
X-513079Y-15927641D01*
X-513078Y-15927614D01*
X-511695Y-15874780D01*
X-511695Y-15874778D01*
X-512373Y-15848853D01*
X-516526Y-15796084D01*
X-534331Y-15660850D01*
X-547233Y-15595990D01*
X-551501Y-15580062D01*
X-555611Y-15564727D01*
X-557922Y-15557917D01*
X-564500Y-15518068D01*
X-564500Y-15414333D01*
X-564501Y-15414314D01*
X-575140Y-15310167D01*
X-575141Y-15310164D01*
X-631060Y-15141413D01*
X-631065Y-15141402D01*
X-724388Y-14990103D01*
X-724391Y-14990099D01*
X-850099Y-14864391D01*
X-850103Y-14864388D01*
X-1001402Y-14771065D01*
X-1001413Y-14771060D01*
X-1170166Y-14715141D01*
X-1170173Y-14715140D01*
X-1274317Y-14704500D01*
X-1274325Y-14704500D01*
X-1719757Y-14704500D01*
X-1786796Y-14684815D01*
X-1832551Y-14632011D01*
X-1842977Y-14566617D01*
X-1836035Y-14505002D01*
X-1836035Y-14504995D01*
X-1856230Y-14325749D01*
X-1856231Y-14325744D01*
X-1915811Y-14155475D01*
X-2011784Y-14002736D01*
X-2139337Y-13875183D01*
X-2292076Y-13779210D01*
X-2462345Y-13719630D01*
X-2462350Y-13719629D01*
X-2641596Y-13699434D01*
X-2641604Y-13699434D01*
X-2820849Y-13719629D01*
X-2820854Y-13719630D01*
X-2991123Y-13779210D01*
X-3121817Y-13861331D01*
X-3143862Y-13875183D01*
X-3271416Y-14002737D01*
X-3367389Y-14155477D01*
X-3385192Y-14206355D01*
X-3390475Y-14221454D01*
X-3431197Y-14278230D01*
X-3496149Y-14303978D01*
X-3507517Y-14304500D01*
X-4535199Y-14304500D01*
X-4602238Y-14284815D01*
X-4647993Y-14232011D01*
X-4658734Y-14191227D01*
X-4669897Y-14062674D01*
X-4670309Y-14048307D01*
X-4660679Y-13720438D01*
X-4659424Y-13706118D01*
X-4611919Y-13381595D01*
X-4609017Y-13367517D01*
X-4524270Y-13050649D01*
X-4519757Y-13037001D01*
X-4409851Y-12759680D01*
X-4398913Y-12732080D01*
X-4392853Y-12719049D01*
X-4237529Y-12430153D01*
X-4230004Y-12417915D01*
X-4173908Y-12337534D01*
X-4119400Y-12293825D01*
X-4072223Y-12284500D01*
X-594669Y-12284500D01*
X-594653Y-12284501D01*
X-587057Y-12284501D01*
X-428946Y-12284501D01*
X-428943Y-12284501D01*
X-276215Y-12243577D01*
X-264151Y-12236611D01*
X-226097Y-12214641D01*
X-226095Y-12214639D01*
X-139284Y-12164520D01*
X-27480Y-12052716D01*
X-27479Y-12052715D01*
X-23153Y-12048389D01*
X-23146Y-12048381D01*
X720416Y-11304819D01*
X781739Y-11271334D01*
X808097Y-11268500D01*
X3287540Y-11268500D01*
X3321902Y-11273356D01*
G37*
G04 #@! TD.AperFunction*
G04 #@! TA.AperFunction,Conductor*
G36*
X8565453Y-11288185D02*
G01*
X8611208Y-11340989D01*
X8615449Y-11351529D01*
X8635421Y-11408605D01*
X8672210Y-11513744D01*
X8751429Y-11639819D01*
X8768184Y-11666485D01*
X8895738Y-11794039D01*
X9048478Y-11890012D01*
X9218745Y-11949591D01*
X9218750Y-11949592D01*
X9397996Y-11969788D01*
X9398000Y-11969788D01*
X9398004Y-11969788D01*
X9577249Y-11949592D01*
X9577252Y-11949591D01*
X9577255Y-11949591D01*
X9747522Y-11890012D01*
X9900262Y-11794039D01*
X10027816Y-11666485D01*
X10123789Y-11513745D01*
X10134822Y-11482213D01*
X10175543Y-11425437D01*
X10240495Y-11399689D01*
X10299314Y-11408605D01*
X10460051Y-11475184D01*
X10472571Y-11481214D01*
X10482552Y-11486731D01*
X10511482Y-11502720D01*
X10560634Y-11552376D01*
X10575500Y-11611247D01*
X10575500Y-17642603D01*
X10555815Y-17709642D01*
X10503011Y-17755397D01*
X10433853Y-17765341D01*
X10386404Y-17748142D01*
X10284340Y-17685189D01*
X10284335Y-17685187D01*
X10284334Y-17685186D01*
X10117797Y-17630001D01*
X10117795Y-17630000D01*
X10015010Y-17619500D01*
X7764998Y-17619500D01*
X7764981Y-17619501D01*
X7662203Y-17630000D01*
X7662200Y-17630001D01*
X7495663Y-17685187D01*
X7477572Y-17696345D01*
X7410179Y-17714782D01*
X7343516Y-17693856D01*
X7340725Y-17691933D01*
X7249283Y-17627052D01*
X7238411Y-17618382D01*
X7208579Y-17591723D01*
X7098905Y-17493711D01*
X7062035Y-17434364D01*
X7063104Y-17364502D01*
X7080701Y-17330734D01*
X7080591Y-17330669D01*
X7081804Y-17328616D01*
X7083566Y-17325237D01*
X7084550Y-17323966D01*
X7084563Y-17323954D01*
X7168870Y-17181400D01*
X7168870Y-17181396D01*
X7168872Y-17181395D01*
X7215075Y-17022362D01*
X7215076Y-17022356D01*
X7217999Y-16985210D01*
X7218000Y-16985203D01*
X7217999Y-16542798D01*
X7215076Y-16505642D01*
X7168870Y-16346600D01*
X7084563Y-16204046D01*
X7084561Y-16204044D01*
X7084558Y-16204040D01*
X6967459Y-16086941D01*
X6967450Y-16086934D01*
X6824898Y-16002629D01*
X6824895Y-16002628D01*
X6665862Y-15956424D01*
X6665856Y-15956423D01*
X6628710Y-15953500D01*
X6283119Y-15953500D01*
X6216080Y-15933815D01*
X6170325Y-15881011D01*
X6160871Y-15850271D01*
X6116331Y-15588133D01*
X6114774Y-15574314D01*
X6096195Y-15243471D01*
X6096000Y-15236519D01*
X6096000Y-14227480D01*
X6096195Y-14220528D01*
X6096825Y-14209295D01*
X6114775Y-13889675D01*
X6116329Y-13875876D01*
X6171253Y-13552618D01*
X6174347Y-13539066D01*
X6265117Y-13223997D01*
X6269710Y-13210873D01*
X6293530Y-13153364D01*
X6395184Y-12907948D01*
X6401206Y-12895442D01*
X6559819Y-12608455D01*
X6567214Y-12596687D01*
X6756954Y-12329273D01*
X6765609Y-12318420D01*
X6984108Y-12073920D01*
X6993920Y-12064108D01*
X7238420Y-11845609D01*
X7249273Y-11836954D01*
X7516692Y-11647210D01*
X7528455Y-11639819D01*
X7815442Y-11481206D01*
X7827948Y-11475184D01*
X8130873Y-11349710D01*
X8143993Y-11345118D01*
X8393120Y-11273345D01*
X8427448Y-11268500D01*
X8498414Y-11268500D01*
X8565453Y-11288185D01*
G37*
G04 #@! TD.AperFunction*
G04 #@! TA.AperFunction,Conductor*
G36*
X-9759297Y-9415939D02*
G01*
X-9743230Y-9418054D01*
X-9482170Y-9469982D01*
X-9466527Y-9474173D01*
X-9214472Y-9559734D01*
X-9199506Y-9565934D01*
X-8960783Y-9683659D01*
X-8946748Y-9691762D01*
X-8725429Y-9839642D01*
X-8712583Y-9849499D01*
X-8512460Y-10025002D01*
X-8501002Y-10036460D01*
X-8397271Y-10154743D01*
X-8367869Y-10218124D01*
X-8366500Y-10236501D01*
X-8366500Y-19149902D01*
X-8386185Y-19216941D01*
X-8402819Y-19237583D01*
X-8977236Y-19812000D01*
X-10033000Y-19812000D01*
X-10306695Y-19794060D01*
X-10322776Y-19791943D01*
X-10583819Y-19740019D01*
X-10599487Y-19735821D01*
X-10851515Y-19650269D01*
X-10866500Y-19644062D01*
X-11105210Y-19526343D01*
X-11119257Y-19518233D01*
X-11340558Y-19370365D01*
X-11353426Y-19360491D01*
X-11553533Y-19185002D01*
X-11565002Y-19173533D01*
X-11740491Y-18973426D01*
X-11750365Y-18960558D01*
X-11898233Y-18739257D01*
X-11906343Y-18725210D01*
X-12024062Y-18486500D01*
X-12030269Y-18471515D01*
X-12115821Y-18219487D01*
X-12120019Y-18203819D01*
X-12171943Y-17942776D01*
X-12174060Y-17926695D01*
X-12191734Y-17657058D01*
X-12192000Y-17648948D01*
X-12192000Y-11561051D01*
X-12191734Y-11552941D01*
X-12174060Y-11283304D01*
X-12171943Y-11267223D01*
X-12120019Y-11006180D01*
X-12115821Y-10990512D01*
X-12030269Y-10738484D01*
X-12024062Y-10723499D01*
X-11906343Y-10484789D01*
X-11898233Y-10470742D01*
X-11750365Y-10249441D01*
X-11740491Y-10236573D01*
X-11565002Y-10036466D01*
X-11553533Y-10024997D01*
X-11353426Y-9849508D01*
X-11340562Y-9839637D01*
X-11119257Y-9691766D01*
X-11105210Y-9683656D01*
X-10866500Y-9565937D01*
X-10851522Y-9559733D01*
X-10599476Y-9474175D01*
X-10583826Y-9469981D01*
X-10322771Y-9418055D01*
X-10306700Y-9415939D01*
X-10041101Y-9398531D01*
X-10024899Y-9398531D01*
X-9759297Y-9415939D01*
G37*
G04 #@! TD.AperFunction*
G04 #@! TA.AperFunction,Conductor*
G36*
X9158416Y-21103124D02*
G01*
X9177625Y-21106167D01*
X9429949Y-21166745D01*
X9448446Y-21172755D01*
X9688183Y-21272057D01*
X9705509Y-21280885D01*
X9926763Y-21416470D01*
X9942498Y-21427902D01*
X10139812Y-21596423D01*
X10153570Y-21610181D01*
X10291789Y-21772014D01*
X10320360Y-21835776D01*
X10321499Y-21852546D01*
X10321499Y-21933046D01*
X10321500Y-21933059D01*
X10321500Y-24375451D01*
X10301815Y-24442490D01*
X10291791Y-24455982D01*
X10153571Y-24617818D01*
X10139814Y-24631574D01*
X10040379Y-24716500D01*
X9942506Y-24800091D01*
X9926764Y-24811528D01*
X9900517Y-24827612D01*
X9833072Y-24845856D01*
X9770632Y-24827423D01*
X9695522Y-24781095D01*
X9695517Y-24781093D01*
X9695516Y-24781092D01*
X9531753Y-24726826D01*
X9531751Y-24726825D01*
X9430678Y-24716500D01*
X8857330Y-24716500D01*
X8857312Y-24716501D01*
X8756247Y-24726825D01*
X8592484Y-24781092D01*
X8592481Y-24781093D01*
X8445651Y-24871659D01*
X8341004Y-24976306D01*
X8279681Y-25009790D01*
X8209989Y-25004806D01*
X8205871Y-25003185D01*
X8091822Y-24955945D01*
X8074484Y-24947111D01*
X7853236Y-24811529D01*
X7837501Y-24800097D01*
X7640172Y-24631563D01*
X7626436Y-24617827D01*
X7457900Y-24420496D01*
X7446470Y-24404763D01*
X7310885Y-24183509D01*
X7302057Y-24166183D01*
X7202755Y-23926446D01*
X7196744Y-23907945D01*
X7136168Y-23655630D01*
X7133124Y-23636412D01*
X7112382Y-23372853D01*
X7112000Y-23363124D01*
X7112000Y-22864875D01*
X7112382Y-22855146D01*
X7133124Y-22591587D01*
X7136166Y-22572376D01*
X7196746Y-22320047D01*
X7202754Y-22301557D01*
X7302059Y-22061810D01*
X7310882Y-22044495D01*
X7446474Y-21823229D01*
X7457895Y-21807509D01*
X7626442Y-21610165D01*
X7640165Y-21596442D01*
X7837509Y-21427895D01*
X7853229Y-21416474D01*
X8074495Y-21280882D01*
X8091810Y-21272059D01*
X8331557Y-21172754D01*
X8350047Y-21166746D01*
X8602376Y-21106166D01*
X8621581Y-21103124D01*
X8880280Y-21082765D01*
X8899720Y-21082765D01*
X9158416Y-21103124D01*
G37*
G04 #@! TD.AperFunction*
G04 #@! TA.AperFunction,Conductor*
G36*
X-1642940Y-15241061D02*
G01*
X-1502835Y-15259506D01*
X-1471569Y-15267883D01*
X-1348579Y-15318827D01*
X-1320549Y-15335010D01*
X-1214932Y-15416053D01*
X-1192053Y-15438932D01*
X-1113106Y-15541819D01*
X-1111012Y-15544548D01*
X-1094827Y-15572581D01*
X-1043884Y-15695568D01*
X-1035506Y-15726833D01*
X-1017700Y-15862080D01*
X-1017022Y-15887986D01*
X-1029726Y-16049416D01*
X-1034108Y-16105090D01*
X-1037151Y-16124303D01*
X-1088755Y-16339248D01*
X-1094764Y-16357740D01*
X-1163064Y-16522632D01*
X-1179356Y-16561964D01*
X-1188185Y-16579294D01*
X-1303689Y-16767779D01*
X-1315119Y-16783510D01*
X-1461851Y-16955311D01*
X-1468461Y-16962461D01*
X-1523988Y-17017987D01*
X-1523994Y-17017994D01*
X-2032000Y-17526000D01*
X-2066575Y-17992772D01*
X-2068680Y-17996312D01*
X-2178712Y-18106344D01*
X-2270814Y-18255666D01*
X-2325999Y-18422203D01*
X-2336500Y-18524991D01*
X-2336499Y-19158216D01*
X-2356183Y-19225255D01*
X-2372818Y-19245897D01*
X-3496739Y-20369819D01*
X-3558062Y-20403304D01*
X-3610778Y-20403304D01*
X-3778564Y-20366805D01*
X-3778571Y-20366804D01*
X-4063999Y-20346390D01*
X-4064001Y-20346390D01*
X-4349433Y-20366804D01*
X-4629037Y-20427628D01*
X-4629043Y-20427630D01*
X-4629046Y-20427631D01*
X-4897161Y-20527633D01*
X-4897166Y-20527635D01*
X-5148309Y-20664770D01*
X-5148317Y-20664775D01*
X-5377387Y-20836254D01*
X-5377405Y-20836270D01*
X-5579729Y-21038594D01*
X-5579745Y-21038612D01*
X-5751224Y-21267682D01*
X-5751226Y-21267685D01*
X-5888367Y-21518839D01*
X-5988369Y-21786954D01*
X-5988370Y-21786960D01*
X-5988371Y-21786962D01*
X-6033238Y-21993215D01*
X-6049196Y-22066572D01*
X-6069610Y-22352000D01*
X-6049196Y-22637428D01*
X-6049195Y-22637432D01*
X-6049195Y-22637433D01*
X-5988371Y-22917037D01*
X-5988369Y-22917046D01*
X-5888367Y-23185161D01*
X-5751226Y-23436315D01*
X-5579739Y-23665395D01*
X-5377395Y-23867739D01*
X-5148315Y-24039226D01*
X-4963151Y-24140333D01*
X-4913748Y-24189737D01*
X-4898896Y-24258010D01*
X-4923313Y-24323474D01*
X-4979246Y-24365346D01*
X-5015445Y-24372959D01*
X-5203443Y-24383795D01*
X-5210578Y-24384000D01*
X-5583933Y-24384000D01*
X-5592043Y-24383735D01*
X-5878279Y-24364974D01*
X-5894361Y-24362856D01*
X-6171690Y-24307691D01*
X-6187356Y-24303493D01*
X-6455115Y-24212602D01*
X-6470101Y-24206395D01*
X-6666344Y-24109618D01*
X-6717764Y-24062313D01*
X-6735500Y-23998406D01*
X-6735500Y-21057147D01*
X-6715815Y-20990108D01*
X-6699181Y-20969466D01*
X-6204355Y-20474640D01*
X-6204349Y-20474635D01*
X-6085481Y-20355767D01*
X-6085475Y-20355759D01*
X-6006426Y-20218840D01*
X-6006423Y-20218833D01*
X-5994485Y-20174282D01*
X-5965500Y-20066107D01*
X-5965500Y-16137097D01*
X-5945815Y-16070058D01*
X-5929181Y-16049416D01*
X-5421584Y-15541819D01*
X-5360261Y-15508334D01*
X-5333903Y-15505500D01*
X-3128270Y-15505500D01*
X-3128254Y-15505501D01*
X-3120658Y-15505501D01*
X-2962547Y-15505501D01*
X-2962544Y-15505501D01*
X-2809816Y-15464577D01*
X-2797752Y-15457611D01*
X-2759698Y-15435641D01*
X-2759696Y-15435639D01*
X-2672885Y-15385520D01*
X-2623064Y-15335699D01*
X-2561741Y-15302214D01*
X-2549284Y-15300162D01*
X-2462345Y-15290367D01*
X-2374149Y-15259506D01*
X-2338288Y-15246958D01*
X-2297334Y-15240000D01*
X-1659126Y-15240000D01*
X-1642940Y-15241061D01*
G37*
G04 #@! TD.AperFunction*
G04 #@! TA.AperFunction,Conductor*
G36*
X9756824Y-508736D02*
G01*
X9763827Y-511424D01*
X9939841Y-578989D01*
X9951683Y-584261D01*
X10293227Y-758286D01*
X10304441Y-764762D01*
X10607923Y-961845D01*
X10625901Y-973520D01*
X10636402Y-981149D01*
X10934281Y-1222367D01*
X10943926Y-1231052D01*
X11214947Y-1502073D01*
X11223632Y-1511718D01*
X11464850Y-1809597D01*
X11472479Y-1820098D01*
X11681234Y-2141552D01*
X11687716Y-2152779D01*
X11861733Y-2494305D01*
X11867012Y-2506163D01*
X12004370Y-2863994D01*
X12008381Y-2876337D01*
X12107586Y-3246574D01*
X12110284Y-3259270D01*
X12170242Y-3637833D01*
X12171599Y-3650741D01*
X12191830Y-4036756D01*
X12192000Y-4043246D01*
X12192000Y-5394948D01*
X12191851Y-5401033D01*
X12173037Y-5783986D01*
X12171844Y-5796096D01*
X12116034Y-6172334D01*
X12113660Y-6184268D01*
X12021239Y-6553237D01*
X12017706Y-6564882D01*
X11889573Y-6922989D01*
X11884917Y-6934232D01*
X11722287Y-7278085D01*
X11716550Y-7288817D01*
X11521012Y-7615051D01*
X11514252Y-7625169D01*
X11287667Y-7930684D01*
X11279947Y-7940090D01*
X11024518Y-8221913D01*
X11015913Y-8230518D01*
X10734090Y-8485947D01*
X10724684Y-8493667D01*
X10455485Y-8693319D01*
X10389912Y-8717443D01*
X10321706Y-8702287D01*
X10276624Y-8659693D01*
X10207534Y-8549737D01*
X10079981Y-8422184D01*
X9927242Y-8326211D01*
X9756973Y-8266631D01*
X9756968Y-8266630D01*
X9577723Y-8246435D01*
X9577715Y-8246435D01*
X9398469Y-8266630D01*
X9398464Y-8266631D01*
X9228195Y-8326211D01*
X9075456Y-8422184D01*
X8947903Y-8549737D01*
X8851929Y-8702478D01*
X8792349Y-8872750D01*
X8784617Y-8941383D01*
X8757551Y-9005797D01*
X8699956Y-9045352D01*
X8661397Y-9051500D01*
X3539749Y-9051500D01*
X3472710Y-9031815D01*
X3459217Y-9021790D01*
X3310761Y-8894996D01*
X3297003Y-8881238D01*
X3162756Y-8724055D01*
X3134185Y-8660293D01*
X3140864Y-8600189D01*
X3143793Y-8592334D01*
X3143796Y-8592331D01*
X3194091Y-8457483D01*
X3200500Y-8397873D01*
X3200499Y-6922265D01*
X3202306Y-6906234D01*
X3201783Y-6906176D01*
X3222759Y-6720002D01*
X3222759Y-6719995D01*
X3204550Y-6558383D01*
X3216605Y-6489561D01*
X3263954Y-6438182D01*
X3327770Y-6420500D01*
X3506794Y-6420500D01*
X3573833Y-6440185D01*
X3604500Y-6468149D01*
X3687849Y-6574817D01*
X3687854Y-6574821D01*
X3807804Y-6678163D01*
X3807811Y-6678169D01*
X3945623Y-6756126D01*
X3945629Y-6756129D01*
X4096009Y-6805706D01*
X4253172Y-6824993D01*
X4259241Y-6824541D01*
X4272809Y-6825116D01*
X4272830Y-6824397D01*
X4280950Y-6824622D01*
X4280959Y-6824624D01*
X4337531Y-6818770D01*
X4341060Y-6818455D01*
X4397835Y-6814234D01*
X4397835Y-6814233D01*
X4405943Y-6813631D01*
X4406203Y-6817135D01*
X4459676Y-6821350D01*
X4515304Y-6863626D01*
X4539245Y-6929266D01*
X4539500Y-6937214D01*
X4539500Y-7298541D01*
X4539500Y-7298543D01*
X4539499Y-7298543D01*
X4577947Y-7491829D01*
X4577950Y-7491839D01*
X4653364Y-7673907D01*
X4653371Y-7673920D01*
X4762860Y-7837781D01*
X4762863Y-7837785D01*
X4902214Y-7977136D01*
X4902218Y-7977139D01*
X5066079Y-8086628D01*
X5066092Y-8086635D01*
X5248160Y-8162049D01*
X5248165Y-8162051D01*
X5248169Y-8162051D01*
X5248170Y-8162052D01*
X5441456Y-8200500D01*
X5441459Y-8200500D01*
X5638543Y-8200500D01*
X5768582Y-8174632D01*
X5831835Y-8162051D01*
X6013914Y-8086632D01*
X6177782Y-7977139D01*
X6317139Y-7837782D01*
X6426632Y-7673914D01*
X6502051Y-7491835D01*
X6540500Y-7298541D01*
X6540500Y-6201459D01*
X6540500Y-6201456D01*
X6502052Y-6008170D01*
X6502051Y-6008169D01*
X6502051Y-6008165D01*
X6438239Y-5854108D01*
X6426635Y-5826092D01*
X6426628Y-5826079D01*
X6317139Y-5662218D01*
X6317136Y-5662214D01*
X6177785Y-5522863D01*
X6177781Y-5522860D01*
X6013920Y-5413371D01*
X6013907Y-5413364D01*
X5831839Y-5337950D01*
X5831829Y-5337947D01*
X5638543Y-5299500D01*
X5638541Y-5299500D01*
X5441459Y-5299500D01*
X5441454Y-5299500D01*
X5268691Y-5333865D01*
X5199100Y-5327638D01*
X5143922Y-5284775D01*
X5120678Y-5218885D01*
X5120500Y-5212248D01*
X5120500Y-4512261D01*
X5140185Y-4445222D01*
X5192989Y-4399467D01*
X5262147Y-4389523D01*
X5268670Y-4390640D01*
X5356822Y-4408174D01*
X5443919Y-4425500D01*
X5443922Y-4425500D01*
X5636080Y-4425500D01*
X5636081Y-4425499D01*
X5824543Y-4388012D01*
X6002073Y-4314477D01*
X6161845Y-4207720D01*
X6297720Y-4071845D01*
X6404477Y-3912073D01*
X6478012Y-3734543D01*
X6515500Y-3546078D01*
X6515500Y-2153922D01*
X6515500Y-2153919D01*
X6515499Y-2153917D01*
X6478013Y-1965464D01*
X6478012Y-1965457D01*
X6404477Y-1787927D01*
X6297720Y-1628155D01*
X6297717Y-1628151D01*
X6161848Y-1492282D01*
X6161844Y-1492279D01*
X6002070Y-1385521D01*
X6002068Y-1385520D01*
X5824547Y-1311989D01*
X5824535Y-1311986D01*
X5636081Y-1274500D01*
X5636078Y-1274500D01*
X5565705Y-1274500D01*
X5498666Y-1254815D01*
X5452911Y-1202011D01*
X5442967Y-1132853D01*
X5471992Y-1069297D01*
X5478009Y-1062833D01*
X5569083Y-971759D01*
X5580266Y-961852D01*
X5837781Y-760102D01*
X5850077Y-751615D01*
X6130032Y-582376D01*
X6143271Y-575427D01*
X6207637Y-546459D01*
X6285484Y-511424D01*
X6336374Y-500500D01*
X9712387Y-500500D01*
X9756824Y-508736D01*
G37*
G04 #@! TD.AperFunction*
G04 #@! TA.AperFunction,Conductor*
G36*
X670262Y-18562624D02*
G01*
X687719Y-18565126D01*
X962489Y-18624707D01*
X979417Y-18629661D01*
X1242958Y-18727624D01*
X1259011Y-18734930D01*
X1505981Y-18869288D01*
X1520826Y-18878790D01*
X1746259Y-19046845D01*
X1759596Y-19058351D01*
X1958893Y-19256678D01*
X1970478Y-19269977D01*
X2142278Y-19498101D01*
X2147333Y-19505334D01*
X3674675Y-21865770D01*
X3677778Y-21870828D01*
X3865599Y-22194016D01*
X3871063Y-22204547D01*
X4025906Y-22541526D01*
X4030338Y-22552531D01*
X4152262Y-22902751D01*
X4155623Y-22914132D01*
X4163831Y-22947778D01*
X4160596Y-23017573D01*
X4157946Y-23024258D01*
X4108686Y-23182338D01*
X4108685Y-23182341D01*
X4108685Y-23182343D01*
X4102500Y-23250406D01*
X4102500Y-25009594D01*
X4108685Y-25077657D01*
X4108686Y-25077662D01*
X4108687Y-25077664D01*
X4157485Y-25234263D01*
X4157487Y-25234267D01*
X4157488Y-25234270D01*
X4184617Y-25279147D01*
X4202500Y-25343296D01*
X4202500Y-25354028D01*
X4195542Y-25394981D01*
X4167633Y-25474741D01*
X4167630Y-25474754D01*
X4165589Y-25492863D01*
X4158552Y-25522305D01*
X4148948Y-25548055D01*
X4141598Y-25564149D01*
X4019839Y-25787135D01*
X4010274Y-25802019D01*
X3907578Y-25939204D01*
X3851644Y-25981075D01*
X3835921Y-25985780D01*
X3833955Y-25986228D01*
X3663678Y-26045810D01*
X3510937Y-26141784D01*
X3383384Y-26269337D01*
X3287410Y-26422077D01*
X3284832Y-26427433D01*
X3238010Y-26479293D01*
X3232540Y-26482464D01*
X3212154Y-26493596D01*
X3196058Y-26500947D01*
X2958005Y-26589736D01*
X2941030Y-26594720D01*
X2692777Y-26648724D01*
X2675265Y-26651242D01*
X2417418Y-26669684D01*
X2408572Y-26670000D01*
X1781751Y-26670000D01*
X1774264Y-26669774D01*
X1479323Y-26651933D01*
X1464458Y-26650128D01*
X1177510Y-26597542D01*
X1162972Y-26593958D01*
X884471Y-26507174D01*
X870470Y-26501864D01*
X604442Y-26382134D01*
X591183Y-26375176D01*
X341534Y-26224259D01*
X329211Y-26215753D01*
X99569Y-26035840D01*
X88361Y-26025910D01*
X-117910Y-25819638D01*
X-127840Y-25808430D01*
X-307753Y-25578788D01*
X-316259Y-25566465D01*
X-467176Y-25316816D01*
X-474134Y-25303557D01*
X-593864Y-25037529D01*
X-599174Y-25023528D01*
X-685958Y-24745027D01*
X-689542Y-24730489D01*
X-742128Y-24443541D01*
X-743933Y-24428676D01*
X-761774Y-24133736D01*
X-762000Y-24126249D01*
X-762000Y-20516282D01*
X-742315Y-20449243D01*
X-725688Y-20428609D01*
X-471361Y-20174282D01*
X-471360Y-20174281D01*
X-471359Y-20174280D01*
X-422661Y-20101398D01*
X-407240Y-20082608D01*
X-318289Y-19993657D01*
X-226187Y-19844336D01*
X-226185Y-19844331D01*
X-225698Y-19842862D01*
X-171001Y-19677797D01*
X-171001Y-19677795D01*
X-171000Y-19677795D01*
X-160500Y-19575016D01*
X-160500Y-18758967D01*
X-140815Y-18691928D01*
X-94951Y-18649608D01*
X-67173Y-18634761D01*
X-44718Y-18625460D01*
X146323Y-18567507D01*
X170162Y-18562765D01*
X370532Y-18543030D01*
X391492Y-18542748D01*
X670262Y-18562624D01*
G37*
G04 #@! TD.AperFunction*
M02*
