G04 #@! TF.GenerationSoftware,KiCad,Pcbnew,8.0.8*
G04 #@! TF.CreationDate,2025-05-11T18:19:19+03:00*
G04 #@! TF.ProjectId,TP5410_eval_board,54503534-3130-45f6-9576-616c5f626f61,rev?*
G04 #@! TF.SameCoordinates,Original*
G04 #@! TF.FileFunction,Paste,Bot*
G04 #@! TF.FilePolarity,Positive*
%FSLAX46Y46*%
G04 Gerber Fmt 4.6, Leading zero omitted, Abs format (unit mm)*
G04 Created by KiCad (PCBNEW 8.0.8) date 2025-05-11 18:19:19*
%MOMM*%
%LPD*%
G01*
G04 APERTURE LIST*
G04 Aperture macros list*
%AMRoundRect*
0 Rectangle with rounded corners*
0 $1 Rounding radius*
0 $2 $3 $4 $5 $6 $7 $8 $9 X,Y pos of 4 corners*
0 Add a 4 corners polygon primitive as box body*
4,1,4,$2,$3,$4,$5,$6,$7,$8,$9,$2,$3,0*
0 Add four circle primitives for the rounded corners*
1,1,$1+$1,$2,$3*
1,1,$1+$1,$4,$5*
1,1,$1+$1,$6,$7*
1,1,$1+$1,$8,$9*
0 Add four rect primitives between the rounded corners*
20,1,$1+$1,$2,$3,$4,$5,0*
20,1,$1+$1,$4,$5,$6,$7,0*
20,1,$1+$1,$6,$7,$8,$9,0*
20,1,$1+$1,$8,$9,$2,$3,0*%
G04 Aperture macros list end*
%ADD10RoundRect,0.250000X-0.350000X0.275000X-0.350000X-0.275000X0.350000X-0.275000X0.350000X0.275000X0*%
%ADD11RoundRect,0.155000X-0.155000X0.212500X-0.155000X-0.212500X0.155000X-0.212500X0.155000X0.212500X0*%
%ADD12RoundRect,0.250000X0.300000X0.300000X-0.300000X0.300000X-0.300000X-0.300000X0.300000X-0.300000X0*%
%ADD13RoundRect,0.250000X-0.700000X0.362500X-0.700000X-0.362500X0.700000X-0.362500X0.700000X0.362500X0*%
%ADD14RoundRect,0.155000X0.212500X0.155000X-0.212500X0.155000X-0.212500X-0.155000X0.212500X-0.155000X0*%
%ADD15RoundRect,0.160000X-0.197500X-0.160000X0.197500X-0.160000X0.197500X0.160000X-0.197500X0.160000X0*%
%ADD16RoundRect,0.160000X0.197500X0.160000X-0.197500X0.160000X-0.197500X-0.160000X0.197500X-0.160000X0*%
%ADD17RoundRect,0.250000X1.000000X0.650000X-1.000000X0.650000X-1.000000X-0.650000X1.000000X-0.650000X0*%
%ADD18RoundRect,0.237500X0.300000X0.237500X-0.300000X0.237500X-0.300000X-0.237500X0.300000X-0.237500X0*%
%ADD19RoundRect,0.162500X0.617500X0.162500X-0.617500X0.162500X-0.617500X-0.162500X0.617500X-0.162500X0*%
%ADD20RoundRect,0.237500X-0.250000X-0.237500X0.250000X-0.237500X0.250000X0.237500X-0.250000X0.237500X0*%
%ADD21RoundRect,0.225000X-0.250000X0.225000X-0.250000X-0.225000X0.250000X-0.225000X0.250000X0.225000X0*%
%ADD22RoundRect,0.059000X-0.626000X0.236000X-0.626000X-0.236000X0.626000X-0.236000X0.626000X0.236000X0*%
G04 APERTURE END LIST*
D10*
X-7620000Y-3930000D03*
X-7620000Y-6230000D03*
D11*
X2413000Y-12767500D03*
X2413000Y-13902500D03*
D12*
X-5966000Y-10160000D03*
X-8766000Y-10160000D03*
D13*
X-3810000Y-9767500D03*
X-3810000Y-13092500D03*
D14*
X-6925500Y-11938000D03*
X-8060500Y-11938000D03*
D15*
X-1994500Y-11684000D03*
X-799500Y-11684000D03*
D16*
X8725500Y-9398000D03*
X7530500Y-9398000D03*
D17*
X-1683000Y-16002000D03*
X-5683000Y-16002000D03*
D14*
X8695500Y-10414000D03*
X7560500Y-10414000D03*
D18*
X-7011500Y-13208000D03*
X-8736500Y-13208000D03*
D19*
X8269500Y-11748000D03*
X8269500Y-12698000D03*
X8269500Y-13648000D03*
X5569500Y-13648000D03*
X5569500Y-12698000D03*
X5569500Y-11748000D03*
D20*
X7469500Y-8128000D03*
X9294500Y-8128000D03*
D21*
X762000Y-12687000D03*
X762000Y-14237000D03*
D14*
X-7814500Y-14478000D03*
X-8949500Y-14478000D03*
D22*
X3461000Y-9210000D03*
X3461000Y-10160000D03*
X3461000Y-11110000D03*
X1111000Y-11110000D03*
X1111000Y-9210000D03*
D11*
X3556000Y-12767500D03*
X3556000Y-13902500D03*
D15*
X-1994500Y-9398000D03*
X-799500Y-9398000D03*
M02*
