G04 #@! TF.GenerationSoftware,KiCad,Pcbnew,8.0.8*
G04 #@! TF.CreationDate,2025-05-11T18:19:19+03:00*
G04 #@! TF.ProjectId,TP5410_eval_board,54503534-3130-45f6-9576-616c5f626f61,rev?*
G04 #@! TF.SameCoordinates,Original*
G04 #@! TF.FileFunction,Soldermask,Bot*
G04 #@! TF.FilePolarity,Negative*
%FSLAX46Y46*%
G04 Gerber Fmt 4.6, Leading zero omitted, Abs format (unit mm)*
G04 Created by KiCad (PCBNEW 8.0.8) date 2025-05-11 18:19:19*
%MOMM*%
%LPD*%
G01*
G04 APERTURE LIST*
G04 Aperture macros list*
%AMRoundRect*
0 Rectangle with rounded corners*
0 $1 Rounding radius*
0 $2 $3 $4 $5 $6 $7 $8 $9 X,Y pos of 4 corners*
0 Add a 4 corners polygon primitive as box body*
4,1,4,$2,$3,$4,$5,$6,$7,$8,$9,$2,$3,0*
0 Add four circle primitives for the rounded corners*
1,1,$1+$1,$2,$3*
1,1,$1+$1,$4,$5*
1,1,$1+$1,$6,$7*
1,1,$1+$1,$8,$9*
0 Add four rect primitives between the rounded corners*
20,1,$1+$1,$2,$3,$4,$5,0*
20,1,$1+$1,$4,$5,$6,$7,0*
20,1,$1+$1,$6,$7,$8,$9,0*
20,1,$1+$1,$8,$9,$2,$3,0*%
G04 Aperture macros list end*
%ADD10C,0.010000*%
%ADD11C,3.000000*%
%ADD12R,1.500000X4.040000*%
%ADD13RoundRect,0.375000X-0.375000X0.625000X-0.375000X-0.625000X0.375000X-0.625000X0.375000X0.625000X0*%
%ADD14RoundRect,0.375000X0.375000X-0.625000X0.375000X0.625000X-0.375000X0.625000X-0.375000X-0.625000X0*%
%ADD15RoundRect,0.250000X-0.350000X0.275000X-0.350000X-0.275000X0.350000X-0.275000X0.350000X0.275000X0*%
%ADD16RoundRect,0.155000X-0.155000X0.212500X-0.155000X-0.212500X0.155000X-0.212500X0.155000X0.212500X0*%
%ADD17RoundRect,0.250000X0.300000X0.300000X-0.300000X0.300000X-0.300000X-0.300000X0.300000X-0.300000X0*%
%ADD18RoundRect,0.250000X-0.700000X0.362500X-0.700000X-0.362500X0.700000X-0.362500X0.700000X0.362500X0*%
%ADD19RoundRect,0.155000X0.212500X0.155000X-0.212500X0.155000X-0.212500X-0.155000X0.212500X-0.155000X0*%
%ADD20RoundRect,0.160000X-0.197500X-0.160000X0.197500X-0.160000X0.197500X0.160000X-0.197500X0.160000X0*%
%ADD21RoundRect,0.160000X0.197500X0.160000X-0.197500X0.160000X-0.197500X-0.160000X0.197500X-0.160000X0*%
%ADD22RoundRect,0.250000X1.000000X0.650000X-1.000000X0.650000X-1.000000X-0.650000X1.000000X-0.650000X0*%
%ADD23RoundRect,0.237500X0.300000X0.237500X-0.300000X0.237500X-0.300000X-0.237500X0.300000X-0.237500X0*%
%ADD24RoundRect,0.162500X0.617500X0.162500X-0.617500X0.162500X-0.617500X-0.162500X0.617500X-0.162500X0*%
%ADD25RoundRect,0.237500X-0.250000X-0.237500X0.250000X-0.237500X0.250000X0.237500X-0.250000X0.237500X0*%
%ADD26RoundRect,0.225000X-0.250000X0.225000X-0.250000X-0.225000X0.250000X-0.225000X0.250000X0.225000X0*%
%ADD27RoundRect,0.079400X-0.707600X0.317600X-0.707600X-0.317600X0.707600X-0.317600X0.707600X0.317600X0*%
G04 APERTURE END LIST*
D10*
X-7615443Y-21039862D02*
X-7023100Y-21645424D01*
X-7023100Y-23952200D01*
X-10369550Y-23951978D01*
X-10962882Y-23345664D01*
X-11556213Y-22739350D01*
X-11556238Y-22667316D01*
X-11328400Y-22667316D01*
X-10256506Y-23723600D01*
X-7251700Y-23723600D01*
X-7251700Y-21723462D01*
X-7781869Y-21193181D01*
X-8312037Y-20662900D01*
X-11328400Y-20662900D01*
X-11328400Y-22667316D01*
X-11556238Y-22667316D01*
X-11556607Y-21586825D01*
X-11556922Y-20662900D01*
X-11557000Y-20434300D01*
X-8207785Y-20434300D01*
X-7615443Y-21039862D01*
G36*
X-7615443Y-21039862D02*
G01*
X-7023100Y-21645424D01*
X-7023100Y-23952200D01*
X-10369550Y-23951978D01*
X-10962882Y-23345664D01*
X-11556213Y-22739350D01*
X-11556238Y-22667316D01*
X-11328400Y-22667316D01*
X-10256506Y-23723600D01*
X-7251700Y-23723600D01*
X-7251700Y-21723462D01*
X-7781869Y-21193181D01*
X-8312037Y-20662900D01*
X-11328400Y-20662900D01*
X-11328400Y-22667316D01*
X-11556238Y-22667316D01*
X-11556607Y-21586825D01*
X-11556922Y-20662900D01*
X-11557000Y-20434300D01*
X-8207785Y-20434300D01*
X-7615443Y-21039862D01*
G37*
X-9257509Y-20948157D02*
X-9237685Y-20981861D01*
X-9219258Y-21022580D01*
X-9196094Y-21099891D01*
X-9188019Y-21184971D01*
X-9194934Y-21268940D01*
X-9216741Y-21342921D01*
X-9222943Y-21355855D01*
X-9252850Y-21403098D01*
X-9290510Y-21449367D01*
X-9308151Y-21466980D01*
X-9359974Y-21513800D01*
X-8832169Y-21513800D01*
X-8746077Y-21600557D01*
X-8706610Y-21640993D01*
X-8682996Y-21667795D01*
X-8672792Y-21684944D01*
X-8673552Y-21696423D01*
X-8681754Y-21705332D01*
X-8698381Y-21725904D01*
X-8720073Y-21761606D01*
X-8739602Y-21799550D01*
X-8767897Y-21883289D01*
X-8776915Y-21969766D01*
X-8767235Y-22053450D01*
X-8739438Y-22128808D01*
X-8699187Y-22185170D01*
X-8663614Y-22213294D01*
X-8616952Y-22238974D01*
X-8569790Y-22257121D01*
X-8537575Y-22262821D01*
X-8509000Y-22263100D01*
X-8509000Y-21926771D01*
X-8267808Y-21926771D01*
X-8267700Y-21996400D01*
X-8267700Y-22263100D01*
X-8234249Y-22263100D01*
X-8199666Y-22259378D01*
X-8158123Y-22250233D01*
X-8151603Y-22248360D01*
X-8096521Y-22222350D01*
X-8042644Y-22181095D01*
X-7999315Y-22132511D01*
X-7983597Y-22106024D01*
X-7969611Y-22058952D01*
X-7963737Y-22000746D01*
X-7966086Y-21942095D01*
X-7976767Y-21893686D01*
X-7981302Y-21883354D01*
X-8019631Y-21832152D01*
X-8075208Y-21787104D01*
X-8139883Y-21754482D01*
X-8155527Y-21749295D01*
X-8192241Y-21738029D01*
X-8219967Y-21730798D01*
X-8239961Y-21730361D01*
X-8253475Y-21739482D01*
X-8261763Y-21760922D01*
X-8266079Y-21797442D01*
X-8267676Y-21851804D01*
X-8267808Y-21926771D01*
X-8509000Y-21926771D01*
X-8509000Y-21533717D01*
X-8643090Y-21666141D01*
X-8731391Y-21577158D01*
X-8819691Y-21488176D01*
X-8734321Y-21402805D01*
X-8648951Y-21317435D01*
X-8569451Y-21395303D01*
X-8489950Y-21473171D01*
X-8350250Y-21482172D01*
X-8230262Y-21494503D01*
X-8121350Y-21514791D01*
X-8028620Y-21541912D01*
X-7975366Y-21564719D01*
X-7887617Y-21623033D01*
X-7817438Y-21698096D01*
X-7766066Y-21787206D01*
X-7734740Y-21887659D01*
X-7724699Y-21996749D01*
X-7733552Y-22092702D01*
X-7764004Y-22203800D01*
X-7813732Y-22298388D01*
X-7882633Y-22376374D01*
X-7970601Y-22437667D01*
X-8077532Y-22482173D01*
X-8203322Y-22509802D01*
X-8207375Y-22510367D01*
X-8267700Y-22518656D01*
X-8267700Y-22867128D01*
X-8267537Y-22971811D01*
X-8266953Y-23053736D01*
X-8265808Y-23115545D01*
X-8263960Y-23159878D01*
X-8261268Y-23189376D01*
X-8257591Y-23206681D01*
X-8252789Y-23214432D01*
X-8249092Y-23215600D01*
X-8226256Y-23206573D01*
X-8194875Y-23183638D01*
X-8161900Y-23153011D01*
X-8134283Y-23120907D01*
X-8122699Y-23102589D01*
X-8099553Y-23030142D01*
X-8097942Y-22952771D01*
X-8117290Y-22878050D01*
X-8143399Y-22830810D01*
X-8159175Y-22806119D01*
X-8164675Y-22792172D01*
X-8164311Y-22791486D01*
X-8152756Y-22782939D01*
X-8125350Y-22762813D01*
X-8086744Y-22734518D01*
X-8059197Y-22714352D01*
X-8012932Y-22680927D01*
X-7982524Y-22660898D01*
X-7963519Y-22652404D01*
X-7951467Y-22653585D01*
X-7941917Y-22662580D01*
X-7940292Y-22664660D01*
X-7896161Y-22742525D01*
X-7872742Y-22834515D01*
X-7868544Y-22898100D01*
X-7875467Y-22986466D01*
X-7899259Y-23061078D01*
X-7942839Y-23129410D01*
X-7971857Y-23162397D01*
X-8022468Y-23215600D01*
X-7734300Y-23215600D01*
X-7734300Y-22364700D01*
X-7493000Y-22364700D01*
X-7493000Y-23469600D01*
X-9232900Y-23469600D01*
X-9232900Y-23228300D01*
X-10452100Y-23228300D01*
X-10452100Y-22974300D01*
X-10048875Y-22974229D01*
X-9923289Y-22973735D01*
X-9815196Y-22972337D01*
X-9726282Y-22970085D01*
X-9658233Y-22967032D01*
X-9612734Y-22963231D01*
X-9595446Y-22960220D01*
X-9534591Y-22930909D01*
X-9486443Y-22882889D01*
X-9453720Y-22820803D01*
X-9439140Y-22749294D01*
X-9441124Y-22696557D01*
X-9462055Y-22623912D01*
X-9503331Y-22566274D01*
X-9552948Y-22529316D01*
X-9568184Y-22520833D01*
X-9583021Y-22514017D01*
X-9600330Y-22508656D01*
X-9622979Y-22504539D01*
X-9653840Y-22501452D01*
X-9695782Y-22499186D01*
X-9751676Y-22497527D01*
X-9824393Y-22496265D01*
X-9916801Y-22495186D01*
X-10030276Y-22494095D01*
X-10453001Y-22490140D01*
X-10449376Y-22367095D01*
X-10447176Y-22292426D01*
X-9426671Y-22292426D01*
X-9390111Y-22310972D01*
X-9320639Y-22359758D01*
X-9265589Y-22425672D01*
X-9226406Y-22504009D01*
X-9204533Y-22590063D01*
X-9201414Y-22679128D01*
X-9218494Y-22766498D01*
X-9236594Y-22811258D01*
X-9265036Y-22859432D01*
X-9300206Y-22905758D01*
X-9322215Y-22928713D01*
X-9372674Y-22974300D01*
X-9220200Y-22974300D01*
X-9220200Y-23215600D01*
X-8509000Y-23215600D01*
X-8509000Y-22519707D01*
X-8594725Y-22504964D01*
X-8710304Y-22474263D01*
X-8808468Y-22425114D01*
X-8888874Y-22357880D01*
X-8951173Y-22272924D01*
X-8995020Y-22170610D01*
X-9018974Y-22059900D01*
X-9025880Y-21995035D01*
X-9026443Y-21942561D01*
X-9020403Y-21890206D01*
X-9014753Y-21859875D01*
X-8996179Y-21767800D01*
X-9221757Y-21767800D01*
X-9211454Y-21828125D01*
X-9204105Y-21897653D01*
X-9204337Y-21968047D01*
X-9211758Y-22029969D01*
X-9221363Y-22064144D01*
X-9260303Y-22136052D01*
X-9315294Y-22203955D01*
X-9369139Y-22251110D01*
X-9426671Y-22292426D01*
X-10447176Y-22292426D01*
X-10445750Y-22244050D01*
X-10013950Y-22237700D01*
X-9896041Y-22235850D01*
X-9800791Y-22234018D01*
X-9725464Y-22232035D01*
X-9667320Y-22229731D01*
X-9623621Y-22226938D01*
X-9591629Y-22223487D01*
X-9568604Y-22219210D01*
X-9551808Y-22213937D01*
X-9540314Y-22208508D01*
X-9490412Y-22167493D01*
X-9456904Y-22110219D01*
X-9441273Y-22040991D01*
X-9445004Y-21964111D01*
X-9449155Y-21944122D01*
X-9476044Y-21875917D01*
X-9520350Y-21824743D01*
X-9582863Y-21790109D01*
X-9664373Y-21771524D01*
X-9732849Y-21767800D01*
X-9778550Y-21768739D01*
X-9804236Y-21772497D01*
X-9815255Y-21780484D01*
X-9817111Y-21790025D01*
X-9824352Y-21822802D01*
X-9843395Y-21868154D01*
X-9870256Y-21918758D01*
X-9900947Y-21967291D01*
X-9931482Y-22006431D01*
X-9939393Y-22014645D01*
X-9987874Y-22056975D01*
X-10038478Y-22089802D01*
X-10095164Y-22114184D01*
X-10161885Y-22131181D01*
X-10242599Y-22141852D01*
X-10341261Y-22147255D01*
X-10439400Y-22148498D01*
X-10540263Y-22147563D01*
X-10620649Y-22144209D01*
X-10685431Y-22137613D01*
X-10739483Y-22126950D01*
X-10787679Y-22111397D01*
X-10834891Y-22090130D01*
X-10858679Y-22077627D01*
X-10939102Y-22020664D01*
X-11000848Y-21947279D01*
X-11044125Y-21857054D01*
X-11069140Y-21749568D01*
X-11076215Y-21639269D01*
X-11076209Y-21639190D01*
X-10625829Y-21639190D01*
X-10617556Y-21649854D01*
X-10593253Y-21673887D01*
X-10556226Y-21708187D01*
X-10509781Y-21749653D01*
X-10486129Y-21770310D01*
X-10429766Y-21818686D01*
X-10388230Y-21852560D01*
X-10357529Y-21874488D01*
X-10333669Y-21887026D01*
X-10312658Y-21892730D01*
X-10292669Y-21894135D01*
X-10243004Y-21887161D01*
X-10187020Y-21867551D01*
X-10176258Y-21862444D01*
X-10136103Y-21838747D01*
X-10103357Y-21812976D01*
X-10090815Y-21798781D01*
X-10082468Y-21786587D01*
X-10077927Y-21777233D01*
X-10080160Y-21769161D01*
X-10092137Y-21760817D01*
X-10116827Y-21750644D01*
X-10157199Y-21737087D01*
X-10216224Y-21718590D01*
X-10283825Y-21697651D01*
X-10342153Y-21678917D01*
X-10390515Y-21662200D01*
X-10424354Y-21649163D01*
X-10439114Y-21641470D01*
X-10439400Y-21640865D01*
X-10427960Y-21634271D01*
X-10396502Y-21621874D01*
X-10349320Y-21605230D01*
X-10290708Y-21585891D01*
X-10264775Y-21577671D01*
X-10201819Y-21557784D01*
X-10147554Y-21540342D01*
X-10106584Y-21526847D01*
X-10083515Y-21518802D01*
X-10080396Y-21517484D01*
X-10080397Y-21504829D01*
X-10093014Y-21480767D01*
X-10096359Y-21475898D01*
X-10134650Y-21439357D01*
X-10189012Y-21409051D01*
X-10250174Y-21389509D01*
X-10282387Y-21385050D01*
X-10303667Y-21384594D01*
X-10322875Y-21387941D01*
X-10343960Y-21397526D01*
X-10370872Y-21415784D01*
X-10407560Y-21445151D01*
X-10457973Y-21488060D01*
X-10479237Y-21506423D01*
X-10529757Y-21550493D01*
X-10572868Y-21588820D01*
X-10605157Y-21618314D01*
X-10623214Y-21635884D01*
X-10625829Y-21639190D01*
X-11076209Y-21639190D01*
X-11066548Y-21516354D01*
X-11037676Y-21409670D01*
X-10989791Y-21319509D01*
X-10923088Y-21246166D01*
X-10837758Y-21189935D01*
X-10760496Y-21158801D01*
X-10693193Y-21143149D01*
X-10607787Y-21131752D01*
X-10511284Y-21125009D01*
X-10410687Y-21123323D01*
X-10312999Y-21127093D01*
X-10270798Y-21130788D01*
X-10147762Y-21153240D01*
X-10043039Y-21192407D01*
X-9957074Y-21247967D01*
X-9890310Y-21319594D01*
X-9843191Y-21406964D01*
X-9827567Y-21454831D01*
X-9811107Y-21516513D01*
X-9688790Y-21511600D01*
X-9629991Y-21508561D01*
X-9589747Y-21504008D01*
X-9561214Y-21496312D01*
X-9537548Y-21483843D01*
X-9520324Y-21471487D01*
X-9487407Y-21441710D01*
X-9461592Y-21410365D01*
X-9456639Y-21402018D01*
X-9433416Y-21332934D01*
X-9429059Y-21259164D01*
X-9443042Y-21188449D01*
X-9474837Y-21128526D01*
X-9475261Y-21127986D01*
X-9492107Y-21101908D01*
X-9497679Y-21083475D01*
X-9497443Y-21082516D01*
X-9486045Y-21070262D01*
X-9458730Y-21046886D01*
X-9420111Y-21016222D01*
X-9391685Y-20994612D01*
X-9340304Y-20957366D01*
X-9304016Y-20936688D01*
X-9278019Y-20933359D01*
X-9257509Y-20948157D01*
G36*
X-9257509Y-20948157D02*
G01*
X-9237685Y-20981861D01*
X-9219258Y-21022580D01*
X-9196094Y-21099891D01*
X-9188019Y-21184971D01*
X-9194934Y-21268940D01*
X-9216741Y-21342921D01*
X-9222943Y-21355855D01*
X-9252850Y-21403098D01*
X-9290510Y-21449367D01*
X-9308151Y-21466980D01*
X-9359974Y-21513800D01*
X-8832169Y-21513800D01*
X-8746077Y-21600557D01*
X-8706610Y-21640993D01*
X-8682996Y-21667795D01*
X-8672792Y-21684944D01*
X-8673552Y-21696423D01*
X-8681754Y-21705332D01*
X-8698381Y-21725904D01*
X-8720073Y-21761606D01*
X-8739602Y-21799550D01*
X-8767897Y-21883289D01*
X-8776915Y-21969766D01*
X-8767235Y-22053450D01*
X-8739438Y-22128808D01*
X-8699187Y-22185170D01*
X-8663614Y-22213294D01*
X-8616952Y-22238974D01*
X-8569790Y-22257121D01*
X-8537575Y-22262821D01*
X-8509000Y-22263100D01*
X-8509000Y-21926771D01*
X-8267808Y-21926771D01*
X-8267700Y-21996400D01*
X-8267700Y-22263100D01*
X-8234249Y-22263100D01*
X-8199666Y-22259378D01*
X-8158123Y-22250233D01*
X-8151603Y-22248360D01*
X-8096521Y-22222350D01*
X-8042644Y-22181095D01*
X-7999315Y-22132511D01*
X-7983597Y-22106024D01*
X-7969611Y-22058952D01*
X-7963737Y-22000746D01*
X-7966086Y-21942095D01*
X-7976767Y-21893686D01*
X-7981302Y-21883354D01*
X-8019631Y-21832152D01*
X-8075208Y-21787104D01*
X-8139883Y-21754482D01*
X-8155527Y-21749295D01*
X-8192241Y-21738029D01*
X-8219967Y-21730798D01*
X-8239961Y-21730361D01*
X-8253475Y-21739482D01*
X-8261763Y-21760922D01*
X-8266079Y-21797442D01*
X-8267676Y-21851804D01*
X-8267808Y-21926771D01*
X-8509000Y-21926771D01*
X-8509000Y-21533717D01*
X-8643090Y-21666141D01*
X-8731391Y-21577158D01*
X-8819691Y-21488176D01*
X-8734321Y-21402805D01*
X-8648951Y-21317435D01*
X-8569451Y-21395303D01*
X-8489950Y-21473171D01*
X-8350250Y-21482172D01*
X-8230262Y-21494503D01*
X-8121350Y-21514791D01*
X-8028620Y-21541912D01*
X-7975366Y-21564719D01*
X-7887617Y-21623033D01*
X-7817438Y-21698096D01*
X-7766066Y-21787206D01*
X-7734740Y-21887659D01*
X-7724699Y-21996749D01*
X-7733552Y-22092702D01*
X-7764004Y-22203800D01*
X-7813732Y-22298388D01*
X-7882633Y-22376374D01*
X-7970601Y-22437667D01*
X-8077532Y-22482173D01*
X-8203322Y-22509802D01*
X-8207375Y-22510367D01*
X-8267700Y-22518656D01*
X-8267700Y-22867128D01*
X-8267537Y-22971811D01*
X-8266953Y-23053736D01*
X-8265808Y-23115545D01*
X-8263960Y-23159878D01*
X-8261268Y-23189376D01*
X-8257591Y-23206681D01*
X-8252789Y-23214432D01*
X-8249092Y-23215600D01*
X-8226256Y-23206573D01*
X-8194875Y-23183638D01*
X-8161900Y-23153011D01*
X-8134283Y-23120907D01*
X-8122699Y-23102589D01*
X-8099553Y-23030142D01*
X-8097942Y-22952771D01*
X-8117290Y-22878050D01*
X-8143399Y-22830810D01*
X-8159175Y-22806119D01*
X-8164675Y-22792172D01*
X-8164311Y-22791486D01*
X-8152756Y-22782939D01*
X-8125350Y-22762813D01*
X-8086744Y-22734518D01*
X-8059197Y-22714352D01*
X-8012932Y-22680927D01*
X-7982524Y-22660898D01*
X-7963519Y-22652404D01*
X-7951467Y-22653585D01*
X-7941917Y-22662580D01*
X-7940292Y-22664660D01*
X-7896161Y-22742525D01*
X-7872742Y-22834515D01*
X-7868544Y-22898100D01*
X-7875467Y-22986466D01*
X-7899259Y-23061078D01*
X-7942839Y-23129410D01*
X-7971857Y-23162397D01*
X-8022468Y-23215600D01*
X-7734300Y-23215600D01*
X-7734300Y-22364700D01*
X-7493000Y-22364700D01*
X-7493000Y-23469600D01*
X-9232900Y-23469600D01*
X-9232900Y-23228300D01*
X-10452100Y-23228300D01*
X-10452100Y-22974300D01*
X-10048875Y-22974229D01*
X-9923289Y-22973735D01*
X-9815196Y-22972337D01*
X-9726282Y-22970085D01*
X-9658233Y-22967032D01*
X-9612734Y-22963231D01*
X-9595446Y-22960220D01*
X-9534591Y-22930909D01*
X-9486443Y-22882889D01*
X-9453720Y-22820803D01*
X-9439140Y-22749294D01*
X-9441124Y-22696557D01*
X-9462055Y-22623912D01*
X-9503331Y-22566274D01*
X-9552948Y-22529316D01*
X-9568184Y-22520833D01*
X-9583021Y-22514017D01*
X-9600330Y-22508656D01*
X-9622979Y-22504539D01*
X-9653840Y-22501452D01*
X-9695782Y-22499186D01*
X-9751676Y-22497527D01*
X-9824393Y-22496265D01*
X-9916801Y-22495186D01*
X-10030276Y-22494095D01*
X-10453001Y-22490140D01*
X-10449376Y-22367095D01*
X-10447176Y-22292426D01*
X-9426671Y-22292426D01*
X-9390111Y-22310972D01*
X-9320639Y-22359758D01*
X-9265589Y-22425672D01*
X-9226406Y-22504009D01*
X-9204533Y-22590063D01*
X-9201414Y-22679128D01*
X-9218494Y-22766498D01*
X-9236594Y-22811258D01*
X-9265036Y-22859432D01*
X-9300206Y-22905758D01*
X-9322215Y-22928713D01*
X-9372674Y-22974300D01*
X-9220200Y-22974300D01*
X-9220200Y-23215600D01*
X-8509000Y-23215600D01*
X-8509000Y-22519707D01*
X-8594725Y-22504964D01*
X-8710304Y-22474263D01*
X-8808468Y-22425114D01*
X-8888874Y-22357880D01*
X-8951173Y-22272924D01*
X-8995020Y-22170610D01*
X-9018974Y-22059900D01*
X-9025880Y-21995035D01*
X-9026443Y-21942561D01*
X-9020403Y-21890206D01*
X-9014753Y-21859875D01*
X-8996179Y-21767800D01*
X-9221757Y-21767800D01*
X-9211454Y-21828125D01*
X-9204105Y-21897653D01*
X-9204337Y-21968047D01*
X-9211758Y-22029969D01*
X-9221363Y-22064144D01*
X-9260303Y-22136052D01*
X-9315294Y-22203955D01*
X-9369139Y-22251110D01*
X-9426671Y-22292426D01*
X-10447176Y-22292426D01*
X-10445750Y-22244050D01*
X-10013950Y-22237700D01*
X-9896041Y-22235850D01*
X-9800791Y-22234018D01*
X-9725464Y-22232035D01*
X-9667320Y-22229731D01*
X-9623621Y-22226938D01*
X-9591629Y-22223487D01*
X-9568604Y-22219210D01*
X-9551808Y-22213937D01*
X-9540314Y-22208508D01*
X-9490412Y-22167493D01*
X-9456904Y-22110219D01*
X-9441273Y-22040991D01*
X-9445004Y-21964111D01*
X-9449155Y-21944122D01*
X-9476044Y-21875917D01*
X-9520350Y-21824743D01*
X-9582863Y-21790109D01*
X-9664373Y-21771524D01*
X-9732849Y-21767800D01*
X-9778550Y-21768739D01*
X-9804236Y-21772497D01*
X-9815255Y-21780484D01*
X-9817111Y-21790025D01*
X-9824352Y-21822802D01*
X-9843395Y-21868154D01*
X-9870256Y-21918758D01*
X-9900947Y-21967291D01*
X-9931482Y-22006431D01*
X-9939393Y-22014645D01*
X-9987874Y-22056975D01*
X-10038478Y-22089802D01*
X-10095164Y-22114184D01*
X-10161885Y-22131181D01*
X-10242599Y-22141852D01*
X-10341261Y-22147255D01*
X-10439400Y-22148498D01*
X-10540263Y-22147563D01*
X-10620649Y-22144209D01*
X-10685431Y-22137613D01*
X-10739483Y-22126950D01*
X-10787679Y-22111397D01*
X-10834891Y-22090130D01*
X-10858679Y-22077627D01*
X-10939102Y-22020664D01*
X-11000848Y-21947279D01*
X-11044125Y-21857054D01*
X-11069140Y-21749568D01*
X-11076215Y-21639269D01*
X-11076209Y-21639190D01*
X-10625829Y-21639190D01*
X-10617556Y-21649854D01*
X-10593253Y-21673887D01*
X-10556226Y-21708187D01*
X-10509781Y-21749653D01*
X-10486129Y-21770310D01*
X-10429766Y-21818686D01*
X-10388230Y-21852560D01*
X-10357529Y-21874488D01*
X-10333669Y-21887026D01*
X-10312658Y-21892730D01*
X-10292669Y-21894135D01*
X-10243004Y-21887161D01*
X-10187020Y-21867551D01*
X-10176258Y-21862444D01*
X-10136103Y-21838747D01*
X-10103357Y-21812976D01*
X-10090815Y-21798781D01*
X-10082468Y-21786587D01*
X-10077927Y-21777233D01*
X-10080160Y-21769161D01*
X-10092137Y-21760817D01*
X-10116827Y-21750644D01*
X-10157199Y-21737087D01*
X-10216224Y-21718590D01*
X-10283825Y-21697651D01*
X-10342153Y-21678917D01*
X-10390515Y-21662200D01*
X-10424354Y-21649163D01*
X-10439114Y-21641470D01*
X-10439400Y-21640865D01*
X-10427960Y-21634271D01*
X-10396502Y-21621874D01*
X-10349320Y-21605230D01*
X-10290708Y-21585891D01*
X-10264775Y-21577671D01*
X-10201819Y-21557784D01*
X-10147554Y-21540342D01*
X-10106584Y-21526847D01*
X-10083515Y-21518802D01*
X-10080396Y-21517484D01*
X-10080397Y-21504829D01*
X-10093014Y-21480767D01*
X-10096359Y-21475898D01*
X-10134650Y-21439357D01*
X-10189012Y-21409051D01*
X-10250174Y-21389509D01*
X-10282387Y-21385050D01*
X-10303667Y-21384594D01*
X-10322875Y-21387941D01*
X-10343960Y-21397526D01*
X-10370872Y-21415784D01*
X-10407560Y-21445151D01*
X-10457973Y-21488060D01*
X-10479237Y-21506423D01*
X-10529757Y-21550493D01*
X-10572868Y-21588820D01*
X-10605157Y-21618314D01*
X-10623214Y-21635884D01*
X-10625829Y-21639190D01*
X-11076209Y-21639190D01*
X-11066548Y-21516354D01*
X-11037676Y-21409670D01*
X-10989791Y-21319509D01*
X-10923088Y-21246166D01*
X-10837758Y-21189935D01*
X-10760496Y-21158801D01*
X-10693193Y-21143149D01*
X-10607787Y-21131752D01*
X-10511284Y-21125009D01*
X-10410687Y-21123323D01*
X-10312999Y-21127093D01*
X-10270798Y-21130788D01*
X-10147762Y-21153240D01*
X-10043039Y-21192407D01*
X-9957074Y-21247967D01*
X-9890310Y-21319594D01*
X-9843191Y-21406964D01*
X-9827567Y-21454831D01*
X-9811107Y-21516513D01*
X-9688790Y-21511600D01*
X-9629991Y-21508561D01*
X-9589747Y-21504008D01*
X-9561214Y-21496312D01*
X-9537548Y-21483843D01*
X-9520324Y-21471487D01*
X-9487407Y-21441710D01*
X-9461592Y-21410365D01*
X-9456639Y-21402018D01*
X-9433416Y-21332934D01*
X-9429059Y-21259164D01*
X-9443042Y-21188449D01*
X-9474837Y-21128526D01*
X-9475261Y-21127986D01*
X-9492107Y-21101908D01*
X-9497679Y-21083475D01*
X-9497443Y-21082516D01*
X-9486045Y-21070262D01*
X-9458730Y-21046886D01*
X-9420111Y-21016222D01*
X-9391685Y-20994612D01*
X-9340304Y-20957366D01*
X-9304016Y-20936688D01*
X-9278019Y-20933359D01*
X-9257509Y-20948157D01*
G37*
D11*
X8382000Y-4826000D03*
D12*
X11430000Y-520000D03*
D13*
X11430000Y-2540000D03*
D12*
X-11430000Y-45200000D03*
D14*
X-11430000Y-43180000D03*
D11*
X-2794000Y-43688000D03*
D12*
X11430000Y-45200000D03*
D14*
X11430000Y-43180000D03*
D12*
X-11430000Y-520000D03*
D13*
X-11430000Y-2540000D03*
D11*
X-4064000Y-22352000D03*
D15*
X-7620000Y-3930000D03*
X-7620000Y-6230000D03*
D16*
X2413000Y-12767500D03*
X2413000Y-13902500D03*
D17*
X-5966000Y-10160000D03*
X-8766000Y-10160000D03*
D18*
X-3810000Y-9767500D03*
X-3810000Y-13092500D03*
D19*
X-6925500Y-11938000D03*
X-8060500Y-11938000D03*
D20*
X-1994500Y-11684000D03*
X-799500Y-11684000D03*
D21*
X8725500Y-9398000D03*
X7530500Y-9398000D03*
D22*
X-1683000Y-16002000D03*
X-5683000Y-16002000D03*
D19*
X8695500Y-10414000D03*
X7560500Y-10414000D03*
D23*
X-7011500Y-13208000D03*
X-8736500Y-13208000D03*
D24*
X8269500Y-11748000D03*
X8269500Y-12698000D03*
X8269500Y-13648000D03*
X5569500Y-13648000D03*
X5569500Y-12698000D03*
X5569500Y-11748000D03*
D25*
X7469500Y-8128000D03*
X9294500Y-8128000D03*
D26*
X762000Y-12687000D03*
X762000Y-14237000D03*
D19*
X-7814500Y-14478000D03*
X-8949500Y-14478000D03*
D27*
X3461000Y-9210000D03*
X3461000Y-10160000D03*
X3461000Y-11110000D03*
X1111000Y-11110000D03*
X1111000Y-9210000D03*
D16*
X3556000Y-12767500D03*
X3556000Y-13902500D03*
D20*
X-1994500Y-9398000D03*
X-799500Y-9398000D03*
M02*
