G04 #@! TF.GenerationSoftware,KiCad,Pcbnew,8.0.8*
G04 #@! TF.CreationDate,2025-05-11T18:19:19+03:00*
G04 #@! TF.ProjectId,TP5410_eval_board,54503534-3130-45f6-9576-616c5f626f61,rev?*
G04 #@! TF.SameCoordinates,Original*
G04 #@! TF.FileFunction,Copper,L2,Bot*
G04 #@! TF.FilePolarity,Positive*
%FSLAX46Y46*%
G04 Gerber Fmt 4.6, Leading zero omitted, Abs format (unit mm)*
G04 Created by KiCad (PCBNEW 8.0.8) date 2025-05-11 18:19:19*
%MOMM*%
%LPD*%
G01*
G04 APERTURE LIST*
G04 Aperture macros list*
%AMRoundRect*
0 Rectangle with rounded corners*
0 $1 Rounding radius*
0 $2 $3 $4 $5 $6 $7 $8 $9 X,Y pos of 4 corners*
0 Add a 4 corners polygon primitive as box body*
4,1,4,$2,$3,$4,$5,$6,$7,$8,$9,$2,$3,0*
0 Add four circle primitives for the rounded corners*
1,1,$1+$1,$2,$3*
1,1,$1+$1,$4,$5*
1,1,$1+$1,$6,$7*
1,1,$1+$1,$8,$9*
0 Add four rect primitives between the rounded corners*
20,1,$1+$1,$2,$3,$4,$5,0*
20,1,$1+$1,$4,$5,$6,$7,0*
20,1,$1+$1,$6,$7,$8,$9,0*
20,1,$1+$1,$8,$9,$2,$3,0*%
G04 Aperture macros list end*
G04 #@! TA.AperFunction,EtchedComponent*
%ADD10C,0.010000*%
G04 #@! TD*
G04 #@! TA.AperFunction,ComponentPad*
%ADD11C,3.000000*%
G04 #@! TD*
G04 #@! TA.AperFunction,ComponentPad*
%ADD12R,1.500000X4.040000*%
G04 #@! TD*
G04 #@! TA.AperFunction,ComponentPad*
%ADD13RoundRect,0.375000X-0.375000X0.625000X-0.375000X-0.625000X0.375000X-0.625000X0.375000X0.625000X0*%
G04 #@! TD*
G04 #@! TA.AperFunction,ComponentPad*
%ADD14RoundRect,0.375000X0.375000X-0.625000X0.375000X0.625000X-0.375000X0.625000X-0.375000X-0.625000X0*%
G04 #@! TD*
G04 #@! TA.AperFunction,ComponentPad*
%ADD15O,1.000000X1.900000*%
G04 #@! TD*
G04 #@! TA.AperFunction,ComponentPad*
%ADD16O,0.950000X2.150000*%
G04 #@! TD*
G04 #@! TA.AperFunction,SMDPad,CuDef*
%ADD17RoundRect,0.250000X-0.350000X0.275000X-0.350000X-0.275000X0.350000X-0.275000X0.350000X0.275000X0*%
G04 #@! TD*
G04 #@! TA.AperFunction,SMDPad,CuDef*
%ADD18RoundRect,0.155000X-0.155000X0.212500X-0.155000X-0.212500X0.155000X-0.212500X0.155000X0.212500X0*%
G04 #@! TD*
G04 #@! TA.AperFunction,SMDPad,CuDef*
%ADD19RoundRect,0.250000X0.300000X0.300000X-0.300000X0.300000X-0.300000X-0.300000X0.300000X-0.300000X0*%
G04 #@! TD*
G04 #@! TA.AperFunction,SMDPad,CuDef*
%ADD20RoundRect,0.250000X-0.700000X0.362500X-0.700000X-0.362500X0.700000X-0.362500X0.700000X0.362500X0*%
G04 #@! TD*
G04 #@! TA.AperFunction,SMDPad,CuDef*
%ADD21RoundRect,0.155000X0.212500X0.155000X-0.212500X0.155000X-0.212500X-0.155000X0.212500X-0.155000X0*%
G04 #@! TD*
G04 #@! TA.AperFunction,SMDPad,CuDef*
%ADD22RoundRect,0.160000X-0.197500X-0.160000X0.197500X-0.160000X0.197500X0.160000X-0.197500X0.160000X0*%
G04 #@! TD*
G04 #@! TA.AperFunction,SMDPad,CuDef*
%ADD23RoundRect,0.160000X0.197500X0.160000X-0.197500X0.160000X-0.197500X-0.160000X0.197500X-0.160000X0*%
G04 #@! TD*
G04 #@! TA.AperFunction,SMDPad,CuDef*
%ADD24RoundRect,0.250000X1.000000X0.650000X-1.000000X0.650000X-1.000000X-0.650000X1.000000X-0.650000X0*%
G04 #@! TD*
G04 #@! TA.AperFunction,SMDPad,CuDef*
%ADD25RoundRect,0.237500X0.300000X0.237500X-0.300000X0.237500X-0.300000X-0.237500X0.300000X-0.237500X0*%
G04 #@! TD*
G04 #@! TA.AperFunction,SMDPad,CuDef*
%ADD26RoundRect,0.162500X0.617500X0.162500X-0.617500X0.162500X-0.617500X-0.162500X0.617500X-0.162500X0*%
G04 #@! TD*
G04 #@! TA.AperFunction,SMDPad,CuDef*
%ADD27RoundRect,0.237500X-0.250000X-0.237500X0.250000X-0.237500X0.250000X0.237500X-0.250000X0.237500X0*%
G04 #@! TD*
G04 #@! TA.AperFunction,SMDPad,CuDef*
%ADD28RoundRect,0.225000X-0.250000X0.225000X-0.250000X-0.225000X0.250000X-0.225000X0.250000X0.225000X0*%
G04 #@! TD*
G04 #@! TA.AperFunction,SMDPad,CuDef*
%ADD29RoundRect,0.059000X-0.626000X0.236000X-0.626000X-0.236000X0.626000X-0.236000X0.626000X0.236000X0*%
G04 #@! TD*
G04 #@! TA.AperFunction,ViaPad*
%ADD30C,0.600000*%
G04 #@! TD*
G04 #@! TA.AperFunction,Conductor*
%ADD31C,0.200000*%
G04 #@! TD*
G04 #@! TA.AperFunction,Conductor*
%ADD32C,1.000000*%
G04 #@! TD*
G04 #@! TA.AperFunction,Conductor*
%ADD33C,0.500000*%
G04 #@! TD*
G04 #@! TA.AperFunction,Conductor*
%ADD34C,2.000000*%
G04 #@! TD*
G04 APERTURE END LIST*
D10*
X-7615443Y-21039862D02*
X-7023100Y-21645424D01*
X-7023100Y-23952200D01*
X-10369550Y-23951978D01*
X-10962882Y-23345664D01*
X-11556213Y-22739350D01*
X-11556238Y-22667316D01*
X-11328400Y-22667316D01*
X-10256506Y-23723600D01*
X-7251700Y-23723600D01*
X-7251700Y-21723462D01*
X-7781869Y-21193181D01*
X-8312037Y-20662900D01*
X-11328400Y-20662900D01*
X-11328400Y-22667316D01*
X-11556238Y-22667316D01*
X-11556607Y-21586825D01*
X-11556922Y-20662900D01*
X-11557000Y-20434300D01*
X-8207785Y-20434300D01*
X-7615443Y-21039862D01*
G04 #@! TA.AperFunction,EtchedComponent*
G36*
X-7615443Y-21039862D02*
G01*
X-7023100Y-21645424D01*
X-7023100Y-23952200D01*
X-10369550Y-23951978D01*
X-10962882Y-23345664D01*
X-11556213Y-22739350D01*
X-11556238Y-22667316D01*
X-11328400Y-22667316D01*
X-10256506Y-23723600D01*
X-7251700Y-23723600D01*
X-7251700Y-21723462D01*
X-7781869Y-21193181D01*
X-8312037Y-20662900D01*
X-11328400Y-20662900D01*
X-11328400Y-22667316D01*
X-11556238Y-22667316D01*
X-11556607Y-21586825D01*
X-11556922Y-20662900D01*
X-11557000Y-20434300D01*
X-8207785Y-20434300D01*
X-7615443Y-21039862D01*
G37*
G04 #@! TD.AperFunction*
X-9257509Y-20948157D02*
X-9237685Y-20981861D01*
X-9219258Y-21022580D01*
X-9196094Y-21099891D01*
X-9188019Y-21184971D01*
X-9194934Y-21268940D01*
X-9216741Y-21342921D01*
X-9222943Y-21355855D01*
X-9252850Y-21403098D01*
X-9290510Y-21449367D01*
X-9308151Y-21466980D01*
X-9359974Y-21513800D01*
X-8832169Y-21513800D01*
X-8746077Y-21600557D01*
X-8706610Y-21640993D01*
X-8682996Y-21667795D01*
X-8672792Y-21684944D01*
X-8673552Y-21696423D01*
X-8681754Y-21705332D01*
X-8698381Y-21725904D01*
X-8720073Y-21761606D01*
X-8739602Y-21799550D01*
X-8767897Y-21883289D01*
X-8776915Y-21969766D01*
X-8767235Y-22053450D01*
X-8739438Y-22128808D01*
X-8699187Y-22185170D01*
X-8663614Y-22213294D01*
X-8616952Y-22238974D01*
X-8569790Y-22257121D01*
X-8537575Y-22262821D01*
X-8509000Y-22263100D01*
X-8509000Y-21926771D01*
X-8267808Y-21926771D01*
X-8267700Y-21996400D01*
X-8267700Y-22263100D01*
X-8234249Y-22263100D01*
X-8199666Y-22259378D01*
X-8158123Y-22250233D01*
X-8151603Y-22248360D01*
X-8096521Y-22222350D01*
X-8042644Y-22181095D01*
X-7999315Y-22132511D01*
X-7983597Y-22106024D01*
X-7969611Y-22058952D01*
X-7963737Y-22000746D01*
X-7966086Y-21942095D01*
X-7976767Y-21893686D01*
X-7981302Y-21883354D01*
X-8019631Y-21832152D01*
X-8075208Y-21787104D01*
X-8139883Y-21754482D01*
X-8155527Y-21749295D01*
X-8192241Y-21738029D01*
X-8219967Y-21730798D01*
X-8239961Y-21730361D01*
X-8253475Y-21739482D01*
X-8261763Y-21760922D01*
X-8266079Y-21797442D01*
X-8267676Y-21851804D01*
X-8267808Y-21926771D01*
X-8509000Y-21926771D01*
X-8509000Y-21533717D01*
X-8643090Y-21666141D01*
X-8731391Y-21577158D01*
X-8819691Y-21488176D01*
X-8734321Y-21402805D01*
X-8648951Y-21317435D01*
X-8569451Y-21395303D01*
X-8489950Y-21473171D01*
X-8350250Y-21482172D01*
X-8230262Y-21494503D01*
X-8121350Y-21514791D01*
X-8028620Y-21541912D01*
X-7975366Y-21564719D01*
X-7887617Y-21623033D01*
X-7817438Y-21698096D01*
X-7766066Y-21787206D01*
X-7734740Y-21887659D01*
X-7724699Y-21996749D01*
X-7733552Y-22092702D01*
X-7764004Y-22203800D01*
X-7813732Y-22298388D01*
X-7882633Y-22376374D01*
X-7970601Y-22437667D01*
X-8077532Y-22482173D01*
X-8203322Y-22509802D01*
X-8207375Y-22510367D01*
X-8267700Y-22518656D01*
X-8267700Y-22867128D01*
X-8267537Y-22971811D01*
X-8266953Y-23053736D01*
X-8265808Y-23115545D01*
X-8263960Y-23159878D01*
X-8261268Y-23189376D01*
X-8257591Y-23206681D01*
X-8252789Y-23214432D01*
X-8249092Y-23215600D01*
X-8226256Y-23206573D01*
X-8194875Y-23183638D01*
X-8161900Y-23153011D01*
X-8134283Y-23120907D01*
X-8122699Y-23102589D01*
X-8099553Y-23030142D01*
X-8097942Y-22952771D01*
X-8117290Y-22878050D01*
X-8143399Y-22830810D01*
X-8159175Y-22806119D01*
X-8164675Y-22792172D01*
X-8164311Y-22791486D01*
X-8152756Y-22782939D01*
X-8125350Y-22762813D01*
X-8086744Y-22734518D01*
X-8059197Y-22714352D01*
X-8012932Y-22680927D01*
X-7982524Y-22660898D01*
X-7963519Y-22652404D01*
X-7951467Y-22653585D01*
X-7941917Y-22662580D01*
X-7940292Y-22664660D01*
X-7896161Y-22742525D01*
X-7872742Y-22834515D01*
X-7868544Y-22898100D01*
X-7875467Y-22986466D01*
X-7899259Y-23061078D01*
X-7942839Y-23129410D01*
X-7971857Y-23162397D01*
X-8022468Y-23215600D01*
X-7734300Y-23215600D01*
X-7734300Y-22364700D01*
X-7493000Y-22364700D01*
X-7493000Y-23469600D01*
X-9232900Y-23469600D01*
X-9232900Y-23228300D01*
X-10452100Y-23228300D01*
X-10452100Y-22974300D01*
X-10048875Y-22974229D01*
X-9923289Y-22973735D01*
X-9815196Y-22972337D01*
X-9726282Y-22970085D01*
X-9658233Y-22967032D01*
X-9612734Y-22963231D01*
X-9595446Y-22960220D01*
X-9534591Y-22930909D01*
X-9486443Y-22882889D01*
X-9453720Y-22820803D01*
X-9439140Y-22749294D01*
X-9441124Y-22696557D01*
X-9462055Y-22623912D01*
X-9503331Y-22566274D01*
X-9552948Y-22529316D01*
X-9568184Y-22520833D01*
X-9583021Y-22514017D01*
X-9600330Y-22508656D01*
X-9622979Y-22504539D01*
X-9653840Y-22501452D01*
X-9695782Y-22499186D01*
X-9751676Y-22497527D01*
X-9824393Y-22496265D01*
X-9916801Y-22495186D01*
X-10030276Y-22494095D01*
X-10453001Y-22490140D01*
X-10449376Y-22367095D01*
X-10447176Y-22292426D01*
X-9426671Y-22292426D01*
X-9390111Y-22310972D01*
X-9320639Y-22359758D01*
X-9265589Y-22425672D01*
X-9226406Y-22504009D01*
X-9204533Y-22590063D01*
X-9201414Y-22679128D01*
X-9218494Y-22766498D01*
X-9236594Y-22811258D01*
X-9265036Y-22859432D01*
X-9300206Y-22905758D01*
X-9322215Y-22928713D01*
X-9372674Y-22974300D01*
X-9220200Y-22974300D01*
X-9220200Y-23215600D01*
X-8509000Y-23215600D01*
X-8509000Y-22519707D01*
X-8594725Y-22504964D01*
X-8710304Y-22474263D01*
X-8808468Y-22425114D01*
X-8888874Y-22357880D01*
X-8951173Y-22272924D01*
X-8995020Y-22170610D01*
X-9018974Y-22059900D01*
X-9025880Y-21995035D01*
X-9026443Y-21942561D01*
X-9020403Y-21890206D01*
X-9014753Y-21859875D01*
X-8996179Y-21767800D01*
X-9221757Y-21767800D01*
X-9211454Y-21828125D01*
X-9204105Y-21897653D01*
X-9204337Y-21968047D01*
X-9211758Y-22029969D01*
X-9221363Y-22064144D01*
X-9260303Y-22136052D01*
X-9315294Y-22203955D01*
X-9369139Y-22251110D01*
X-9426671Y-22292426D01*
X-10447176Y-22292426D01*
X-10445750Y-22244050D01*
X-10013950Y-22237700D01*
X-9896041Y-22235850D01*
X-9800791Y-22234018D01*
X-9725464Y-22232035D01*
X-9667320Y-22229731D01*
X-9623621Y-22226938D01*
X-9591629Y-22223487D01*
X-9568604Y-22219210D01*
X-9551808Y-22213937D01*
X-9540314Y-22208508D01*
X-9490412Y-22167493D01*
X-9456904Y-22110219D01*
X-9441273Y-22040991D01*
X-9445004Y-21964111D01*
X-9449155Y-21944122D01*
X-9476044Y-21875917D01*
X-9520350Y-21824743D01*
X-9582863Y-21790109D01*
X-9664373Y-21771524D01*
X-9732849Y-21767800D01*
X-9778550Y-21768739D01*
X-9804236Y-21772497D01*
X-9815255Y-21780484D01*
X-9817111Y-21790025D01*
X-9824352Y-21822802D01*
X-9843395Y-21868154D01*
X-9870256Y-21918758D01*
X-9900947Y-21967291D01*
X-9931482Y-22006431D01*
X-9939393Y-22014645D01*
X-9987874Y-22056975D01*
X-10038478Y-22089802D01*
X-10095164Y-22114184D01*
X-10161885Y-22131181D01*
X-10242599Y-22141852D01*
X-10341261Y-22147255D01*
X-10439400Y-22148498D01*
X-10540263Y-22147563D01*
X-10620649Y-22144209D01*
X-10685431Y-22137613D01*
X-10739483Y-22126950D01*
X-10787679Y-22111397D01*
X-10834891Y-22090130D01*
X-10858679Y-22077627D01*
X-10939102Y-22020664D01*
X-11000848Y-21947279D01*
X-11044125Y-21857054D01*
X-11069140Y-21749568D01*
X-11076215Y-21639269D01*
X-11076209Y-21639190D01*
X-10625829Y-21639190D01*
X-10617556Y-21649854D01*
X-10593253Y-21673887D01*
X-10556226Y-21708187D01*
X-10509781Y-21749653D01*
X-10486129Y-21770310D01*
X-10429766Y-21818686D01*
X-10388230Y-21852560D01*
X-10357529Y-21874488D01*
X-10333669Y-21887026D01*
X-10312658Y-21892730D01*
X-10292669Y-21894135D01*
X-10243004Y-21887161D01*
X-10187020Y-21867551D01*
X-10176258Y-21862444D01*
X-10136103Y-21838747D01*
X-10103357Y-21812976D01*
X-10090815Y-21798781D01*
X-10082468Y-21786587D01*
X-10077927Y-21777233D01*
X-10080160Y-21769161D01*
X-10092137Y-21760817D01*
X-10116827Y-21750644D01*
X-10157199Y-21737087D01*
X-10216224Y-21718590D01*
X-10283825Y-21697651D01*
X-10342153Y-21678917D01*
X-10390515Y-21662200D01*
X-10424354Y-21649163D01*
X-10439114Y-21641470D01*
X-10439400Y-21640865D01*
X-10427960Y-21634271D01*
X-10396502Y-21621874D01*
X-10349320Y-21605230D01*
X-10290708Y-21585891D01*
X-10264775Y-21577671D01*
X-10201819Y-21557784D01*
X-10147554Y-21540342D01*
X-10106584Y-21526847D01*
X-10083515Y-21518802D01*
X-10080396Y-21517484D01*
X-10080397Y-21504829D01*
X-10093014Y-21480767D01*
X-10096359Y-21475898D01*
X-10134650Y-21439357D01*
X-10189012Y-21409051D01*
X-10250174Y-21389509D01*
X-10282387Y-21385050D01*
X-10303667Y-21384594D01*
X-10322875Y-21387941D01*
X-10343960Y-21397526D01*
X-10370872Y-21415784D01*
X-10407560Y-21445151D01*
X-10457973Y-21488060D01*
X-10479237Y-21506423D01*
X-10529757Y-21550493D01*
X-10572868Y-21588820D01*
X-10605157Y-21618314D01*
X-10623214Y-21635884D01*
X-10625829Y-21639190D01*
X-11076209Y-21639190D01*
X-11066548Y-21516354D01*
X-11037676Y-21409670D01*
X-10989791Y-21319509D01*
X-10923088Y-21246166D01*
X-10837758Y-21189935D01*
X-10760496Y-21158801D01*
X-10693193Y-21143149D01*
X-10607787Y-21131752D01*
X-10511284Y-21125009D01*
X-10410687Y-21123323D01*
X-10312999Y-21127093D01*
X-10270798Y-21130788D01*
X-10147762Y-21153240D01*
X-10043039Y-21192407D01*
X-9957074Y-21247967D01*
X-9890310Y-21319594D01*
X-9843191Y-21406964D01*
X-9827567Y-21454831D01*
X-9811107Y-21516513D01*
X-9688790Y-21511600D01*
X-9629991Y-21508561D01*
X-9589747Y-21504008D01*
X-9561214Y-21496312D01*
X-9537548Y-21483843D01*
X-9520324Y-21471487D01*
X-9487407Y-21441710D01*
X-9461592Y-21410365D01*
X-9456639Y-21402018D01*
X-9433416Y-21332934D01*
X-9429059Y-21259164D01*
X-9443042Y-21188449D01*
X-9474837Y-21128526D01*
X-9475261Y-21127986D01*
X-9492107Y-21101908D01*
X-9497679Y-21083475D01*
X-9497443Y-21082516D01*
X-9486045Y-21070262D01*
X-9458730Y-21046886D01*
X-9420111Y-21016222D01*
X-9391685Y-20994612D01*
X-9340304Y-20957366D01*
X-9304016Y-20936688D01*
X-9278019Y-20933359D01*
X-9257509Y-20948157D01*
G04 #@! TA.AperFunction,EtchedComponent*
G36*
X-9257509Y-20948157D02*
G01*
X-9237685Y-20981861D01*
X-9219258Y-21022580D01*
X-9196094Y-21099891D01*
X-9188019Y-21184971D01*
X-9194934Y-21268940D01*
X-9216741Y-21342921D01*
X-9222943Y-21355855D01*
X-9252850Y-21403098D01*
X-9290510Y-21449367D01*
X-9308151Y-21466980D01*
X-9359974Y-21513800D01*
X-8832169Y-21513800D01*
X-8746077Y-21600557D01*
X-8706610Y-21640993D01*
X-8682996Y-21667795D01*
X-8672792Y-21684944D01*
X-8673552Y-21696423D01*
X-8681754Y-21705332D01*
X-8698381Y-21725904D01*
X-8720073Y-21761606D01*
X-8739602Y-21799550D01*
X-8767897Y-21883289D01*
X-8776915Y-21969766D01*
X-8767235Y-22053450D01*
X-8739438Y-22128808D01*
X-8699187Y-22185170D01*
X-8663614Y-22213294D01*
X-8616952Y-22238974D01*
X-8569790Y-22257121D01*
X-8537575Y-22262821D01*
X-8509000Y-22263100D01*
X-8509000Y-21926771D01*
X-8267808Y-21926771D01*
X-8267700Y-21996400D01*
X-8267700Y-22263100D01*
X-8234249Y-22263100D01*
X-8199666Y-22259378D01*
X-8158123Y-22250233D01*
X-8151603Y-22248360D01*
X-8096521Y-22222350D01*
X-8042644Y-22181095D01*
X-7999315Y-22132511D01*
X-7983597Y-22106024D01*
X-7969611Y-22058952D01*
X-7963737Y-22000746D01*
X-7966086Y-21942095D01*
X-7976767Y-21893686D01*
X-7981302Y-21883354D01*
X-8019631Y-21832152D01*
X-8075208Y-21787104D01*
X-8139883Y-21754482D01*
X-8155527Y-21749295D01*
X-8192241Y-21738029D01*
X-8219967Y-21730798D01*
X-8239961Y-21730361D01*
X-8253475Y-21739482D01*
X-8261763Y-21760922D01*
X-8266079Y-21797442D01*
X-8267676Y-21851804D01*
X-8267808Y-21926771D01*
X-8509000Y-21926771D01*
X-8509000Y-21533717D01*
X-8643090Y-21666141D01*
X-8731391Y-21577158D01*
X-8819691Y-21488176D01*
X-8734321Y-21402805D01*
X-8648951Y-21317435D01*
X-8569451Y-21395303D01*
X-8489950Y-21473171D01*
X-8350250Y-21482172D01*
X-8230262Y-21494503D01*
X-8121350Y-21514791D01*
X-8028620Y-21541912D01*
X-7975366Y-21564719D01*
X-7887617Y-21623033D01*
X-7817438Y-21698096D01*
X-7766066Y-21787206D01*
X-7734740Y-21887659D01*
X-7724699Y-21996749D01*
X-7733552Y-22092702D01*
X-7764004Y-22203800D01*
X-7813732Y-22298388D01*
X-7882633Y-22376374D01*
X-7970601Y-22437667D01*
X-8077532Y-22482173D01*
X-8203322Y-22509802D01*
X-8207375Y-22510367D01*
X-8267700Y-22518656D01*
X-8267700Y-22867128D01*
X-8267537Y-22971811D01*
X-8266953Y-23053736D01*
X-8265808Y-23115545D01*
X-8263960Y-23159878D01*
X-8261268Y-23189376D01*
X-8257591Y-23206681D01*
X-8252789Y-23214432D01*
X-8249092Y-23215600D01*
X-8226256Y-23206573D01*
X-8194875Y-23183638D01*
X-8161900Y-23153011D01*
X-8134283Y-23120907D01*
X-8122699Y-23102589D01*
X-8099553Y-23030142D01*
X-8097942Y-22952771D01*
X-8117290Y-22878050D01*
X-8143399Y-22830810D01*
X-8159175Y-22806119D01*
X-8164675Y-22792172D01*
X-8164311Y-22791486D01*
X-8152756Y-22782939D01*
X-8125350Y-22762813D01*
X-8086744Y-22734518D01*
X-8059197Y-22714352D01*
X-8012932Y-22680927D01*
X-7982524Y-22660898D01*
X-7963519Y-22652404D01*
X-7951467Y-22653585D01*
X-7941917Y-22662580D01*
X-7940292Y-22664660D01*
X-7896161Y-22742525D01*
X-7872742Y-22834515D01*
X-7868544Y-22898100D01*
X-7875467Y-22986466D01*
X-7899259Y-23061078D01*
X-7942839Y-23129410D01*
X-7971857Y-23162397D01*
X-8022468Y-23215600D01*
X-7734300Y-23215600D01*
X-7734300Y-22364700D01*
X-7493000Y-22364700D01*
X-7493000Y-23469600D01*
X-9232900Y-23469600D01*
X-9232900Y-23228300D01*
X-10452100Y-23228300D01*
X-10452100Y-22974300D01*
X-10048875Y-22974229D01*
X-9923289Y-22973735D01*
X-9815196Y-22972337D01*
X-9726282Y-22970085D01*
X-9658233Y-22967032D01*
X-9612734Y-22963231D01*
X-9595446Y-22960220D01*
X-9534591Y-22930909D01*
X-9486443Y-22882889D01*
X-9453720Y-22820803D01*
X-9439140Y-22749294D01*
X-9441124Y-22696557D01*
X-9462055Y-22623912D01*
X-9503331Y-22566274D01*
X-9552948Y-22529316D01*
X-9568184Y-22520833D01*
X-9583021Y-22514017D01*
X-9600330Y-22508656D01*
X-9622979Y-22504539D01*
X-9653840Y-22501452D01*
X-9695782Y-22499186D01*
X-9751676Y-22497527D01*
X-9824393Y-22496265D01*
X-9916801Y-22495186D01*
X-10030276Y-22494095D01*
X-10453001Y-22490140D01*
X-10449376Y-22367095D01*
X-10447176Y-22292426D01*
X-9426671Y-22292426D01*
X-9390111Y-22310972D01*
X-9320639Y-22359758D01*
X-9265589Y-22425672D01*
X-9226406Y-22504009D01*
X-9204533Y-22590063D01*
X-9201414Y-22679128D01*
X-9218494Y-22766498D01*
X-9236594Y-22811258D01*
X-9265036Y-22859432D01*
X-9300206Y-22905758D01*
X-9322215Y-22928713D01*
X-9372674Y-22974300D01*
X-9220200Y-22974300D01*
X-9220200Y-23215600D01*
X-8509000Y-23215600D01*
X-8509000Y-22519707D01*
X-8594725Y-22504964D01*
X-8710304Y-22474263D01*
X-8808468Y-22425114D01*
X-8888874Y-22357880D01*
X-8951173Y-22272924D01*
X-8995020Y-22170610D01*
X-9018974Y-22059900D01*
X-9025880Y-21995035D01*
X-9026443Y-21942561D01*
X-9020403Y-21890206D01*
X-9014753Y-21859875D01*
X-8996179Y-21767800D01*
X-9221757Y-21767800D01*
X-9211454Y-21828125D01*
X-9204105Y-21897653D01*
X-9204337Y-21968047D01*
X-9211758Y-22029969D01*
X-9221363Y-22064144D01*
X-9260303Y-22136052D01*
X-9315294Y-22203955D01*
X-9369139Y-22251110D01*
X-9426671Y-22292426D01*
X-10447176Y-22292426D01*
X-10445750Y-22244050D01*
X-10013950Y-22237700D01*
X-9896041Y-22235850D01*
X-9800791Y-22234018D01*
X-9725464Y-22232035D01*
X-9667320Y-22229731D01*
X-9623621Y-22226938D01*
X-9591629Y-22223487D01*
X-9568604Y-22219210D01*
X-9551808Y-22213937D01*
X-9540314Y-22208508D01*
X-9490412Y-22167493D01*
X-9456904Y-22110219D01*
X-9441273Y-22040991D01*
X-9445004Y-21964111D01*
X-9449155Y-21944122D01*
X-9476044Y-21875917D01*
X-9520350Y-21824743D01*
X-9582863Y-21790109D01*
X-9664373Y-21771524D01*
X-9732849Y-21767800D01*
X-9778550Y-21768739D01*
X-9804236Y-21772497D01*
X-9815255Y-21780484D01*
X-9817111Y-21790025D01*
X-9824352Y-21822802D01*
X-9843395Y-21868154D01*
X-9870256Y-21918758D01*
X-9900947Y-21967291D01*
X-9931482Y-22006431D01*
X-9939393Y-22014645D01*
X-9987874Y-22056975D01*
X-10038478Y-22089802D01*
X-10095164Y-22114184D01*
X-10161885Y-22131181D01*
X-10242599Y-22141852D01*
X-10341261Y-22147255D01*
X-10439400Y-22148498D01*
X-10540263Y-22147563D01*
X-10620649Y-22144209D01*
X-10685431Y-22137613D01*
X-10739483Y-22126950D01*
X-10787679Y-22111397D01*
X-10834891Y-22090130D01*
X-10858679Y-22077627D01*
X-10939102Y-22020664D01*
X-11000848Y-21947279D01*
X-11044125Y-21857054D01*
X-11069140Y-21749568D01*
X-11076215Y-21639269D01*
X-11076209Y-21639190D01*
X-10625829Y-21639190D01*
X-10617556Y-21649854D01*
X-10593253Y-21673887D01*
X-10556226Y-21708187D01*
X-10509781Y-21749653D01*
X-10486129Y-21770310D01*
X-10429766Y-21818686D01*
X-10388230Y-21852560D01*
X-10357529Y-21874488D01*
X-10333669Y-21887026D01*
X-10312658Y-21892730D01*
X-10292669Y-21894135D01*
X-10243004Y-21887161D01*
X-10187020Y-21867551D01*
X-10176258Y-21862444D01*
X-10136103Y-21838747D01*
X-10103357Y-21812976D01*
X-10090815Y-21798781D01*
X-10082468Y-21786587D01*
X-10077927Y-21777233D01*
X-10080160Y-21769161D01*
X-10092137Y-21760817D01*
X-10116827Y-21750644D01*
X-10157199Y-21737087D01*
X-10216224Y-21718590D01*
X-10283825Y-21697651D01*
X-10342153Y-21678917D01*
X-10390515Y-21662200D01*
X-10424354Y-21649163D01*
X-10439114Y-21641470D01*
X-10439400Y-21640865D01*
X-10427960Y-21634271D01*
X-10396502Y-21621874D01*
X-10349320Y-21605230D01*
X-10290708Y-21585891D01*
X-10264775Y-21577671D01*
X-10201819Y-21557784D01*
X-10147554Y-21540342D01*
X-10106584Y-21526847D01*
X-10083515Y-21518802D01*
X-10080396Y-21517484D01*
X-10080397Y-21504829D01*
X-10093014Y-21480767D01*
X-10096359Y-21475898D01*
X-10134650Y-21439357D01*
X-10189012Y-21409051D01*
X-10250174Y-21389509D01*
X-10282387Y-21385050D01*
X-10303667Y-21384594D01*
X-10322875Y-21387941D01*
X-10343960Y-21397526D01*
X-10370872Y-21415784D01*
X-10407560Y-21445151D01*
X-10457973Y-21488060D01*
X-10479237Y-21506423D01*
X-10529757Y-21550493D01*
X-10572868Y-21588820D01*
X-10605157Y-21618314D01*
X-10623214Y-21635884D01*
X-10625829Y-21639190D01*
X-11076209Y-21639190D01*
X-11066548Y-21516354D01*
X-11037676Y-21409670D01*
X-10989791Y-21319509D01*
X-10923088Y-21246166D01*
X-10837758Y-21189935D01*
X-10760496Y-21158801D01*
X-10693193Y-21143149D01*
X-10607787Y-21131752D01*
X-10511284Y-21125009D01*
X-10410687Y-21123323D01*
X-10312999Y-21127093D01*
X-10270798Y-21130788D01*
X-10147762Y-21153240D01*
X-10043039Y-21192407D01*
X-9957074Y-21247967D01*
X-9890310Y-21319594D01*
X-9843191Y-21406964D01*
X-9827567Y-21454831D01*
X-9811107Y-21516513D01*
X-9688790Y-21511600D01*
X-9629991Y-21508561D01*
X-9589747Y-21504008D01*
X-9561214Y-21496312D01*
X-9537548Y-21483843D01*
X-9520324Y-21471487D01*
X-9487407Y-21441710D01*
X-9461592Y-21410365D01*
X-9456639Y-21402018D01*
X-9433416Y-21332934D01*
X-9429059Y-21259164D01*
X-9443042Y-21188449D01*
X-9474837Y-21128526D01*
X-9475261Y-21127986D01*
X-9492107Y-21101908D01*
X-9497679Y-21083475D01*
X-9497443Y-21082516D01*
X-9486045Y-21070262D01*
X-9458730Y-21046886D01*
X-9420111Y-21016222D01*
X-9391685Y-20994612D01*
X-9340304Y-20957366D01*
X-9304016Y-20936688D01*
X-9278019Y-20933359D01*
X-9257509Y-20948157D01*
G37*
G04 #@! TD.AperFunction*
D11*
X8382000Y-4826000D03*
D12*
X11430000Y-520000D03*
D13*
X11430000Y-2540000D03*
D12*
X-11430000Y-45200000D03*
D14*
X-11430000Y-43180000D03*
D11*
X-2794000Y-43688000D03*
D12*
X11430000Y-45200000D03*
D14*
X11430000Y-43180000D03*
D15*
X5540000Y-6750000D03*
D16*
X5540000Y-2850000D03*
D15*
X-5540000Y-6750000D03*
D16*
X-5540000Y-2850000D03*
D12*
X-11430000Y-520000D03*
D13*
X-11430000Y-2540000D03*
D11*
X-4064000Y-22352000D03*
D17*
X-7620000Y-3930000D03*
X-7620000Y-6230000D03*
D18*
X2413000Y-12767500D03*
X2413000Y-13902500D03*
D19*
X-5966000Y-10160000D03*
X-8766000Y-10160000D03*
D20*
X-3810000Y-9767500D03*
X-3810000Y-13092500D03*
D21*
X-6925500Y-11938000D03*
X-8060500Y-11938000D03*
D22*
X-1994500Y-11684000D03*
X-799500Y-11684000D03*
D23*
X8725500Y-9398000D03*
X7530500Y-9398000D03*
D24*
X-1683000Y-16002000D03*
X-5683000Y-16002000D03*
D21*
X8695500Y-10414000D03*
X7560500Y-10414000D03*
D25*
X-7011500Y-13208000D03*
X-8736500Y-13208000D03*
D26*
X8269500Y-11748000D03*
X8269500Y-12698000D03*
X8269500Y-13648000D03*
X5569500Y-13648000D03*
X5569500Y-12698000D03*
X5569500Y-11748000D03*
D27*
X7469500Y-8128000D03*
X9294500Y-8128000D03*
D28*
X762000Y-12687000D03*
X762000Y-14237000D03*
D21*
X-7814500Y-14478000D03*
X-8949500Y-14478000D03*
D29*
X3461000Y-9210000D03*
X3461000Y-10160000D03*
X3461000Y-11110000D03*
X1111000Y-11110000D03*
X1111000Y-9210000D03*
D18*
X3556000Y-12767500D03*
X3556000Y-13902500D03*
D22*
X-1994500Y-9398000D03*
X-799500Y-9398000D03*
D30*
X-10541000Y-36703000D03*
X5334000Y-36322000D03*
X-10160000Y-34290000D03*
X10160000Y-14224000D03*
X-6350000Y-22606000D03*
X-3556000Y-7874000D03*
X-11900000Y-19558000D03*
X-7620000Y-42672000D03*
X7162800Y-26771600D03*
X-9398000Y-9652000D03*
X10322000Y-32512000D03*
X6858000Y-36830000D03*
X1524000Y-45085000D03*
X9779000Y-45085000D03*
X1270000Y-36830000D03*
X4953000Y-22606000D03*
X10160000Y-17272000D03*
X-6096000Y-23622000D03*
X-9398000Y-11430000D03*
X4013200Y-26771600D03*
X6604000Y-38575339D03*
X5588000Y-38575339D03*
X10160000Y-15748000D03*
X-8890000Y-13462000D03*
X10160000Y-12700000D03*
X9652000Y-26289000D03*
X5232400Y-29006800D03*
X-3439547Y-6745252D03*
X-6096000Y-20574000D03*
X-762000Y-36830000D03*
X1270000Y-34544000D03*
X7162800Y-29006800D03*
X-6350000Y-21590000D03*
X-127000Y-45085000D03*
X3482868Y-8215000D03*
X-762000Y-34544000D03*
X4953000Y-25654000D03*
X8636000Y-26289000D03*
X3475752Y-6782471D03*
X-11900000Y-17907000D03*
X8128000Y-45085000D03*
X-2382806Y-6719999D03*
X2417194Y-6719999D03*
X-3048000Y-9144000D03*
X762000Y-29210000D03*
X8128000Y-36068000D03*
X-7874000Y-34290000D03*
X-6858000Y-36830000D03*
X1270000Y-32258000D03*
X-6858000Y-34290000D03*
X8890000Y-35306000D03*
X3556000Y-32766000D03*
X-5080000Y-34290000D03*
X-2641600Y-14504999D03*
X-7874000Y-36576000D03*
X3556000Y-30480000D03*
X-762000Y-32258000D03*
X-5080000Y-36830000D03*
X-254000Y-29210000D03*
X8128000Y-34798000D03*
X9398000Y-11164223D03*
X8636000Y-19304000D03*
X7620000Y-19304000D03*
X5626003Y-29972000D03*
X-1016000Y-28194000D03*
X4826000Y-29972000D03*
X-1524000Y-27432000D03*
X-1527100Y-10322000D03*
X-2327103Y-10322000D03*
X9577719Y-9052000D03*
D31*
X0Y-10321000D02*
X0Y-11963400D01*
X-128000Y-12091400D02*
X-128000Y-13020696D01*
X288304Y-13437000D02*
X1743500Y-13437000D01*
X0Y-11963400D02*
X-128000Y-12091400D01*
X-128000Y-13020696D02*
X288304Y-13437000D01*
X1111000Y-9210000D02*
X0Y-10321000D01*
X1743500Y-13437000D02*
X2413000Y-12767500D01*
D32*
X-3048000Y-7874000D02*
X-2989578Y-7815578D01*
X-7620000Y-7366000D02*
X-7620000Y-6230000D01*
D33*
X7570792Y-12700000D02*
X10160000Y-12700000D01*
D32*
X-2989578Y-7815578D02*
X3083446Y-7815578D01*
X-3556000Y-7874000D02*
X-3048000Y-7874000D01*
X-8060500Y-11938000D02*
X-8949500Y-12827000D01*
D33*
X7530500Y-9398000D02*
X7530500Y-10384000D01*
D32*
X6096000Y-14986000D02*
X6995735Y-15885735D01*
X-6586000Y-8400000D02*
X-7620000Y-7366000D01*
D33*
X7039500Y-10935000D02*
X7039500Y-12168708D01*
D32*
X3556000Y-13902500D02*
X4639500Y-14986000D01*
X6995735Y-15885735D02*
X6995735Y-17107000D01*
D33*
X10160000Y-12700000D02*
X10158000Y-12698000D01*
D32*
X-3556000Y-7874000D02*
X-4082000Y-8400000D01*
D31*
X-799500Y-9398000D02*
X-799500Y-11684000D01*
D32*
X3221500Y-14237000D02*
X3556000Y-13902500D01*
X-7912860Y-19729224D02*
X-9877776Y-19729224D01*
X-9877776Y-19729224D02*
X-11700000Y-17907000D01*
D33*
X7530500Y-10384000D02*
X7560500Y-10414000D01*
D31*
X-7620000Y-6230000D02*
X-8766000Y-7376000D01*
D32*
X-4082000Y-8400000D02*
X-6586000Y-8400000D01*
X-8766000Y-11232500D02*
X-8060500Y-11938000D01*
X-6096000Y-20574000D02*
X-6868000Y-19802000D01*
X-7840084Y-19802000D02*
X-7912860Y-19729224D01*
D31*
X-8766000Y-7376000D02*
X-8766000Y-10160000D01*
D32*
X-8949500Y-12827000D02*
X-8949500Y-14478000D01*
X4639500Y-14986000D02*
X6096000Y-14986000D01*
X762000Y-14237000D02*
X3221500Y-14237000D01*
D33*
X7039500Y-12168708D02*
X7570792Y-12700000D01*
D32*
X-8766000Y-10160000D02*
X-8766000Y-11232500D01*
D33*
X7560500Y-10414000D02*
X7039500Y-10935000D01*
D32*
X3083446Y-7815578D02*
X3482868Y-8215000D01*
D33*
X10158000Y-12698000D02*
X8269500Y-12698000D01*
D32*
X-6868000Y-19802000D02*
X-7840084Y-19802000D01*
D33*
X-6925500Y-11119500D02*
X-5966000Y-10160000D01*
X-6925500Y-11938000D02*
X-6925500Y-11119500D01*
X2417194Y-6719999D02*
X-2382806Y-6719999D01*
D32*
X-4202500Y-10160000D02*
X-5966000Y-10160000D01*
X-3810000Y-9767500D02*
X-4202500Y-10160000D01*
D31*
X-2794000Y-43688000D02*
X-2794000Y-39878000D01*
X-2794000Y-39878000D02*
X-5334000Y-37338000D01*
X-2566999Y-14504999D02*
X-762000Y-12700000D01*
X5500000Y-12767500D02*
X5569500Y-12698000D01*
X2413000Y-12767500D02*
X5500000Y-12767500D01*
X-2641600Y-14504999D02*
X-2566999Y-14504999D01*
X-382000Y-12700000D02*
X-128000Y-12954000D01*
X-5334000Y-37338000D02*
X-5334000Y-37084000D01*
X-762000Y-12700000D02*
X-382000Y-12700000D01*
X8269500Y-11748000D02*
X8725500Y-11292000D01*
X8967723Y-11164223D02*
X8695500Y-10892000D01*
X8695500Y-10892000D02*
X8695500Y-10414000D01*
X8695500Y-9428000D02*
X8725500Y-9398000D01*
X8725500Y-11292000D02*
X8725500Y-9398000D01*
X8695500Y-10414000D02*
X8695500Y-9428000D01*
X9398000Y-11164223D02*
X8967723Y-11164223D01*
X7469500Y-8278500D02*
X7469500Y-8128000D01*
X762000Y-11459000D02*
X1111000Y-11110000D01*
X762000Y-12687000D02*
X762000Y-11459000D01*
X3461000Y-9210000D02*
X6538000Y-9210000D01*
X1111000Y-10827000D02*
X2728000Y-9210000D01*
X2728000Y-9210000D02*
X3461000Y-9210000D01*
X6538000Y-9210000D02*
X7469500Y-8278500D01*
X1111000Y-11110000D02*
X1111000Y-10827000D01*
D34*
X8128000Y-19304000D02*
X7112000Y-19304000D01*
X-1524000Y-16002000D02*
X-3624000Y-18102000D01*
X2032000Y-19304000D02*
X-1270000Y-16002000D01*
X-10922000Y-15748000D02*
X-10922000Y-3048000D01*
X-1270000Y-16002000D02*
X-1524000Y-16002000D01*
X-9144000Y-16256000D02*
X-10414000Y-16256000D01*
X-3624000Y-18102000D02*
X-7298000Y-18102000D01*
X-7298000Y-18102000D02*
X-9144000Y-16256000D01*
X7620000Y-19304000D02*
X2032000Y-19304000D01*
X-10414000Y-16256000D02*
X-10922000Y-15748000D01*
D31*
X2118529Y-28194000D02*
X-1016000Y-28194000D01*
X5426000Y-30172003D02*
X5426000Y-30220529D01*
X5426000Y-30220529D02*
X5074529Y-30572000D01*
X4496529Y-30572000D02*
X2118529Y-28194000D01*
X5626003Y-29972000D02*
X5426000Y-30172003D01*
X5074529Y-30572000D02*
X4496529Y-30572000D01*
X2286000Y-27432000D02*
X-1524000Y-27432000D01*
X4826000Y-29972000D02*
X2286000Y-27432000D01*
X-5540000Y-2850000D02*
X-6540000Y-2850000D01*
X-6540000Y-2850000D02*
X-7620000Y-3930000D01*
X-1527100Y-10322000D02*
X-1527100Y-9865400D01*
X-1527100Y-9865400D02*
X-1994500Y-9398000D01*
X-2327103Y-11351397D02*
X-1994500Y-11684000D01*
X-2327103Y-10322000D02*
X-2327103Y-11351397D01*
X9577719Y-9052000D02*
X9577719Y-8411219D01*
X9577719Y-8411219D02*
X9294500Y-8128000D01*
X2776000Y-10160000D02*
X2286000Y-10650000D01*
X2286000Y-10650000D02*
X2286000Y-11430000D01*
X2794000Y-11938000D02*
X5379500Y-11938000D01*
X3461000Y-10160000D02*
X2776000Y-10160000D01*
X5379500Y-11938000D02*
X5569500Y-11748000D01*
X2286000Y-11430000D02*
X2794000Y-11938000D01*
G04 #@! TA.AperFunction,Conductor*
G36*
X-6060325Y-12427765D02*
G01*
X-5933501Y-12446000D01*
X-6140362Y-12446000D01*
X-6133616Y-12439701D01*
X-6064874Y-12427198D01*
X-6060325Y-12427765D01*
G37*
G04 #@! TD.AperFunction*
G04 #@! TA.AperFunction,NonConductor*
G36*
X-8128000Y-15123642D02*
G01*
X-8129814Y-15120320D01*
X-8128000Y-15094954D01*
X-8128000Y-15123642D01*
G37*
G04 #@! TD.AperFunction*
G04 #@! TA.AperFunction,Conductor*
G36*
X-2892183Y-8893502D02*
G01*
X-2876225Y-8903529D01*
X-2829936Y-8955859D01*
X-2819285Y-9024912D01*
X-2823810Y-9045408D01*
X-2846452Y-9118067D01*
X-2852500Y-9184619D01*
X-2852499Y-9400500D01*
X-2852499Y-9611386D01*
X-2849097Y-9648823D01*
X-2862633Y-9717369D01*
X-2884907Y-9747726D01*
X-2956919Y-9819738D01*
X-3052892Y-9972478D01*
X-3052892Y-9972479D01*
X-3063232Y-10002029D01*
X-3103952Y-10058805D01*
X-3161149Y-10083592D01*
X-3507867Y-10137715D01*
X-3520594Y-10139034D01*
X-3923211Y-10159835D01*
X-3929609Y-10160000D01*
X-4948125Y-10160000D01*
X-4957854Y-10159618D01*
X-5201545Y-10140438D01*
X-5220763Y-10137394D01*
X-5453697Y-10081472D01*
X-5472203Y-10075459D01*
X-5693523Y-9983785D01*
X-5710860Y-9974951D01*
X-5915110Y-9849786D01*
X-5930838Y-9838361D01*
X-5936763Y-9833302D01*
X-5974965Y-9774800D01*
X-5975473Y-9704932D01*
X-5938128Y-9645881D01*
X-5874785Y-9616394D01*
X-5856245Y-9615000D01*
X-5648059Y-9615000D01*
X-5635511Y-9615636D01*
X-5633201Y-9615872D01*
X-5606769Y-9621526D01*
X-5572001Y-9633048D01*
X-5493527Y-9652250D01*
X-5454523Y-9658544D01*
X-5425415Y-9660877D01*
X-5374001Y-9665000D01*
X-5373993Y-9665000D01*
X-5308240Y-9665000D01*
X-5167750Y-9645085D01*
X-5101540Y-9625929D01*
X-4972114Y-9567750D01*
X-4862644Y-9474402D01*
X-4862639Y-9474397D01*
X-4862633Y-9474392D01*
X-4851403Y-9461638D01*
X-4851354Y-9461607D01*
X-4834620Y-9442588D01*
X-4775556Y-9405261D01*
X-4741526Y-9400500D01*
X-3983456Y-9400500D01*
X-3888435Y-9381598D01*
X-3856761Y-9375298D01*
X-3790164Y-9362051D01*
X-3764322Y-9351347D01*
X-3736833Y-9339961D01*
X-3608092Y-9286635D01*
X-3608079Y-9286628D01*
X-3444218Y-9177139D01*
X-3444214Y-9177136D01*
X-3300541Y-9033463D01*
X-3300520Y-9033440D01*
X-3177899Y-8910819D01*
X-3116576Y-8877334D01*
X-3090218Y-8874500D01*
X-2958150Y-8874500D01*
X-2892183Y-8893502D01*
G37*
G04 #@! TD.AperFunction*
G04 #@! TA.AperFunction,Conductor*
G36*
X-3380556Y-38140134D02*
G01*
X-3380557Y-38140135D01*
X-3380560Y-38140137D01*
X-3482300Y-38241874D01*
X-3524172Y-38297807D01*
X-3524178Y-38297815D01*
X-3593131Y-38424096D01*
X-3611896Y-38510358D01*
X-3645381Y-38571681D01*
X-3706704Y-38605166D01*
X-3733062Y-38608000D01*
X-4146989Y-38608000D01*
X-4214028Y-38588315D01*
X-4234670Y-38571681D01*
X-4521958Y-38284392D01*
X-4521997Y-38284355D01*
X-4562215Y-38248228D01*
X-4562227Y-38248218D01*
X-4582878Y-38231576D01*
X-4626760Y-38199933D01*
X-4757634Y-38140163D01*
X-4824679Y-38120476D01*
X-4919625Y-38106825D01*
X-4967097Y-38100000D01*
X-3313483Y-38100000D01*
X-3380556Y-38140134D01*
G37*
G04 #@! TD.AperFunction*
G04 #@! TA.AperFunction,Conductor*
G36*
X-1051558Y-33785840D02*
G01*
X-1062648Y-33788550D01*
X-1085027Y-33794566D01*
X-1215908Y-33854335D01*
X-1215918Y-33854341D01*
X-1269077Y-33888502D01*
X-1270511Y-33889318D01*
X-1274683Y-33892105D01*
X-1274686Y-33892108D01*
X-1274688Y-33892109D01*
X-1274690Y-33892110D01*
X-1383428Y-33986330D01*
X-1461217Y-34107369D01*
X-1461217Y-34107370D01*
X-1461223Y-34107381D01*
X-1489342Y-34168950D01*
X-1490046Y-34170424D01*
X-1490243Y-34170925D01*
X-1490246Y-34170931D01*
X-1524000Y-34285885D01*
X-1524000Y-33782000D01*
X-1034125Y-33782000D01*
X-1051558Y-33785840D01*
G37*
G04 #@! TD.AperFunction*
G04 #@! TA.AperFunction,Conductor*
G36*
X1574459Y-33802183D02*
G01*
X1532854Y-33786593D01*
X1525541Y-33784883D01*
X1516577Y-33782000D01*
X1524000Y-33782000D01*
X1574459Y-33802183D01*
G37*
G04 #@! TD.AperFunction*
G04 #@! TA.AperFunction,Conductor*
G36*
X-1242152Y-28962957D02*
G01*
X-1195255Y-28979368D01*
X-1195252Y-28979368D01*
X-1195249Y-28979369D01*
X-1016004Y-28999565D01*
X-1016000Y-28999565D01*
X-1015996Y-28999565D01*
X-836750Y-28979369D01*
X-836745Y-28979368D01*
X-789848Y-28962958D01*
X-748893Y-28956000D01*
X1979932Y-28956000D01*
X2046971Y-28975685D01*
X2067613Y-28992319D01*
X4011668Y-30936374D01*
X4011678Y-30936385D01*
X4016008Y-30940715D01*
X4016009Y-30940716D01*
X4127813Y-31052520D01*
X4168327Y-31075910D01*
X4214624Y-31102639D01*
X4214626Y-31102641D01*
X4252680Y-31124611D01*
X4264744Y-31131577D01*
X4417472Y-31172501D01*
X4417475Y-31172501D01*
X4583182Y-31172501D01*
X4583198Y-31172500D01*
X4987860Y-31172500D01*
X4987876Y-31172501D01*
X4995472Y-31172501D01*
X5153583Y-31172501D01*
X5153586Y-31172501D01*
X5306314Y-31131577D01*
X5356433Y-31102639D01*
X5443245Y-31052520D01*
X5555049Y-30940716D01*
X5555049Y-30940714D01*
X5565257Y-30930507D01*
X5565259Y-30930504D01*
X5699225Y-30796537D01*
X5760546Y-30763054D01*
X5773005Y-30761001D01*
X5805258Y-30757368D01*
X5835845Y-30746664D01*
X5905622Y-30743102D01*
X5966250Y-30777830D01*
X5968749Y-30780513D01*
X8289749Y-33345829D01*
X8293991Y-33350772D01*
X8506289Y-33611746D01*
X8513964Y-33622265D01*
X8695942Y-33901332D01*
X8702473Y-33912597D01*
X8854185Y-34209216D01*
X8859487Y-34221080D01*
X8979261Y-34531984D01*
X8983294Y-34544355D01*
X9069797Y-34866085D01*
X9072513Y-34878820D01*
X9124798Y-35207841D01*
X9126164Y-35220791D01*
X9143474Y-35550015D01*
X9142917Y-35569941D01*
X9125330Y-35731546D01*
X9119558Y-35757751D01*
X9068733Y-35908480D01*
X9057459Y-35932828D01*
X8975402Y-36069093D01*
X8959155Y-36090446D01*
X8849704Y-36205872D01*
X8829242Y-36223232D01*
X8697525Y-36312407D01*
X8673810Y-36324957D01*
X8525993Y-36383712D01*
X8500133Y-36390867D01*
X8343139Y-36416448D01*
X8316345Y-36417873D01*
X8157519Y-36409083D01*
X8131045Y-36404710D01*
X7971310Y-36360140D01*
X7958584Y-36355833D01*
X2239239Y-34068095D01*
X2239232Y-34068092D01*
X2239229Y-34068091D01*
X1628270Y-33823708D01*
X1619522Y-33818211D01*
X1579631Y-33804252D01*
X1524000Y-33782000D01*
X1516038Y-33782000D01*
X1449254Y-33758631D01*
X1449249Y-33758630D01*
X1270004Y-33738435D01*
X1269996Y-33738435D01*
X1090746Y-33758631D01*
X1090745Y-33758631D01*
X1023958Y-33782000D01*
X753670Y-33782000D01*
X753668Y-33782000D01*
X-5Y-33782000D01*
X-515959Y-33782000D01*
X-582737Y-33758633D01*
X-582750Y-33758630D01*
X-761996Y-33738435D01*
X-762004Y-33738435D01*
X-941249Y-33758630D01*
X-941254Y-33758631D01*
X-1008038Y-33782000D01*
X-1524000Y-33782000D01*
X-1524000Y-34297963D01*
X-1547368Y-34364745D01*
X-1547369Y-34364750D01*
X-1567565Y-34543996D01*
X-1567565Y-34544003D01*
X-1547369Y-34723249D01*
X-1547366Y-34723262D01*
X-1524000Y-34790037D01*
X-1524000Y-35306000D01*
X-1524000Y-35306007D01*
X-1524000Y-35936948D01*
X-1524264Y-35945028D01*
X-1541940Y-36214715D01*
X-1544055Y-36230771D01*
X-1581271Y-36417873D01*
X-1595980Y-36491819D01*
X-1600175Y-36507476D01*
X-1685733Y-36759522D01*
X-1691937Y-36774500D01*
X-1809656Y-37013210D01*
X-1817766Y-37027257D01*
X-1965634Y-37248558D01*
X-1975508Y-37261426D01*
X-2150997Y-37461533D01*
X-2162466Y-37473002D01*
X-2330135Y-37620044D01*
X-2362573Y-37648491D01*
X-2375441Y-37658365D01*
X-2596742Y-37806233D01*
X-2610789Y-37814343D01*
X-2849499Y-37932062D01*
X-2864484Y-37938269D01*
X-3116512Y-38023821D01*
X-3132180Y-38028019D01*
X-3393223Y-38079943D01*
X-3409304Y-38082060D01*
X-3678942Y-38099734D01*
X-3687052Y-38100000D01*
X-5076754Y-38100000D01*
X-5083244Y-38099830D01*
X-5445216Y-38080859D01*
X-5458124Y-38079502D01*
X-5812909Y-38023310D01*
X-5825605Y-38020612D01*
X-6172591Y-37927637D01*
X-6184934Y-37923626D01*
X-6520284Y-37794898D01*
X-6532142Y-37789619D01*
X-6852213Y-37626534D01*
X-6863453Y-37620044D01*
X-7164710Y-37424405D01*
X-7175211Y-37416776D01*
X-7454381Y-37190709D01*
X-7464026Y-37182024D01*
X-7718024Y-36928026D01*
X-7726709Y-36918381D01*
X-7952776Y-36639211D01*
X-7960405Y-36628710D01*
X-8156044Y-36327453D01*
X-8162534Y-36316213D01*
X-8325619Y-35996142D01*
X-8330898Y-35984284D01*
X-8459626Y-35648934D01*
X-8463637Y-35636591D01*
X-8556612Y-35289605D01*
X-8559310Y-35276909D01*
X-8615502Y-34922124D01*
X-8616859Y-34909216D01*
X-8635830Y-34547243D01*
X-8636000Y-34540753D01*
X-8636000Y-32959051D01*
X-8635851Y-32952966D01*
X-8617037Y-32570013D01*
X-8615844Y-32557903D01*
X-8560034Y-32181665D01*
X-8557660Y-32169731D01*
X-8465239Y-31800762D01*
X-8461706Y-31789117D01*
X-8333573Y-31431010D01*
X-8328917Y-31419767D01*
X-8192613Y-31131576D01*
X-8166285Y-31075910D01*
X-8160550Y-31065182D01*
X-8152960Y-31052520D01*
X-7976052Y-30757367D01*
X-7965012Y-30738948D01*
X-7958252Y-30728830D01*
X-7731667Y-30423315D01*
X-7723947Y-30413909D01*
X-7595643Y-30272347D01*
X-7468511Y-30132079D01*
X-7459920Y-30123488D01*
X-7178090Y-29868052D01*
X-7168684Y-29860332D01*
X-6863169Y-29633747D01*
X-6853051Y-29626987D01*
X-6526805Y-29431442D01*
X-6516097Y-29425718D01*
X-6172225Y-29263079D01*
X-6160996Y-29258429D01*
X-5802865Y-29130288D01*
X-5791248Y-29126763D01*
X-5560047Y-29068850D01*
X-5422268Y-29034339D01*
X-5410334Y-29031965D01*
X-5034096Y-28976155D01*
X-5021987Y-28974962D01*
X-4639032Y-28956148D01*
X-4632949Y-28956000D01*
X-1283107Y-28956000D01*
X-1242152Y-28962957D01*
G37*
G04 #@! TD.AperFunction*
G04 #@! TA.AperFunction,Conductor*
G36*
X-4752852Y-12446423D02*
G01*
X-4529541Y-12464918D01*
X-4509364Y-12468283D01*
X-4297131Y-12522001D01*
X-4277776Y-12528641D01*
X-4077261Y-12616548D01*
X-4059276Y-12626275D01*
X-3875949Y-12745975D01*
X-3859804Y-12758534D01*
X-3698674Y-12906758D01*
X-3684820Y-12921796D01*
X-3550269Y-13094510D01*
X-3539073Y-13111629D01*
X-3434771Y-13304124D01*
X-3426545Y-13322850D01*
X-3367439Y-13494684D01*
X-3355335Y-13529873D01*
X-3350297Y-13549710D01*
X-3315142Y-13759513D01*
X-3314117Y-13765626D01*
X-3312412Y-13786022D01*
X-3312246Y-14004955D01*
X-3313919Y-14025336D01*
X-3320003Y-14061984D01*
X-3337330Y-14107639D01*
X-3367389Y-14155477D01*
X-3367390Y-14155480D01*
X-3426966Y-14325736D01*
X-3426969Y-14325749D01*
X-3447269Y-14505922D01*
X-3456884Y-14541736D01*
X-3484562Y-14605000D01*
X-3552999Y-14761426D01*
X-3556066Y-14767918D01*
X-3611069Y-14876110D01*
X-3692041Y-15035386D01*
X-3704005Y-15058919D01*
X-3711239Y-15071316D01*
X-3889830Y-15340270D01*
X-3898442Y-15351738D01*
X-4034254Y-15512325D01*
X-4106921Y-15598247D01*
X-4116810Y-15608653D01*
X-4352388Y-15829420D01*
X-4363415Y-15838614D01*
X-4622918Y-16030662D01*
X-4634932Y-16038520D01*
X-4914899Y-16199292D01*
X-4927741Y-16205708D01*
X-5224402Y-16333040D01*
X-5237900Y-16337930D01*
X-5547308Y-16430125D01*
X-5561280Y-16433421D01*
X-5879262Y-16489236D01*
X-5893522Y-16490895D01*
X-6214984Y-16509535D01*
X-6231008Y-16509427D01*
X-6485265Y-16491242D01*
X-6502777Y-16488724D01*
X-6751030Y-16434720D01*
X-6768006Y-16429736D01*
X-6870688Y-16391437D01*
X-6915035Y-16362936D01*
X-7980936Y-15297035D01*
X-8009437Y-15252688D01*
X-8047736Y-15150006D01*
X-8052720Y-15133029D01*
X-8073960Y-15035386D01*
X-8068975Y-14965694D01*
X-8064103Y-14954897D01*
X-7987450Y-14769839D01*
X-7987447Y-14769829D01*
X-7949000Y-14576543D01*
X-7949000Y-14053052D01*
X-7929315Y-13986013D01*
X-7912681Y-13965371D01*
X-7853661Y-13906351D01*
X-7763093Y-13759518D01*
X-7763091Y-13759513D01*
X-7743183Y-13699434D01*
X-7708826Y-13595753D01*
X-7708826Y-13595751D01*
X-7708825Y-13595751D01*
X-7698500Y-13494684D01*
X-7698500Y-13277850D01*
X-7678815Y-13210811D01*
X-7673766Y-13203539D01*
X-7636996Y-13154421D01*
X-7625411Y-13141051D01*
X-7432948Y-12948588D01*
X-7419577Y-12937002D01*
X-7201685Y-12773890D01*
X-7186803Y-12764326D01*
X-7185598Y-12763668D01*
X-7126173Y-12748499D01*
X-6646798Y-12748499D01*
X-6646786Y-12748498D01*
X-6646784Y-12748498D01*
X-6635626Y-12747620D01*
X-6609642Y-12745576D01*
X-6450600Y-12699370D01*
X-6308046Y-12615063D01*
X-6308044Y-12615061D01*
X-6308040Y-12615058D01*
X-6190940Y-12497958D01*
X-6187870Y-12494000D01*
X-6131227Y-12453093D01*
X-6089890Y-12446000D01*
X-4763088Y-12446000D01*
X-4752852Y-12446423D01*
G37*
G04 #@! TD.AperFunction*
G04 #@! TA.AperFunction,Conductor*
G36*
X12142539Y-520185D02*
G01*
X12188294Y-572989D01*
X12199500Y-624500D01*
X12199500Y-45095500D01*
X12179815Y-45162539D01*
X12127011Y-45208294D01*
X12075500Y-45219500D01*
X-1197003Y-45219500D01*
X-1264042Y-45199815D01*
X-1309797Y-45147011D01*
X-1319741Y-45077853D01*
X-1290716Y-45014297D01*
X-1284684Y-45007819D01*
X-1278270Y-45001405D01*
X-1278254Y-45001387D01*
X-1106775Y-44772317D01*
X-1106770Y-44772309D01*
X-969635Y-44521166D01*
X-869628Y-44253037D01*
X-808804Y-43973433D01*
X-788390Y-43688001D01*
X-788390Y-43687998D01*
X-808804Y-43402566D01*
X-869628Y-43122962D01*
X-969635Y-42854833D01*
X-1106770Y-42603690D01*
X-1106775Y-42603682D01*
X-1278254Y-42374612D01*
X-1278270Y-42374594D01*
X-1480594Y-42172270D01*
X-1480612Y-42172254D01*
X-1709682Y-42000775D01*
X-1709690Y-42000770D01*
X-1960833Y-41863635D01*
X-1960845Y-41863630D01*
X-2112834Y-41806940D01*
X-2168768Y-41765069D01*
X-2193184Y-41699604D01*
X-2193500Y-41690759D01*
X-2193500Y-39798943D01*
X-2234423Y-39646216D01*
X-2234426Y-39646209D01*
X-2313475Y-39509290D01*
X-2313481Y-39509282D01*
X-2425286Y-39397478D01*
X-3091001Y-38731762D01*
X-3124486Y-38670439D01*
X-3119502Y-38600747D01*
X-3077630Y-38544814D01*
X-3031479Y-38523321D01*
X-3005979Y-38517374D01*
X-3001354Y-38516296D01*
X-2985686Y-38512098D01*
X-2954024Y-38502494D01*
X-2701996Y-38416942D01*
X-2679276Y-38408391D01*
X-2671047Y-38405294D01*
X-2668838Y-38404379D01*
X-2656052Y-38399083D01*
X-2625922Y-38385431D01*
X-2475636Y-38311318D01*
X-2387219Y-38267716D01*
X-2358045Y-38252122D01*
X-2343976Y-38243999D01*
X-2315908Y-38226545D01*
X-2094610Y-38078679D01*
X-2094601Y-38078673D01*
X-2067711Y-38059405D01*
X-2054843Y-38049531D01*
X-2029276Y-38028548D01*
X-1999919Y-38002803D01*
X-1999903Y-38002790D01*
X-1829170Y-37853061D01*
X-1805013Y-37830434D01*
X-1793567Y-37818987D01*
X-1793555Y-37818975D01*
X-1770942Y-37794832D01*
X-1595453Y-37594725D01*
X-1584036Y-37580814D01*
X-1574465Y-37569153D01*
X-1564604Y-37556301D01*
X-1564594Y-37556288D01*
X-1545326Y-37529398D01*
X-1437607Y-37368185D01*
X-1397453Y-37308090D01*
X-1379999Y-37280022D01*
X-1371876Y-37265953D01*
X-1356282Y-37236779D01*
X-1238563Y-36998069D01*
X-1224922Y-36967961D01*
X-1218708Y-36952959D01*
X-1207059Y-36922007D01*
X-1121505Y-36669973D01*
X-1111892Y-36638287D01*
X-1107701Y-36622641D01*
X-1100191Y-36590436D01*
X-1084295Y-36510519D01*
X-1084293Y-36510504D01*
X-1048270Y-36329401D01*
X-1042883Y-36296783D01*
X-1040768Y-36280725D01*
X-1037523Y-36247800D01*
X-1019844Y-35978060D01*
X-1019033Y-35961538D01*
X-1018768Y-35953425D01*
X-1018500Y-35936974D01*
X-1018500Y-34790046D01*
X-1019156Y-34764267D01*
X-1046867Y-34623079D01*
X-1048027Y-34618813D01*
X-1047833Y-34618760D01*
X-1052988Y-34596174D01*
X-1057302Y-34557880D01*
X-1057301Y-34530117D01*
X-1052987Y-34491826D01*
X-1047203Y-34466471D01*
X-1047351Y-34466424D01*
X-1038975Y-34440376D01*
X-1030427Y-34380923D01*
X-1001401Y-34317367D01*
X-942623Y-34279594D01*
X-931571Y-34276893D01*
X-881290Y-34267024D01*
X-841080Y-34259132D01*
X-841067Y-34259127D01*
X-836805Y-34257970D01*
X-836752Y-34258164D01*
X-814173Y-34253010D01*
X-775879Y-34248695D01*
X-748126Y-34248695D01*
X-709815Y-34253011D01*
X-684476Y-34258806D01*
X-684425Y-34258647D01*
X-682920Y-34259130D01*
X-682917Y-34259132D01*
X-658375Y-34267024D01*
X-658369Y-34267024D01*
X-658369Y-34267025D01*
X-647247Y-34268624D01*
X-515959Y-34287500D01*
X-515956Y-34287500D01*
X1023948Y-34287500D01*
X1023958Y-34287500D01*
X1049722Y-34286843D01*
X1161109Y-34264983D01*
X1190905Y-34259136D01*
X1195179Y-34257975D01*
X1195231Y-34258168D01*
X1217816Y-34253012D01*
X1256128Y-34248696D01*
X1283875Y-34248696D01*
X1322173Y-34253010D01*
X1347524Y-34258796D01*
X1347572Y-34258648D01*
X1378597Y-34268624D01*
X1378486Y-34268967D01*
X1386841Y-34271576D01*
X1391884Y-34273594D01*
X1412687Y-34281390D01*
X1420597Y-34284158D01*
X1435872Y-34290682D01*
X1440533Y-34293054D01*
X1440539Y-34293056D01*
X2051491Y-34537436D01*
X2059784Y-34540753D01*
X2092849Y-34553979D01*
X2254934Y-34618813D01*
X2265599Y-34623079D01*
X2618564Y-34764265D01*
X2641359Y-34773383D01*
X2682994Y-34790037D01*
X2706609Y-34799483D01*
X3047084Y-34935673D01*
X3113069Y-34962067D01*
X3145334Y-34974973D01*
X3145339Y-34974975D01*
X3524764Y-35126745D01*
X3972909Y-35306003D01*
X4194604Y-35394681D01*
X4564859Y-35542783D01*
X5126464Y-35767425D01*
X5189929Y-35792811D01*
X5189944Y-35792817D01*
X5283149Y-35830099D01*
X5308584Y-35840273D01*
X5308609Y-35840283D01*
X5882894Y-36069997D01*
X6010149Y-36120899D01*
X6121434Y-36165413D01*
X6271989Y-36225635D01*
X6409714Y-36280725D01*
X6531369Y-36329387D01*
X6532564Y-36329865D01*
X6532569Y-36329867D01*
X6699244Y-36396537D01*
X6699249Y-36396539D01*
X6735224Y-36410929D01*
X6818169Y-36444107D01*
X6910674Y-36481109D01*
X6984199Y-36510519D01*
X7147894Y-36575997D01*
X7186239Y-36591335D01*
X7264504Y-36622641D01*
X7303619Y-36638287D01*
X7303654Y-36638301D01*
X7382809Y-36669963D01*
X7596024Y-36755249D01*
X7605889Y-36759195D01*
X7605904Y-36759201D01*
X7770846Y-36825178D01*
X7796531Y-36834654D01*
X7809257Y-36838961D01*
X7835453Y-36847041D01*
X7995188Y-36891611D01*
X8048662Y-36903452D01*
X8075136Y-36907825D01*
X8100143Y-36910574D01*
X8129575Y-36913810D01*
X8129578Y-36913810D01*
X8129586Y-36913811D01*
X8288412Y-36922601D01*
X8342837Y-36922659D01*
X8343185Y-36922660D01*
X8343185Y-36922659D01*
X8343191Y-36922660D01*
X8369985Y-36921235D01*
X8424434Y-36915368D01*
X8581428Y-36889787D01*
X8634931Y-36878063D01*
X8651309Y-36873531D01*
X8660759Y-36870917D01*
X8660762Y-36870915D01*
X8660791Y-36870908D01*
X8701682Y-36857168D01*
X8712683Y-36853473D01*
X8712689Y-36853470D01*
X8712712Y-36853463D01*
X8860529Y-36794708D01*
X8910254Y-36771751D01*
X8933969Y-36759201D01*
X8980919Y-36730998D01*
X9112636Y-36641823D01*
X9156271Y-36608696D01*
X9176733Y-36591336D01*
X9216514Y-36553694D01*
X9325965Y-36438268D01*
X9361445Y-36396539D01*
X9377692Y-36375186D01*
X9408446Y-36329867D01*
X9490503Y-36193602D01*
X9516171Y-36145228D01*
X9527445Y-36120880D01*
X9547735Y-36069997D01*
X9598560Y-35919268D01*
X9613224Y-35866488D01*
X9618996Y-35840283D01*
X9627863Y-35786235D01*
X9645450Y-35624630D01*
X9648220Y-35584066D01*
X9648325Y-35580285D01*
X9655234Y-35542791D01*
X9675368Y-35485255D01*
X9687004Y-35381985D01*
X9695565Y-35306003D01*
X9695565Y-35305996D01*
X9675369Y-35126750D01*
X9675368Y-35126745D01*
X9615789Y-34956478D01*
X9603722Y-34937273D01*
X9586254Y-34890766D01*
X9571749Y-34799486D01*
X9566895Y-34773383D01*
X9564951Y-34764267D01*
X9564182Y-34760661D01*
X9557958Y-34734825D01*
X9471458Y-34413107D01*
X9471457Y-34413103D01*
X9463900Y-34387675D01*
X9459867Y-34375304D01*
X9450968Y-34350262D01*
X9331194Y-34039358D01*
X9320997Y-34014832D01*
X9315695Y-34002968D01*
X9304234Y-33979029D01*
X9152522Y-33682410D01*
X9139792Y-33659057D01*
X9139783Y-33659040D01*
X9133264Y-33647797D01*
X9119376Y-33625227D01*
X9119370Y-33625217D01*
X8937392Y-33346150D01*
X8922321Y-33324314D01*
X8914646Y-33313795D01*
X8898426Y-33292749D01*
X8686128Y-33031775D01*
X8686113Y-33031757D01*
X8686091Y-33031730D01*
X8677604Y-33021574D01*
X8673368Y-33016638D01*
X8673356Y-33016624D01*
X8664595Y-33006682D01*
X8224676Y-32520456D01*
X6367003Y-30467236D01*
X6336622Y-30404317D01*
X6345080Y-30334962D01*
X6348832Y-30327824D01*
X6348771Y-30327795D01*
X6351792Y-30321521D01*
X6411369Y-30151262D01*
X6411372Y-30151249D01*
X6431568Y-29972003D01*
X6431568Y-29971996D01*
X6411372Y-29792750D01*
X6411371Y-29792745D01*
X6351791Y-29622476D01*
X6255818Y-29469737D01*
X6128265Y-29342184D01*
X5975526Y-29246211D01*
X5805257Y-29186631D01*
X5805252Y-29186630D01*
X5626007Y-29166435D01*
X5625999Y-29166435D01*
X5446753Y-29186630D01*
X5446740Y-29186633D01*
X5269909Y-29248510D01*
X5269160Y-29246369D01*
X5210824Y-29255958D01*
X5182409Y-29247612D01*
X5182095Y-29248511D01*
X5122692Y-29227725D01*
X5005255Y-29186632D01*
X5005254Y-29186631D01*
X5005249Y-29186630D01*
X4918330Y-29176837D01*
X4853916Y-29149770D01*
X4844533Y-29141298D01*
X2773590Y-27070355D01*
X2773588Y-27070352D01*
X2654717Y-26951481D01*
X2654709Y-26951475D01*
X2552936Y-26892717D01*
X2552934Y-26892716D01*
X2517790Y-26872425D01*
X2517789Y-26872424D01*
X2505263Y-26869067D01*
X2365057Y-26831499D01*
X2206943Y-26831499D01*
X2199347Y-26831499D01*
X2199331Y-26831500D01*
X-941588Y-26831500D01*
X-1008627Y-26811815D01*
X-1018903Y-26804445D01*
X-1021736Y-26802185D01*
X-1174476Y-26706211D01*
X-1344745Y-26646631D01*
X-1344750Y-26646630D01*
X-1523996Y-26626435D01*
X-1524004Y-26626435D01*
X-1703249Y-26646630D01*
X-1703254Y-26646631D01*
X-1873523Y-26706211D01*
X-2026262Y-26802184D01*
X-2153816Y-26929738D01*
X-2249789Y-27082478D01*
X-2309368Y-27252745D01*
X-2329565Y-27432000D01*
X-2309368Y-27611255D01*
X-2249789Y-27781522D01*
X-2153816Y-27934262D01*
X-2026262Y-28061816D01*
X-1873522Y-28157789D01*
X-1873518Y-28157790D01*
X-1872559Y-28158393D01*
X-1826268Y-28210727D01*
X-1815311Y-28249499D01*
X-1808381Y-28311003D01*
X-1808200Y-28312619D01*
X-1820256Y-28381440D01*
X-1867606Y-28432819D01*
X-1931421Y-28450500D01*
X-4632949Y-28450500D01*
X-4636324Y-28450541D01*
X-4645281Y-28450650D01*
X-4651332Y-28450797D01*
X-4663775Y-28451254D01*
X-4663833Y-28451256D01*
X-4663837Y-28451257D01*
X-4724150Y-28454220D01*
X-5046797Y-28470071D01*
X-5071547Y-28471897D01*
X-5083678Y-28473092D01*
X-5108257Y-28476124D01*
X-5484505Y-28531935D01*
X-5508974Y-28536181D01*
X-5520870Y-28538548D01*
X-5520886Y-28538551D01*
X-5520893Y-28538553D01*
X-5526289Y-28539764D01*
X-5545099Y-28543988D01*
X-5648694Y-28569937D01*
X-5682871Y-28578498D01*
X-5682874Y-28578499D01*
X-5914087Y-28636414D01*
X-5933138Y-28641688D01*
X-5938026Y-28643041D01*
X-5949643Y-28646566D01*
X-5973172Y-28654339D01*
X-6331279Y-28782472D01*
X-6354387Y-28791384D01*
X-6365620Y-28796036D01*
X-6388352Y-28806111D01*
X-6732247Y-28968761D01*
X-6754379Y-28979902D01*
X-6754403Y-28979915D01*
X-6765111Y-28985639D01*
X-6782937Y-28995738D01*
X-6786694Y-28997866D01*
X-7112940Y-29193411D01*
X-7133868Y-29206663D01*
X-7133874Y-29206667D01*
X-7143992Y-29213427D01*
X-7164295Y-29227725D01*
X-7469810Y-29454310D01*
X-7469827Y-29454323D01*
X-7469832Y-29454327D01*
X-7489384Y-29469586D01*
X-7498793Y-29477309D01*
X-7517559Y-29493497D01*
X-7799383Y-29748927D01*
X-7817378Y-29766061D01*
X-7825937Y-29774620D01*
X-7843070Y-29792614D01*
X-7923454Y-29881304D01*
X-7969172Y-29931746D01*
X-8098498Y-30074436D01*
X-8114690Y-30093206D01*
X-8122410Y-30102612D01*
X-8137689Y-30122189D01*
X-8364274Y-30427704D01*
X-8370102Y-30435980D01*
X-8378569Y-30448003D01*
X-8385335Y-30458130D01*
X-8398579Y-30479045D01*
X-8398588Y-30479061D01*
X-8398593Y-30479068D01*
X-8405717Y-30490953D01*
X-8405723Y-30490962D01*
X-8615871Y-30841573D01*
X-8617886Y-30849123D01*
X-8623252Y-30859781D01*
X-8649580Y-30915447D01*
X-8785884Y-31203638D01*
X-8795953Y-31226356D01*
X-8795960Y-31226373D01*
X-8795968Y-31226391D01*
X-8800608Y-31237594D01*
X-8809518Y-31260698D01*
X-8937654Y-31618812D01*
X-8937656Y-31618819D01*
X-8945433Y-31642358D01*
X-8948966Y-31654003D01*
X-8955590Y-31677937D01*
X-9048011Y-32046906D01*
X-9053446Y-32071106D01*
X-9055820Y-32083040D01*
X-9060063Y-32107492D01*
X-9115873Y-32483730D01*
X-9118909Y-32508344D01*
X-9120102Y-32520454D01*
X-9121928Y-32545208D01*
X-9140742Y-32928161D01*
X-9141200Y-32940592D01*
X-9141349Y-32946677D01*
X-9141500Y-32959051D01*
X-9141500Y-34540753D01*
X-9141327Y-34553990D01*
X-9141157Y-34560480D01*
X-9140637Y-34573700D01*
X-9121666Y-34935673D01*
X-9119589Y-34962067D01*
X-9118232Y-34974973D01*
X-9114776Y-35001220D01*
X-9066504Y-35306003D01*
X-9058587Y-35355986D01*
X-9053769Y-35381985D01*
X-9051071Y-35394681D01*
X-9044887Y-35420439D01*
X-8951912Y-35767425D01*
X-8944390Y-35792817D01*
X-8940379Y-35805160D01*
X-8931551Y-35830088D01*
X-8802823Y-36165438D01*
X-8792703Y-36189872D01*
X-8787424Y-36201730D01*
X-8776022Y-36225635D01*
X-8764741Y-36247776D01*
X-8681609Y-36410929D01*
X-8668712Y-36479598D01*
X-8668873Y-36481109D01*
X-8679565Y-36575997D01*
X-8679565Y-36576003D01*
X-8662101Y-36730998D01*
X-8659368Y-36755255D01*
X-8599789Y-36925522D01*
X-8503816Y-37078262D01*
X-8376262Y-37205816D01*
X-8223522Y-37301789D01*
X-8053255Y-37361368D01*
X-8035866Y-37363327D01*
X-7971454Y-37390390D01*
X-7962077Y-37398856D01*
X-7821468Y-37539466D01*
X-7802284Y-37557672D01*
X-7792639Y-37566357D01*
X-7772502Y-37583557D01*
X-7493332Y-37809624D01*
X-7472326Y-37825742D01*
X-7461825Y-37833371D01*
X-7440025Y-37848353D01*
X-7432781Y-37853057D01*
X-7138775Y-38043988D01*
X-7138768Y-38043992D01*
X-7116220Y-38057810D01*
X-7104980Y-38064300D01*
X-7089495Y-38072707D01*
X-7081729Y-38076925D01*
X-7081714Y-38076932D01*
X-7081706Y-38076937D01*
X-6761635Y-38240022D01*
X-6737730Y-38251424D01*
X-6728952Y-38255331D01*
X-6725902Y-38256690D01*
X-6725890Y-38256694D01*
X-6725872Y-38256703D01*
X-6701438Y-38266823D01*
X-6366088Y-38395551D01*
X-6341160Y-38404379D01*
X-6328817Y-38408390D01*
X-6303425Y-38415912D01*
X-5956439Y-38508887D01*
X-5930681Y-38515071D01*
X-5917985Y-38517769D01*
X-5897131Y-38521633D01*
X-5891981Y-38522588D01*
X-5606287Y-38567837D01*
X-5537201Y-38578779D01*
X-5510975Y-38582232D01*
X-5498067Y-38583589D01*
X-5471673Y-38585666D01*
X-5109701Y-38604637D01*
X-5096481Y-38605157D01*
X-5089991Y-38605327D01*
X-5086755Y-38605369D01*
X-5076788Y-38605500D01*
X-5076754Y-38605500D01*
X-4967097Y-38605500D01*
X-4900058Y-38625185D01*
X-4879416Y-38641819D01*
X-3430819Y-40090416D01*
X-3397334Y-40151739D01*
X-3394500Y-40178097D01*
X-3394500Y-41690759D01*
X-3414185Y-41757798D01*
X-3466989Y-41803553D01*
X-3475166Y-41806940D01*
X-3627154Y-41863630D01*
X-3627166Y-41863635D01*
X-3878309Y-42000770D01*
X-3878317Y-42000775D01*
X-4107387Y-42172254D01*
X-4107405Y-42172270D01*
X-4309729Y-42374594D01*
X-4309745Y-42374612D01*
X-4387797Y-42478878D01*
X-4481226Y-42603685D01*
X-4618367Y-42854839D01*
X-4718369Y-43122954D01*
X-4779196Y-43402572D01*
X-4799610Y-43688000D01*
X-4779196Y-43973428D01*
X-4718369Y-44253046D01*
X-4618367Y-44521161D01*
X-4481226Y-44772315D01*
X-4309739Y-45001395D01*
X-4309729Y-45001405D01*
X-4303316Y-45007819D01*
X-4269831Y-45069142D01*
X-4274815Y-45138834D01*
X-4316687Y-45194767D01*
X-4382151Y-45219184D01*
X-4390997Y-45219500D01*
X-10055500Y-45219500D01*
X-10122539Y-45199815D01*
X-10168294Y-45147011D01*
X-10179500Y-45095500D01*
X-10179500Y-42478877D01*
X-10179501Y-42478874D01*
X-10182399Y-42436113D01*
X-10182399Y-42436112D01*
X-10228360Y-42251303D01*
X-10312967Y-42080707D01*
X-10312969Y-42080704D01*
X-10432277Y-41932278D01*
X-10432278Y-41932277D01*
X-10580704Y-41812969D01*
X-10580707Y-41812967D01*
X-10751302Y-41728360D01*
X-10936107Y-41682400D01*
X-10964621Y-41680466D01*
X-10978877Y-41679500D01*
X-10978878Y-41679500D01*
X-10978879Y-41679500D01*
X-11881122Y-41679500D01*
X-11881125Y-41679501D01*
X-11923886Y-41682399D01*
X-11923887Y-41682399D01*
X-12045574Y-41712662D01*
X-12115382Y-41709738D01*
X-12172528Y-41669538D01*
X-12198869Y-41604823D01*
X-12199500Y-41592327D01*
X-12199500Y-23095355D01*
X-12179815Y-23028316D01*
X-12127011Y-22982561D01*
X-12057853Y-22972617D01*
X-11994297Y-23001642D01*
X-11975435Y-23022121D01*
X-11921076Y-23096400D01*
X-11327745Y-23702714D01*
X-11327745Y-23702715D01*
X-10734413Y-24309029D01*
X-10645576Y-24381420D01*
X-10513407Y-24441790D01*
X-10369584Y-24462478D01*
X-7023134Y-24462700D01*
X-6950448Y-24457504D01*
X-6811031Y-24416567D01*
X-6811026Y-24416563D01*
X-6811024Y-24416563D01*
X-6688798Y-24338013D01*
X-6688795Y-24338011D01*
X-6663676Y-24309022D01*
X-6593640Y-24228197D01*
X-6593639Y-24228195D01*
X-6593637Y-24228193D01*
X-6533280Y-24096030D01*
X-6533278Y-24096023D01*
X-6512600Y-23952199D01*
X-6512600Y-22352000D01*
X-6069610Y-22352000D01*
X-6049196Y-22637428D01*
X-5988369Y-22917046D01*
X-5888367Y-23185161D01*
X-5751226Y-23436315D01*
X-5579739Y-23665395D01*
X-5377395Y-23867739D01*
X-5148315Y-24039226D01*
X-4897166Y-24176364D01*
X-4897165Y-24176364D01*
X-4897161Y-24176367D01*
X-4629046Y-24276369D01*
X-4349428Y-24337196D01*
X-4092595Y-24355564D01*
X-4064001Y-24357610D01*
X-4064000Y-24357610D01*
X-4063999Y-24357610D01*
X-4032220Y-24355337D01*
X-3778572Y-24337196D01*
X-3778568Y-24337195D01*
X-3778566Y-24337195D01*
X-3498962Y-24276371D01*
X-3498960Y-24276370D01*
X-3498954Y-24276369D01*
X-3230839Y-24176367D01*
X-3230834Y-24176364D01*
X-3230833Y-24176364D01*
X-2979690Y-24039229D01*
X-2979682Y-24039224D01*
X-2750612Y-23867745D01*
X-2750594Y-23867729D01*
X-2548270Y-23665405D01*
X-2548254Y-23665387D01*
X-2376775Y-23436317D01*
X-2376770Y-23436309D01*
X-2239635Y-23185166D01*
X-2164067Y-22982561D01*
X-2139631Y-22917046D01*
X-2139630Y-22917043D01*
X-2139628Y-22917037D01*
X-2078804Y-22637433D01*
X-2058390Y-22352001D01*
X-2058390Y-22351998D01*
X-2078804Y-22066566D01*
X-2139628Y-21786962D01*
X-2239635Y-21518833D01*
X-2376770Y-21267690D01*
X-2376775Y-21267682D01*
X-2548254Y-21038612D01*
X-2548270Y-21038594D01*
X-2750594Y-20836270D01*
X-2750612Y-20836254D01*
X-2979682Y-20664775D01*
X-2979690Y-20664770D01*
X-3230833Y-20527635D01*
X-3230832Y-20527635D01*
X-3498962Y-20427628D01*
X-3778566Y-20366804D01*
X-4063999Y-20346390D01*
X-4064001Y-20346390D01*
X-4349433Y-20366804D01*
X-4629037Y-20427628D01*
X-4629043Y-20427630D01*
X-4629046Y-20427631D01*
X-4685043Y-20448517D01*
X-4897166Y-20527635D01*
X-5148309Y-20664770D01*
X-5148317Y-20664775D01*
X-5377387Y-20836254D01*
X-5377405Y-20836270D01*
X-5579729Y-21038594D01*
X-5579745Y-21038612D01*
X-5751224Y-21267682D01*
X-5751229Y-21267690D01*
X-5826602Y-21405726D01*
X-5888367Y-21518839D01*
X-5988369Y-21786954D01*
X-6049196Y-22066572D01*
X-6069610Y-22352000D01*
X-6512600Y-22352000D01*
X-6512600Y-21645424D01*
X-6523098Y-21542422D01*
X-6572373Y-21405724D01*
X-6658160Y-21288452D01*
X-7842845Y-20077326D01*
X-7842851Y-20077321D01*
X-7931786Y-20004840D01*
X-7931792Y-20004837D01*
X-8063954Y-19944480D01*
X-8063961Y-19944478D01*
X-8207785Y-19923800D01*
X-11557000Y-19923800D01*
X-11629824Y-19929021D01*
X-11769226Y-19970004D01*
X-11769227Y-19970004D01*
X-11769228Y-19970005D01*
X-11891438Y-20048604D01*
X-11926789Y-20089429D01*
X-11981760Y-20152912D01*
X-12040525Y-20190706D01*
X-12110395Y-20190730D01*
X-12169186Y-20152975D01*
X-12198232Y-20089429D01*
X-12199500Y-20071741D01*
X-12199500Y-16891889D01*
X-12179815Y-16824850D01*
X-12127011Y-16779095D01*
X-12057853Y-16769151D01*
X-11994297Y-16798176D01*
X-11987819Y-16804208D01*
X-11391510Y-17400517D01*
X-11200434Y-17539343D01*
X-10989993Y-17646568D01*
X-10989987Y-17646570D01*
X-10917009Y-17670282D01*
X-10917008Y-17670282D01*
X-10765368Y-17719553D01*
X-10532097Y-17756500D01*
X-10532092Y-17756500D01*
X-9816889Y-17756500D01*
X-9749850Y-17776185D01*
X-9729208Y-17792819D01*
X-8275510Y-19246517D01*
X-8084434Y-19385343D01*
X-7936305Y-19460818D01*
X-7873992Y-19492568D01*
X-7649368Y-19565553D01*
X-7416097Y-19602500D01*
X-7416092Y-19602500D01*
X-3505903Y-19602500D01*
X-3272631Y-19565553D01*
X-3168412Y-19531689D01*
X-3048008Y-19492568D01*
X-3048005Y-19492566D01*
X-3048003Y-19492566D01*
X-2909700Y-19422097D01*
X-2837566Y-19385343D01*
X-2646490Y-19246517D01*
X-1484681Y-18084708D01*
X-1423358Y-18051223D01*
X-1353666Y-18056207D01*
X-1309319Y-18084708D01*
X1054490Y-20448517D01*
X1245566Y-20587343D01*
X1456008Y-20694568D01*
X1680631Y-20767553D01*
X1768109Y-20781408D01*
X1913903Y-20804500D01*
X1913908Y-20804500D01*
X8246097Y-20804500D01*
X8479368Y-20767553D01*
X8703992Y-20694568D01*
X8914433Y-20587343D01*
X9105510Y-20448517D01*
X9272517Y-20281510D01*
X9411343Y-20090433D01*
X9518568Y-19879992D01*
X9591553Y-19655368D01*
X9628500Y-19422097D01*
X9628500Y-19185902D01*
X9591553Y-18952631D01*
X9518566Y-18728003D01*
X9411342Y-18517566D01*
X9272517Y-18326490D01*
X9105510Y-18159483D01*
X8914433Y-18020657D01*
X8703996Y-17913433D01*
X8479368Y-17840446D01*
X8246097Y-17803500D01*
X8246092Y-17803500D01*
X7738092Y-17803500D01*
X2704889Y-17803500D01*
X2637850Y-17783815D01*
X2617208Y-17767181D01*
X81629Y-15231602D01*
X51606Y-15182928D01*
X1814Y-15032666D01*
X-90288Y-14883344D01*
X-90287Y-14883344D01*
X-90289Y-14883342D01*
X-214342Y-14759289D01*
X-363663Y-14667187D01*
X-363668Y-14667185D01*
X-471359Y-14631500D01*
X-530203Y-14612001D01*
X-530204Y-14612000D01*
X-632983Y-14601500D01*
X-632991Y-14601500D01*
X-704935Y-14601500D01*
X-743253Y-14595431D01*
X-918629Y-14538447D01*
X-1151903Y-14501500D01*
X-1151908Y-14501500D01*
X-1414903Y-14501500D01*
X-1481942Y-14481815D01*
X-1527697Y-14429011D01*
X-1537641Y-14359853D01*
X-1508616Y-14296297D01*
X-1502584Y-14289819D01*
X-693029Y-13480264D01*
X-631706Y-13446779D01*
X-562014Y-13451763D01*
X-517670Y-13480261D01*
X-496716Y-13501216D01*
X-496714Y-13501217D01*
X-80412Y-13917520D01*
X56520Y-13996577D01*
X209247Y-14037501D01*
X209249Y-14037501D01*
X374958Y-14037501D01*
X374974Y-14037500D01*
X1656831Y-14037500D01*
X1656847Y-14037501D01*
X1664443Y-14037501D01*
X1822554Y-14037501D01*
X1822557Y-14037501D01*
X1975285Y-13996577D01*
X2028737Y-13965716D01*
X2112216Y-13917520D01*
X2224020Y-13805716D01*
X2224020Y-13805714D01*
X2234221Y-13795514D01*
X2234224Y-13795509D01*
X2357918Y-13671815D01*
X2419239Y-13638333D01*
X2445597Y-13635499D01*
X2634190Y-13635499D01*
X2634202Y-13635499D01*
X2671358Y-13632576D01*
X2830400Y-13586370D01*
X2921381Y-13532563D01*
X2989102Y-13515381D01*
X3047617Y-13532562D01*
X3138600Y-13586370D01*
X3138603Y-13586370D01*
X3138605Y-13586372D01*
X3297637Y-13632575D01*
X3297640Y-13632575D01*
X3297642Y-13632576D01*
X3334797Y-13635500D01*
X3777202Y-13635499D01*
X3814358Y-13632576D01*
X3973400Y-13586370D01*
X4101879Y-13510386D01*
X4169602Y-13493203D01*
X4235865Y-13515362D01*
X4279628Y-13569828D01*
X4289000Y-13617118D01*
X4289000Y-13864098D01*
X4295068Y-13930882D01*
X4295071Y-13930893D01*
X4342967Y-14084598D01*
X4426266Y-14222391D01*
X4540108Y-14336233D01*
X4540110Y-14336234D01*
X4540112Y-14336236D01*
X4677898Y-14419531D01*
X4831613Y-14467430D01*
X4898409Y-14473500D01*
X6240590Y-14473499D01*
X6240597Y-14473499D01*
X6307382Y-14467431D01*
X6307385Y-14467430D01*
X6307387Y-14467430D01*
X6461102Y-14419531D01*
X6598888Y-14336236D01*
X6712736Y-14222388D01*
X6796031Y-14084602D01*
X6801113Y-14068290D01*
X6839847Y-14010143D01*
X6903871Y-13982167D01*
X6972857Y-13993245D01*
X7024902Y-14039862D01*
X7037883Y-14068284D01*
X7042967Y-14084598D01*
X7126266Y-14222391D01*
X7240108Y-14336233D01*
X7240110Y-14336234D01*
X7240112Y-14336236D01*
X7377898Y-14419531D01*
X7531613Y-14467430D01*
X7598409Y-14473500D01*
X8940590Y-14473499D01*
X8940597Y-14473499D01*
X9007382Y-14467431D01*
X9007385Y-14467430D01*
X9007387Y-14467430D01*
X9161102Y-14419531D01*
X9298888Y-14336236D01*
X9412736Y-14222388D01*
X9496031Y-14084602D01*
X9543930Y-13930887D01*
X9550000Y-13864091D01*
X9549999Y-13431910D01*
X9549999Y-13431909D01*
X9549999Y-13431901D01*
X9543931Y-13365117D01*
X9543928Y-13365106D01*
X9496032Y-13211401D01*
X9496031Y-13211400D01*
X9496031Y-13211398D01*
X9412736Y-13073612D01*
X9412734Y-13073610D01*
X9412733Y-13073608D01*
X9298891Y-12959766D01*
X9161102Y-12876469D01*
X9161096Y-12876467D01*
X9007387Y-12828570D01*
X9007385Y-12828569D01*
X9007383Y-12828569D01*
X8960617Y-12824319D01*
X8940591Y-12822500D01*
X8940588Y-12822500D01*
X7598401Y-12822500D01*
X7531617Y-12828568D01*
X7531606Y-12828571D01*
X7377901Y-12876467D01*
X7240108Y-12959766D01*
X7126266Y-13073608D01*
X7088892Y-13135432D01*
X7043880Y-13209892D01*
X7042968Y-13211400D01*
X7037885Y-13227712D01*
X6999147Y-13285860D01*
X6935121Y-13313833D01*
X6866136Y-13302751D01*
X6814094Y-13256132D01*
X6801115Y-13227714D01*
X6796031Y-13211398D01*
X6796029Y-13211395D01*
X6795561Y-13209892D01*
X6794409Y-13140032D01*
X6795561Y-13136109D01*
X6815037Y-13073608D01*
X6843930Y-12980887D01*
X6850000Y-12914091D01*
X6849999Y-12481910D01*
X6849999Y-12481901D01*
X6843931Y-12415117D01*
X6843929Y-12415109D01*
X6795561Y-12259890D01*
X6794409Y-12190029D01*
X6795560Y-12186110D01*
X6796028Y-12184605D01*
X6796031Y-12184602D01*
X6801116Y-12168284D01*
X6839850Y-12110141D01*
X6903875Y-12082166D01*
X6972860Y-12093247D01*
X7024904Y-12139865D01*
X7037883Y-12168284D01*
X7042967Y-12184598D01*
X7042968Y-12184600D01*
X7042969Y-12184602D01*
X7089394Y-12261398D01*
X7126266Y-12322391D01*
X7240108Y-12436233D01*
X7240110Y-12436234D01*
X7240112Y-12436236D01*
X7377898Y-12519531D01*
X7531613Y-12567430D01*
X7598409Y-12573500D01*
X8940590Y-12573499D01*
X8940597Y-12573499D01*
X9007382Y-12567431D01*
X9007385Y-12567430D01*
X9007387Y-12567430D01*
X9161102Y-12519531D01*
X9298888Y-12436236D01*
X9412736Y-12322388D01*
X9496031Y-12184602D01*
X9543930Y-12030887D01*
X9543931Y-12030874D01*
X9544998Y-12025512D01*
X9577378Y-11963599D01*
X9625661Y-11932652D01*
X9747522Y-11890012D01*
X9900262Y-11794039D01*
X10027816Y-11666485D01*
X10123789Y-11513745D01*
X10183368Y-11343478D01*
X10184042Y-11337500D01*
X10203565Y-11164226D01*
X10203565Y-11164219D01*
X10183369Y-10984973D01*
X10183368Y-10984968D01*
X10161510Y-10922501D01*
X10123789Y-10814701D01*
X10111627Y-10795346D01*
X10080748Y-10746201D01*
X10027816Y-10661961D01*
X9900262Y-10534407D01*
X9747522Y-10438434D01*
X9747519Y-10438432D01*
X9646544Y-10403099D01*
X9589768Y-10362378D01*
X9564021Y-10297425D01*
X9563499Y-10286058D01*
X9563499Y-10192809D01*
X9563498Y-10192784D01*
X9562921Y-10185450D01*
X9560576Y-10155642D01*
X9518327Y-10010219D01*
X9518526Y-9940349D01*
X9556468Y-9881679D01*
X9620107Y-9852836D01*
X9623492Y-9852407D01*
X9697416Y-9844078D01*
X9756968Y-9837369D01*
X9756971Y-9837368D01*
X9756974Y-9837368D01*
X9927241Y-9777789D01*
X10079981Y-9681816D01*
X10207535Y-9554262D01*
X10303508Y-9401522D01*
X10363087Y-9231255D01*
X10363088Y-9231249D01*
X10383284Y-9052003D01*
X10383284Y-9051996D01*
X10363088Y-8872750D01*
X10363087Y-8872745D01*
X10303507Y-8702475D01*
X10273580Y-8654848D01*
X10254579Y-8587611D01*
X10260866Y-8549875D01*
X10272174Y-8515753D01*
X10282500Y-8414677D01*
X10282499Y-7841324D01*
X10282137Y-7837785D01*
X10272174Y-7740247D01*
X10250191Y-7673907D01*
X10217908Y-7576484D01*
X10127340Y-7429650D01*
X10005350Y-7307660D01*
X9888026Y-7235294D01*
X9858518Y-7217093D01*
X9858513Y-7217091D01*
X9857069Y-7216612D01*
X9694753Y-7162826D01*
X9694751Y-7162825D01*
X9593678Y-7152500D01*
X8995330Y-7152500D01*
X8995312Y-7152501D01*
X8894247Y-7162825D01*
X8730484Y-7217092D01*
X8730481Y-7217093D01*
X8583648Y-7307661D01*
X8469681Y-7421629D01*
X8408358Y-7455114D01*
X8338666Y-7450130D01*
X8294319Y-7421629D01*
X8180351Y-7307661D01*
X8180350Y-7307660D01*
X8063026Y-7235294D01*
X8033518Y-7217093D01*
X8033513Y-7217091D01*
X8032069Y-7216612D01*
X7869753Y-7162826D01*
X7869751Y-7162825D01*
X7768678Y-7152500D01*
X7170330Y-7152500D01*
X7170312Y-7152501D01*
X7069247Y-7162825D01*
X6905484Y-7217092D01*
X6905481Y-7217093D01*
X6758648Y-7307661D01*
X6752181Y-7314129D01*
X6690858Y-7347614D01*
X6621166Y-7342630D01*
X6565233Y-7300758D01*
X6540816Y-7235294D01*
X6540500Y-7226448D01*
X6540500Y-6201456D01*
X6502052Y-6008170D01*
X6502051Y-6008169D01*
X6502051Y-6008165D01*
X6502049Y-6008160D01*
X6426635Y-5826092D01*
X6426628Y-5826079D01*
X6317139Y-5662218D01*
X6317136Y-5662214D01*
X6177785Y-5522863D01*
X6177781Y-5522860D01*
X6013920Y-5413371D01*
X6013907Y-5413364D01*
X5831839Y-5337950D01*
X5831829Y-5337947D01*
X5638543Y-5299500D01*
X5638541Y-5299500D01*
X5441459Y-5299500D01*
X5441454Y-5299500D01*
X5268691Y-5333865D01*
X5199100Y-5327638D01*
X5143922Y-5284775D01*
X5120678Y-5218885D01*
X5120500Y-5212248D01*
X5120500Y-4512261D01*
X5140185Y-4445222D01*
X5192989Y-4399467D01*
X5262147Y-4389523D01*
X5268670Y-4390640D01*
X5356822Y-4408174D01*
X5443919Y-4425500D01*
X5443922Y-4425500D01*
X5636080Y-4425500D01*
X5636081Y-4425499D01*
X5824543Y-4388012D01*
X6002073Y-4314477D01*
X6161845Y-4207720D01*
X6297720Y-4071845D01*
X6404477Y-3912073D01*
X6478012Y-3734543D01*
X6515500Y-3546078D01*
X6515500Y-2153922D01*
X6515500Y-2153919D01*
X6515499Y-2153917D01*
X6478013Y-1965464D01*
X6478012Y-1965457D01*
X6478010Y-1965452D01*
X6404479Y-1787931D01*
X6404478Y-1787929D01*
X6297720Y-1628155D01*
X6297717Y-1628151D01*
X6161848Y-1492282D01*
X6161844Y-1492279D01*
X6002070Y-1385521D01*
X6002068Y-1385520D01*
X5824547Y-1311989D01*
X5824535Y-1311986D01*
X5636081Y-1274500D01*
X5636078Y-1274500D01*
X5443922Y-1274500D01*
X5443919Y-1274500D01*
X5268691Y-1309355D01*
X5199100Y-1303128D01*
X5143922Y-1260265D01*
X5120678Y-1194375D01*
X5120500Y-1187738D01*
X5120500Y-624500D01*
X5140185Y-557461D01*
X5192989Y-511706D01*
X5244500Y-500500D01*
X5934108Y-500500D01*
X12075500Y-500500D01*
X12142539Y-520185D01*
G37*
G04 #@! TD.AperFunction*
G04 #@! TA.AperFunction,Conductor*
G36*
X-5177461Y-520185D02*
G01*
X-5131706Y-572989D01*
X-5120500Y-624500D01*
X-5120500Y-1187738D01*
X-5140185Y-1254777D01*
X-5192989Y-1300532D01*
X-5262147Y-1310476D01*
X-5268691Y-1309355D01*
X-5443919Y-1274500D01*
X-5443922Y-1274500D01*
X-5636078Y-1274500D01*
X-5636081Y-1274500D01*
X-5824535Y-1311986D01*
X-5824547Y-1311989D01*
X-6002068Y-1385520D01*
X-6002070Y-1385521D01*
X-6161844Y-1492279D01*
X-6161848Y-1492282D01*
X-6297717Y-1628151D01*
X-6297720Y-1628155D01*
X-6404478Y-1787929D01*
X-6404479Y-1787931D01*
X-6478010Y-1965452D01*
X-6478012Y-1965457D01*
X-6478013Y-1965464D01*
X-6514903Y-2150919D01*
X-6547288Y-2212830D01*
X-6608003Y-2247404D01*
X-6618272Y-2249289D01*
X-6619056Y-2249499D01*
X-6619057Y-2249499D01*
X-6664094Y-2261567D01*
X-6771785Y-2290423D01*
X-6771790Y-2290426D01*
X-6908709Y-2369475D01*
X-6908717Y-2369481D01*
X-7407416Y-2868181D01*
X-7468739Y-2901666D01*
X-7495097Y-2904500D01*
X-8020001Y-2904500D01*
X-8020019Y-2904501D01*
X-8122796Y-2915000D01*
X-8122799Y-2915001D01*
X-8289331Y-2970185D01*
X-8289334Y-2970186D01*
X-8438656Y-3062288D01*
X-8562712Y-3186344D01*
X-8654814Y-3335666D01*
X-8709999Y-3502203D01*
X-8720500Y-3604991D01*
X-8720499Y-4255008D01*
X-8709999Y-4357797D01*
X-8654814Y-4524334D01*
X-8562712Y-4673656D01*
X-8438656Y-4797712D01*
X-8289334Y-4889814D01*
X-8122797Y-4944999D01*
X-8020009Y-4955500D01*
X-7219992Y-4955499D01*
X-7219984Y-4955498D01*
X-7219980Y-4955498D01*
X-7117203Y-4944999D01*
X-7117200Y-4944998D01*
X-6950666Y-4889814D01*
X-6801344Y-4797712D01*
X-6677288Y-4673656D01*
X-6585186Y-4524334D01*
X-6530001Y-4357797D01*
X-6530001Y-4357795D01*
X-6530000Y-4357795D01*
X-6519500Y-4255016D01*
X-6519500Y-4148162D01*
X-6499815Y-4081123D01*
X-6447011Y-4035368D01*
X-6377853Y-4025424D01*
X-6314297Y-4054449D01*
X-6299643Y-4069502D01*
X-6297722Y-4071841D01*
X-6297720Y-4071845D01*
X-6161845Y-4207720D01*
X-6002073Y-4314477D01*
X-5824543Y-4388012D01*
X-5636081Y-4425499D01*
X-5636080Y-4425500D01*
X-5636078Y-4425500D01*
X-5443919Y-4425500D01*
X-5356822Y-4408174D01*
X-5268689Y-4390644D01*
X-5199100Y-4396871D01*
X-5143923Y-4439734D01*
X-5120678Y-4505623D01*
X-5120500Y-4512261D01*
X-5120500Y-5212248D01*
X-5140185Y-5279287D01*
X-5192989Y-5325042D01*
X-5262147Y-5334986D01*
X-5268691Y-5333865D01*
X-5441454Y-5299500D01*
X-5441459Y-5299500D01*
X-5638541Y-5299500D01*
X-5638543Y-5299500D01*
X-5831829Y-5337947D01*
X-5831839Y-5337950D01*
X-6013907Y-5413364D01*
X-6013920Y-5413371D01*
X-6177781Y-5522860D01*
X-6177785Y-5522863D01*
X-6317136Y-5662214D01*
X-6317139Y-5662218D01*
X-6426628Y-5826079D01*
X-6426635Y-5826092D01*
X-6502049Y-6008160D01*
X-6502051Y-6008165D01*
X-6502051Y-6008169D01*
X-6502052Y-6008170D01*
X-6540500Y-6201456D01*
X-6540500Y-7298543D01*
X-6531730Y-7342630D01*
X-6502051Y-7491835D01*
X-6426632Y-7673914D01*
X-6317139Y-7837782D01*
X-6177782Y-7977139D01*
X-6013914Y-8086632D01*
X-5831835Y-8162051D01*
X-5768582Y-8174632D01*
X-5638543Y-8200500D01*
X-5638541Y-8200500D01*
X-5441456Y-8200500D01*
X-5248170Y-8162052D01*
X-5248169Y-8162051D01*
X-5248165Y-8162051D01*
X-5248160Y-8162049D01*
X-5066092Y-8086635D01*
X-5066079Y-8086628D01*
X-4902218Y-7977139D01*
X-4902214Y-7977136D01*
X-4762863Y-7837785D01*
X-4762860Y-7837781D01*
X-4653371Y-7673920D01*
X-4653364Y-7673907D01*
X-4577950Y-7491839D01*
X-4577947Y-7491829D01*
X-4539500Y-7298543D01*
X-4539500Y-6937214D01*
X-4519815Y-6870175D01*
X-4467011Y-6824420D01*
X-4406093Y-6815660D01*
X-4405943Y-6813631D01*
X-4397837Y-6814233D01*
X-4397837Y-6814234D01*
X-4341076Y-6818455D01*
X-4337546Y-6818768D01*
X-4280957Y-6824624D01*
X-4280949Y-6824622D01*
X-4272828Y-6824397D01*
X-4272807Y-6825118D01*
X-4259240Y-6824541D01*
X-4253173Y-6824993D01*
X-4096010Y-6805707D01*
X-3945630Y-6756130D01*
X-3945628Y-6756129D01*
X-3945624Y-6756127D01*
X-3807811Y-6678169D01*
X-3807804Y-6678163D01*
X-3687854Y-6574821D01*
X-3687849Y-6574817D01*
X-3604501Y-6468150D01*
X-3547715Y-6427447D01*
X-3506794Y-6420500D01*
X-3293382Y-6420500D01*
X-3226343Y-6440185D01*
X-3180588Y-6492989D01*
X-3170162Y-6558383D01*
X-3188371Y-6719995D01*
X-3188371Y-6720002D01*
X-3168175Y-6899248D01*
X-3168174Y-6899254D01*
X-3108595Y-7069521D01*
X-3012622Y-7222261D01*
X-2885068Y-7349815D01*
X-2732328Y-7445788D01*
X-2562061Y-7505367D01*
X-2562058Y-7505367D01*
X-2562055Y-7505368D01*
X-2382810Y-7525564D01*
X-2382806Y-7525564D01*
X-2382802Y-7525564D01*
X-2203556Y-7505368D01*
X-2203551Y-7505367D01*
X-2123789Y-7477457D01*
X-2082834Y-7470499D01*
X2117222Y-7470499D01*
X2158177Y-7477457D01*
X2237939Y-7505367D01*
X2237944Y-7505368D01*
X2417190Y-7525564D01*
X2417194Y-7525564D01*
X2417198Y-7525564D01*
X2596443Y-7505368D01*
X2596446Y-7505367D01*
X2596449Y-7505367D01*
X2766716Y-7445788D01*
X2919456Y-7349815D01*
X3047010Y-7222261D01*
X3142983Y-7069521D01*
X3202562Y-6899254D01*
X3202563Y-6899248D01*
X3222759Y-6720002D01*
X3222759Y-6719995D01*
X3204550Y-6558383D01*
X3216605Y-6489561D01*
X3263954Y-6438182D01*
X3327770Y-6420500D01*
X3506794Y-6420500D01*
X3573833Y-6440185D01*
X3604500Y-6468149D01*
X3687849Y-6574817D01*
X3687854Y-6574821D01*
X3807804Y-6678163D01*
X3807811Y-6678169D01*
X3945623Y-6756126D01*
X3945625Y-6756127D01*
X3945629Y-6756129D01*
X4096009Y-6805706D01*
X4253172Y-6824993D01*
X4259241Y-6824541D01*
X4272809Y-6825116D01*
X4272830Y-6824397D01*
X4280950Y-6824622D01*
X4280959Y-6824624D01*
X4337531Y-6818770D01*
X4341060Y-6818455D01*
X4397835Y-6814234D01*
X4397835Y-6814233D01*
X4405943Y-6813631D01*
X4406203Y-6817135D01*
X4459676Y-6821350D01*
X4515304Y-6863626D01*
X4539245Y-6929266D01*
X4539500Y-6937214D01*
X4539500Y-7298541D01*
X4539500Y-7298543D01*
X4539499Y-7298543D01*
X4577947Y-7491829D01*
X4577950Y-7491839D01*
X4653364Y-7673907D01*
X4653371Y-7673920D01*
X4762860Y-7837781D01*
X4762863Y-7837785D01*
X4902214Y-7977136D01*
X4902218Y-7977139D01*
X5066079Y-8086628D01*
X5066092Y-8086635D01*
X5248160Y-8162049D01*
X5248165Y-8162051D01*
X5248169Y-8162051D01*
X5248170Y-8162052D01*
X5441456Y-8200500D01*
X5441459Y-8200500D01*
X5638543Y-8200500D01*
X5768582Y-8174632D01*
X5831835Y-8162051D01*
X6013914Y-8086632D01*
X6177782Y-7977139D01*
X6269820Y-7885100D01*
X6331141Y-7851617D01*
X6400833Y-7856601D01*
X6456767Y-7898472D01*
X6481184Y-7963936D01*
X6481500Y-7972783D01*
X6481500Y-8365901D01*
X6461815Y-8432940D01*
X6445181Y-8453582D01*
X6325582Y-8573182D01*
X6264262Y-8606666D01*
X6237903Y-8609500D01*
X4572555Y-8609500D01*
X4505516Y-8589815D01*
X4492372Y-8579223D01*
X4363797Y-8481722D01*
X4363795Y-8481721D01*
X4220715Y-8425298D01*
X4220714Y-8425297D01*
X4220713Y-8425297D01*
X4130800Y-8414500D01*
X2791200Y-8414500D01*
X2701286Y-8425297D01*
X2558202Y-8481722D01*
X2435653Y-8574653D01*
X2384804Y-8641709D01*
X2328611Y-8683233D01*
X2258890Y-8687784D01*
X2197776Y-8653919D01*
X2187196Y-8641709D01*
X2136346Y-8574653D01*
X2013797Y-8481722D01*
X2013795Y-8481721D01*
X1870715Y-8425298D01*
X1870714Y-8425297D01*
X1870713Y-8425297D01*
X1780800Y-8414500D01*
X441200Y-8414500D01*
X351286Y-8425297D01*
X208202Y-8481722D01*
X85653Y-8574653D01*
X3316Y-8683233D01*
X-7279Y-8697205D01*
X-58725Y-8827665D01*
X-63702Y-8840286D01*
X-74500Y-8930197D01*
X-74500Y-9493506D01*
X-76044Y-9493506D01*
X-90281Y-9555502D01*
X-110740Y-9582505D01*
X-364384Y-9836149D01*
X-364385Y-9836149D01*
X-368715Y-9840479D01*
X-368716Y-9840480D01*
X-480520Y-9952284D01*
X-506107Y-9996604D01*
X-530637Y-10039092D01*
X-530639Y-10039095D01*
X-549504Y-10071769D01*
X-600072Y-10119983D01*
X-668679Y-10133205D01*
X-733543Y-10107236D01*
X-773931Y-10050722D01*
X-801309Y-9972480D01*
X-897283Y-9819738D01*
X-901617Y-9815405D01*
X-933705Y-9759824D01*
X-944242Y-9720502D01*
X-944243Y-9720500D01*
X-967524Y-9633612D01*
X-967525Y-9633609D01*
X-1046577Y-9496685D01*
X-1100182Y-9443081D01*
X-1133666Y-9381757D01*
X-1136500Y-9355401D01*
X-1136500Y-9184611D01*
X-1142546Y-9118073D01*
X-1142548Y-9118066D01*
X-1190265Y-8964933D01*
X-1190267Y-8964929D01*
X-1273242Y-8827670D01*
X-1273246Y-8827665D01*
X-1386665Y-8714246D01*
X-1386670Y-8714242D01*
X-1523929Y-8631267D01*
X-1523933Y-8631265D01*
X-1677066Y-8583548D01*
X-1677064Y-8583548D01*
X-1716998Y-8579919D01*
X-1743619Y-8577500D01*
X-1743620Y-8577500D01*
X-1743621Y-8577500D01*
X-2245388Y-8577500D01*
X-2311930Y-8583547D01*
X-2365740Y-8600314D01*
X-2435600Y-8601464D01*
X-2490309Y-8569611D01*
X-2545736Y-8514185D01*
X-2698476Y-8418211D01*
X-2868745Y-8358631D01*
X-2868750Y-8358630D01*
X-3047996Y-8338435D01*
X-3048004Y-8338435D01*
X-3227249Y-8358630D01*
X-3227254Y-8358631D01*
X-3397523Y-8418211D01*
X-3550262Y-8514184D01*
X-3654259Y-8618181D01*
X-3715582Y-8651666D01*
X-3741940Y-8654500D01*
X-4560001Y-8654500D01*
X-4560019Y-8654501D01*
X-4662796Y-8665000D01*
X-4662799Y-8665001D01*
X-4829331Y-8720185D01*
X-4829334Y-8720186D01*
X-4978656Y-8812288D01*
X-5102712Y-8936344D01*
X-5194814Y-9085666D01*
X-5194817Y-9085671D01*
X-5195858Y-9087904D01*
X-5196979Y-9089178D01*
X-5198605Y-9091813D01*
X-5199055Y-9091535D01*
X-5242030Y-9140344D01*
X-5308240Y-9159500D01*
X-5373993Y-9159500D01*
X-5412997Y-9153206D01*
X-5513203Y-9120001D01*
X-5513204Y-9120000D01*
X-5615989Y-9109500D01*
X-6316001Y-9109500D01*
X-6316019Y-9109501D01*
X-6418796Y-9120000D01*
X-6418799Y-9120001D01*
X-6585331Y-9175185D01*
X-6585336Y-9175187D01*
X-6600629Y-9184620D01*
X-6734656Y-9267288D01*
X-6858712Y-9391344D01*
X-6950814Y-9540666D01*
X-7005999Y-9707203D01*
X-7016500Y-9809991D01*
X-7016499Y-9996600D01*
X-7016499Y-10097769D01*
X-7036183Y-10164808D01*
X-7052818Y-10185450D01*
X-7508452Y-10641084D01*
X-7529346Y-10672356D01*
X-7529348Y-10672357D01*
X-7529348Y-10672358D01*
X-7590586Y-10764008D01*
X-7647156Y-10900582D01*
X-7647158Y-10900587D01*
X-7647158Y-10900591D01*
X-7647159Y-10900592D01*
X-7676000Y-11045579D01*
X-7676000Y-11371070D01*
X-7693268Y-11434191D01*
X-7744370Y-11520600D01*
X-7747656Y-11531910D01*
X-7789392Y-11675567D01*
X-7790576Y-11679642D01*
X-7793500Y-11716797D01*
X-7793499Y-12159202D01*
X-7790576Y-12196358D01*
X-7773732Y-12254335D01*
X-7763866Y-12288295D01*
X-7764065Y-12358165D01*
X-7795261Y-12410571D01*
X-7894340Y-12509650D01*
X-7984908Y-12656484D01*
X-8039174Y-12820247D01*
X-8039174Y-12820251D01*
X-8039175Y-12820253D01*
X-8040591Y-12826864D01*
X-8042172Y-12826525D01*
X-8063073Y-12880077D01*
X-8078437Y-12900600D01*
X-8088995Y-12915242D01*
X-8094044Y-12922514D01*
X-8104067Y-12937514D01*
X-8163838Y-13068391D01*
X-8183523Y-13135430D01*
X-8183524Y-13135434D01*
X-8204000Y-13277850D01*
X-8204000Y-13277853D01*
X-8204000Y-13462609D01*
X-8204624Y-13475032D01*
X-8204683Y-13475613D01*
X-8210353Y-13502191D01*
X-8219791Y-13530671D01*
X-8231956Y-13556759D01*
X-8245274Y-13578352D01*
X-8263133Y-13600939D01*
X-8270123Y-13607929D01*
X-8270137Y-13607945D01*
X-8270144Y-13607952D01*
X-8306271Y-13648170D01*
X-8306281Y-13648182D01*
X-8306288Y-13648190D01*
X-8318600Y-13663468D01*
X-8322923Y-13668833D01*
X-8354566Y-13712715D01*
X-8354567Y-13712717D01*
X-8364960Y-13735473D01*
X-8410715Y-13788277D01*
X-8414628Y-13790690D01*
X-8431954Y-13800937D01*
X-8549063Y-13918046D01*
X-8633370Y-14060600D01*
X-8679576Y-14219642D01*
X-8682500Y-14256797D01*
X-8682499Y-14481815D01*
X-8682499Y-14664705D01*
X-8702183Y-14731744D01*
X-8754987Y-14777499D01*
X-8824146Y-14787443D01*
X-8825897Y-14787178D01*
X-9025903Y-14755500D01*
X-9025908Y-14755500D01*
X-9297500Y-14755500D01*
X-9364539Y-14735815D01*
X-9410294Y-14683011D01*
X-9421500Y-14631500D01*
X-9421500Y-2929902D01*
X-9458446Y-2696631D01*
X-9531433Y-2472003D01*
X-9638657Y-2261566D01*
X-9719048Y-2150919D01*
X-9777483Y-2070490D01*
X-9777485Y-2070488D01*
X-9777485Y-2070487D01*
X-9944487Y-1903485D01*
X-9982834Y-1875624D01*
X-10128387Y-1769873D01*
X-10171051Y-1714545D01*
X-10179500Y-1669557D01*
X-10179501Y-624500D01*
X-10159817Y-557461D01*
X-10107013Y-511706D01*
X-10055501Y-500500D01*
X-6065892Y-500500D01*
X-5244500Y-500500D01*
X-5177461Y-520185D01*
G37*
G04 #@! TD.AperFunction*
G04 #@! TA.AperFunction,Conductor*
G36*
X-644257Y-10687811D02*
G01*
X-605885Y-10746201D01*
X-600500Y-10782347D01*
X-600500Y-11675567D01*
X-617112Y-11737566D01*
X-649715Y-11794037D01*
X-649716Y-11794038D01*
X-662684Y-11816500D01*
X-687577Y-11859615D01*
X-721191Y-11985064D01*
X-727228Y-12007594D01*
X-763593Y-12067254D01*
X-826440Y-12097783D01*
X-833011Y-12098331D01*
X-832997Y-12098439D01*
X-841056Y-12099500D01*
X-841057Y-12099500D01*
X-993785Y-12140423D01*
X-993786Y-12140423D01*
X-998654Y-12141728D01*
X-1068504Y-12140065D01*
X-1126366Y-12100902D01*
X-1153870Y-12036674D01*
X-1149133Y-11985064D01*
X-1147399Y-11979500D01*
X-1142548Y-11963933D01*
X-1136500Y-11897381D01*
X-1136500Y-11714664D01*
X-1136500Y-11470611D01*
X-1142546Y-11404073D01*
X-1142548Y-11404066D01*
X-1190265Y-11250933D01*
X-1190267Y-11250929D01*
X-1212720Y-11213788D01*
X-1230556Y-11146233D01*
X-1209038Y-11079760D01*
X-1172576Y-11044646D01*
X-1024838Y-10951816D01*
X-897284Y-10824262D01*
X-829494Y-10716375D01*
X-777159Y-10670084D01*
X-708105Y-10659436D01*
X-644257Y-10687811D01*
G37*
G04 #@! TD.AperFunction*
G04 #@! TA.AperFunction,Conductor*
G36*
X7810539Y-9123184D02*
G01*
X7856294Y-9175988D01*
X7867500Y-9227499D01*
X7867500Y-9611388D01*
X7873546Y-9677926D01*
X7873546Y-9677927D01*
X7923256Y-9837454D01*
X7924406Y-9907314D01*
X7911603Y-9937463D01*
X7876628Y-9996603D01*
X7876628Y-9996604D01*
X7830424Y-10155637D01*
X7830423Y-10155643D01*
X7827500Y-10192789D01*
X7827500Y-10635190D01*
X7827501Y-10635215D01*
X7830423Y-10672355D01*
X7857021Y-10763906D01*
X7856821Y-10833775D01*
X7818878Y-10892445D01*
X7755240Y-10921288D01*
X7737945Y-10922500D01*
X7598401Y-10922500D01*
X7531617Y-10928568D01*
X7531606Y-10928571D01*
X7377901Y-10976467D01*
X7240108Y-11059766D01*
X7126266Y-11173608D01*
X7099682Y-11217584D01*
X7049146Y-11301181D01*
X7042968Y-11311400D01*
X7037885Y-11327712D01*
X6999147Y-11385860D01*
X6935121Y-11413833D01*
X6866136Y-11402751D01*
X6814094Y-11356132D01*
X6801115Y-11327712D01*
X6799102Y-11321254D01*
X6796031Y-11311398D01*
X6712736Y-11173612D01*
X6712734Y-11173610D01*
X6712733Y-11173608D01*
X6598891Y-11059766D01*
X6580314Y-11048536D01*
X6461102Y-10976469D01*
X6307387Y-10928570D01*
X6307385Y-10928569D01*
X6307383Y-10928569D01*
X6260617Y-10924319D01*
X6240591Y-10922500D01*
X6240588Y-10922500D01*
X4898401Y-10922500D01*
X4831617Y-10928568D01*
X4831606Y-10928571D01*
X4677900Y-10976467D01*
X4677896Y-10976469D01*
X4573885Y-11039346D01*
X4539074Y-11048536D01*
X4533138Y-11064782D01*
X4521063Y-11078812D01*
X4426265Y-11173610D01*
X4410313Y-11199998D01*
X4363369Y-11277651D01*
X4311843Y-11324838D01*
X4257254Y-11337500D01*
X3094097Y-11337500D01*
X3027058Y-11317815D01*
X3006416Y-11301181D01*
X2922819Y-11217584D01*
X2889334Y-11156261D01*
X2886500Y-11129903D01*
X2886500Y-11079500D01*
X2906185Y-11012461D01*
X2958989Y-10966706D01*
X3010500Y-10955500D01*
X4130800Y-10955500D01*
X4220715Y-10944702D01*
X4363795Y-10888279D01*
X4363799Y-10888275D01*
X4371190Y-10884121D01*
X4372753Y-10886901D01*
X4406178Y-10874181D01*
X4418289Y-10849483D01*
X4434809Y-10834427D01*
X4486346Y-10795346D01*
X4579279Y-10672795D01*
X4635702Y-10529715D01*
X4646500Y-10439800D01*
X4646500Y-9934500D01*
X4666185Y-9867461D01*
X4718989Y-9821706D01*
X4770500Y-9810500D01*
X6451331Y-9810500D01*
X6451347Y-9810501D01*
X6458943Y-9810501D01*
X6617054Y-9810501D01*
X6617057Y-9810501D01*
X6769785Y-9769577D01*
X6826319Y-9736937D01*
X6826320Y-9736937D01*
X6906709Y-9690524D01*
X6906708Y-9690524D01*
X6906716Y-9690520D01*
X7018520Y-9578716D01*
X7018520Y-9578714D01*
X7028724Y-9568511D01*
X7028728Y-9568506D01*
X7457416Y-9139818D01*
X7518739Y-9106333D01*
X7545097Y-9103499D01*
X7743500Y-9103499D01*
X7810539Y-9123184D01*
G37*
G04 #@! TD.AperFunction*
M02*
