G04 #@! TF.GenerationSoftware,KiCad,Pcbnew,8.0.8*
G04 #@! TF.CreationDate,2025-05-11T18:19:19+03:00*
G04 #@! TF.ProjectId,TP5410_eval_board,54503534-3130-45f6-9576-616c5f626f61,rev?*
G04 #@! TF.SameCoordinates,Original*
G04 #@! TF.FileFunction,Soldermask,Top*
G04 #@! TF.FilePolarity,Negative*
%FSLAX46Y46*%
G04 Gerber Fmt 4.6, Leading zero omitted, Abs format (unit mm)*
G04 Created by KiCad (PCBNEW 8.0.8) date 2025-05-11 18:19:19*
%MOMM*%
%LPD*%
G01*
G04 APERTURE LIST*
G04 Aperture macros list*
%AMRoundRect*
0 Rectangle with rounded corners*
0 $1 Rounding radius*
0 $2 $3 $4 $5 $6 $7 $8 $9 X,Y pos of 4 corners*
0 Add a 4 corners polygon primitive as box body*
4,1,4,$2,$3,$4,$5,$6,$7,$8,$9,$2,$3,0*
0 Add four circle primitives for the rounded corners*
1,1,$1+$1,$2,$3*
1,1,$1+$1,$4,$5*
1,1,$1+$1,$6,$7*
1,1,$1+$1,$8,$9*
0 Add four rect primitives between the rounded corners*
20,1,$1+$1,$2,$3,$4,$5,0*
20,1,$1+$1,$4,$5,$6,$7,0*
20,1,$1+$1,$6,$7,$8,$9,0*
20,1,$1+$1,$8,$9,$2,$3,0*%
%AMOutline4P*
0 Free polygon, 4 corners , with rotation*
0 The origin of the aperture is its center*
0 number of corners: always 4*
0 $1 to $8 corner X, Y*
0 $9 Rotation angle, in degrees counterclockwise*
0 create outline with 4 corners*
4,1,4,$1,$2,$3,$4,$5,$6,$7,$8,$1,$2,$9*%
G04 Aperture macros list end*
%ADD10RoundRect,0.237500X-0.371231X0.035355X0.035355X-0.371231X0.371231X-0.035355X-0.035355X0.371231X0*%
%ADD11RoundRect,0.250000X0.300000X0.300000X-0.300000X0.300000X-0.300000X-0.300000X0.300000X-0.300000X0*%
%ADD12RoundRect,0.237500X-0.237500X0.300000X-0.237500X-0.300000X0.237500X-0.300000X0.237500X0.300000X0*%
%ADD13RoundRect,0.237500X-0.237500X0.250000X-0.237500X-0.250000X0.237500X-0.250000X0.237500X0.250000X0*%
%ADD14RoundRect,0.150000X-0.150000X0.587500X-0.150000X-0.587500X0.150000X-0.587500X0.150000X0.587500X0*%
%ADD15RoundRect,0.260000X-0.390000X-1.990000X0.390000X-1.990000X0.390000X1.990000X-0.390000X1.990000X0*%
%ADD16RoundRect,0.360000X-0.540000X-1.590000X0.540000X-1.590000X0.540000X1.590000X-0.540000X1.590000X0*%
%ADD17RoundRect,0.237500X-0.250000X-0.237500X0.250000X-0.237500X0.250000X0.237500X-0.250000X0.237500X0*%
%ADD18RoundRect,0.237500X-0.035355X-0.371231X0.371231X0.035355X0.035355X0.371231X-0.371231X-0.035355X0*%
%ADD19C,3.000000*%
%ADD20RoundRect,0.175000X0.175000X-0.825000X0.175000X0.825000X-0.175000X0.825000X-0.175000X-0.825000X0*%
%ADD21R,3.300000X2.400000*%
%ADD22R,1.500000X4.040000*%
%ADD23RoundRect,0.375000X-0.375000X0.625000X-0.375000X-0.625000X0.375000X-0.625000X0.375000X0.625000X0*%
%ADD24RoundRect,0.250000X0.337500X0.475000X-0.337500X0.475000X-0.337500X-0.475000X0.337500X-0.475000X0*%
%ADD25RoundRect,0.250000X-0.787500X-1.025000X0.787500X-1.025000X0.787500X1.025000X-0.787500X1.025000X0*%
%ADD26Outline4P,-1.800000X-1.150000X1.800000X-0.550000X1.800000X0.550000X-1.800000X1.150000X90.000000*%
%ADD27Outline4P,-1.800000X-1.150000X1.800000X-0.550000X1.800000X0.550000X-1.800000X1.150000X270.000000*%
%ADD28RoundRect,0.260000X-1.990000X0.390000X-1.990000X-0.390000X1.990000X-0.390000X1.990000X0.390000X0*%
%ADD29RoundRect,0.360000X-1.590000X0.540000X-1.590000X-0.540000X1.590000X-0.540000X1.590000X0.540000X0*%
%ADD30RoundRect,0.375000X0.375000X-0.625000X0.375000X0.625000X-0.375000X0.625000X-0.375000X-0.625000X0*%
%ADD31RoundRect,0.155000X-0.212500X-0.155000X0.212500X-0.155000X0.212500X0.155000X-0.212500X0.155000X0*%
%ADD32RoundRect,0.155000X0.212500X0.155000X-0.212500X0.155000X-0.212500X-0.155000X0.212500X-0.155000X0*%
%ADD33R,0.600000X1.500000*%
%ADD34R,0.300000X1.500000*%
%ADD35RoundRect,0.250000X-1.075000X0.400000X-1.075000X-0.400000X1.075000X-0.400000X1.075000X0.400000X0*%
%ADD36RoundRect,0.500000X0.500000X-0.500000X0.500000X0.500000X-0.500000X0.500000X-0.500000X-0.500000X0*%
%ADD37RoundRect,0.350000X0.350000X1.050000X-0.350000X1.050000X-0.350000X-1.050000X0.350000X-1.050000X0*%
%ADD38RoundRect,0.237500X0.250000X0.237500X-0.250000X0.237500X-0.250000X-0.237500X0.250000X-0.237500X0*%
G04 APERTURE END LIST*
D10*
X-9584918Y-3089682D03*
X-8347482Y-4327118D03*
D11*
X-8506000Y-37592000D03*
X-11306000Y-37592000D03*
D12*
X9144000Y-24029500D03*
X9144000Y-25754500D03*
D13*
X9144000Y-31599500D03*
X9144000Y-33424500D03*
D14*
X10348000Y-35384500D03*
X8448000Y-35384500D03*
X9398000Y-37259500D03*
D15*
X3576000Y-36462000D03*
X6076000Y-36462000D03*
D16*
X736000Y-43262000D03*
X8916000Y-43262000D03*
D17*
X-4976500Y-41148000D03*
X-3151500Y-41148000D03*
D18*
X-7476718Y-44052718D03*
X-6239282Y-42815282D03*
D19*
X8382000Y-4826000D03*
D20*
X3638000Y-31630000D03*
X4953000Y-31630000D03*
X6223000Y-31630000D03*
X7488000Y-31630000D03*
X7493000Y-24130000D03*
X6223000Y-24130000D03*
X4953000Y-24130000D03*
X3688000Y-24130000D03*
D21*
X5588000Y-27880000D03*
D22*
X11430000Y-520000D03*
D23*
X11430000Y-2540000D03*
D24*
X-8614500Y-35306000D03*
X-10689500Y-35306000D03*
D25*
X1459500Y-12446000D03*
X7684500Y-12446000D03*
D26*
X254000Y-30586000D03*
D27*
X254000Y-24786000D03*
D25*
X-5906500Y-35560000D03*
X318500Y-35560000D03*
D28*
X-3315000Y-13355000D03*
X-3315000Y-15855000D03*
D29*
X-10115000Y-10515000D03*
X-10115000Y-18695000D03*
D22*
X-11430000Y-45200000D03*
D30*
X-11430000Y-43180000D03*
D31*
X6350000Y-16764000D03*
X7485000Y-16764000D03*
D32*
X-8322500Y-33782000D03*
X-9457500Y-33782000D03*
D19*
X-2794000Y-43688000D03*
D22*
X11430000Y-45200000D03*
D30*
X11430000Y-43180000D03*
D33*
X3200000Y-7600000D03*
X2400000Y-7600000D03*
D34*
X1250000Y-7600000D03*
X250000Y-7600000D03*
X-250000Y-7600000D03*
X-1250000Y-7600000D03*
D33*
X-2400000Y-7600000D03*
X-3200000Y-7600000D03*
X-3200000Y-7600000D03*
X-2400000Y-7600000D03*
D34*
X-1750000Y-7600000D03*
X-750000Y-7600000D03*
X750000Y-7600000D03*
X1750000Y-7600000D03*
D33*
X2400000Y-7600000D03*
X3200000Y-7600000D03*
D35*
X8890000Y-18770000D03*
X8890000Y-21870000D03*
D36*
X-8636000Y-29162000D03*
X-8636000Y-23162000D03*
D37*
X4994000Y-20066000D03*
X594000Y-20066000D03*
D22*
X-11430000Y-520000D03*
D23*
X-11430000Y-2540000D03*
D19*
X-4064000Y-22352000D03*
D38*
X-4167500Y-9906000D03*
X-5992500Y-9906000D03*
D24*
X-1248500Y-19050000D03*
X-3323500Y-19050000D03*
D10*
X-9457918Y-5324882D03*
X-8220482Y-6562318D03*
M02*
