M48
; DRILL file {KiCad 8.0.8} date 2025-05-11T18:20:28+0300
; FORMAT={-:-/ absolute / inch / decimal}
; #@! TF.CreationDate,2025-05-11T18:20:28+03:00
; #@! TF.GenerationSoftware,Kicad,Pcbnew,8.0.8
; #@! TF.FileFunction,Plated,1,2,PTH
FMAT,2
INCH
; #@! TA.AperFunction,Plated,PTH,ViaDrill
T1C0.0118
; #@! TA.AperFunction,Plated,PTH,ComponentDrill
T2C0.0236
; #@! TA.AperFunction,Plated,PTH,ComponentDrill
T3C0.0394
; #@! TA.AperFunction,Plated,PTH,ComponentDrill
T4C0.0787
%
G90
G05
T1
X-0.4685Y-0.705
X-0.4685Y-0.77
X-0.415Y-1.445
X-0.4Y-1.35
X-0.37Y-0.38
X-0.37Y-0.45
X-0.35Y-0.53
X-0.31Y-1.35
X-0.31Y-1.44
X-0.3Y-1.68
X-0.27Y-1.35
X-0.27Y-1.45
X-0.25Y-0.85
X-0.25Y-0.89
X-0.24Y-0.81
X-0.24Y-0.93
X-0.2Y-1.35
X-0.2Y-1.45
X-0.14Y-0.31
X-0.1354Y-0.2656
X-0.12Y-0.36
X-0.104Y-0.5711
X-0.0938Y-0.2646
X-0.0916Y-0.4064
X-0.0601Y-0.4064
X-0.06Y-1.08
X-0.04Y-1.11
X-0.03Y-1.27
X-0.03Y-1.36
X-0.03Y-1.45
X-0.01Y-1.15
X-0.005Y-1.775
X0.03Y-1.15
X0.05Y-1.27
X0.05Y-1.36
X0.05Y-1.45
X0.06Y-1.775
X0.0952Y-0.2646
X0.1368Y-0.267
X0.1371Y-0.3234
X0.14Y-1.2
X0.14Y-1.29
X0.158Y-1.054
X0.19Y-1.18
X0.195Y-0.89
X0.195Y-1.01
X0.206Y-1.142
X0.21Y-1.43
X0.22Y-1.5187
X0.2215Y-1.18
X0.26Y-1.5187
X0.27Y-1.45
X0.282Y-1.054
X0.282Y-1.142
X0.3Y-0.76
X0.32Y-1.37
X0.32Y-1.42
X0.32Y-1.775
X0.34Y-0.76
X0.34Y-1.035
X0.35Y-1.39
X0.37Y-0.4395
X0.3771Y-0.3564
X0.38Y-1.035
X0.385Y-1.775
X0.4Y-0.5
X0.4Y-0.56
X0.4Y-0.62
X0.4Y-0.68
X0.4064Y-1.28
T3
X-0.45Y0.0
X-0.45Y-0.1
X-0.45Y-1.7
X-0.45Y-1.8
X0.45Y0.0
X0.45Y-0.1
X0.45Y-1.7
X0.45Y-1.8
T4
X-0.16Y-0.88
X-0.11Y-1.72
X0.33Y-0.19
T2
G00X-0.2181Y-0.1358
M15
G01X-0.2181Y-0.0886
M16
G05
G00X-0.2181Y-0.2835
M15
G01X-0.2181Y-0.248
M16
G05
G00X0.2181Y-0.1358
M15
G01X0.2181Y-0.0886
M16
G05
G00X0.2181Y-0.2835
M15
G01X0.2181Y-0.248
M16
G05
M30
